<?xml version="1.0" encoding="UTF-8" standalone="no"?>
<!-- Created with Inkscape (http://www.inkscape.org/) -->

<svg
   xmlns:dc="http://purl.org/dc/elements/1.1/"
   xmlns:cc="http://creativecommons.org/ns#"
   xmlns:rdf="http://www.w3.org/1999/02/22-rdf-syntax-ns#"
   xmlns:svg="http://www.w3.org/2000/svg"
   xmlns="http://www.w3.org/2000/svg"
   xmlns:sodipodi="http://sodipodi.sourceforge.net/DTD/sodipodi-0.dtd"
   xmlns:inkscape="http://www.inkscape.org/namespaces/inkscape"
   width="700"
   height="700"
   id="svg5764"
   version="1.1"
   inkscape:version="0.48.4 r9939"
   sodipodi:docname="goal-ui.svg">
  <defs
     id="defs5766" />
  <sodipodi:namedview
     id="base"
     pagecolor="#ffffff"
     bordercolor="#666666"
     borderopacity="1.0"
     inkscape:pageopacity="0.0"
     inkscape:pageshadow="2"
     inkscape:zoom="0.98994949"
     inkscape:cx="72.153926"
     inkscape:cy="434.1396"
     inkscape:document-units="px"
     inkscape:current-layer="g3799"
     showgrid="false"
     borderlayer="true"
     inkscape:window-width="1920"
     inkscape:window-height="1056"
     inkscape:window-x="1920"
     inkscape:window-y="24"
     inkscape:window-maximized="1" />
  <metadata
     id="metadata5769">
    <rdf:RDF>
      <cc:Work
         rdf:about="">
        <dc:format>image/svg+xml</dc:format>
        <dc:type
           rdf:resource="http://purl.org/dc/dcmitype/StillImage" />
        <dc:title></dc:title>
      </cc:Work>
    </rdf:RDF>
  </metadata>
  <g
     inkscape:label="Capa 1"
     inkscape:groupmode="layer"
     id="layer1"
     transform="translate(0,-352.36218)">
    <path
       sodipodi:type="arc"
       style="fill:#48d1cc;fill-opacity:1;stroke:none"
       id="path4989"
       sodipodi:cx="319"
       sodipodi:cy="1121"
       sodipodi:rx="76"
       sodipodi:ry="76"
       d="m 395,1121 c 0,41.9736 -34.02636,76 -76,76 -41.97364,0 -76,-34.0264 -76,-76 0,-41.9736 34.02636,-76 76,-76 41.97364,0 76,34.0264 76,76 z"
       transform="matrix(4.6052632,0,0,4.6052632,-1119.079,-4460.1378)" />
    <g
       id="g3799"
       transform="matrix(1.0506478,0,0,1.0506478,-230.83688,-322.4202)"
       style="fill:#008080">
      <path
         style="fill:#008080"
         d="M 348.9375 98.125 C 322.54733 98.354761 296.31692 106.31318 272.84375 121.84375 C 259.41241 130.73034 239.57077 150.36584 230.4375 163.84375 C 226.83238 169.1638 223.41252 173.80472 222.84375 174.15625 C 222.27498 174.50777 218.72804 173.57895 214.9375 172.0625 C 202.72839 167.17808 190.12609 164.93569 178.25 165.5625 C 129.64142 168.12798 90.753088 208.11595 82.5625 263.96875 C 77.69943 297.1308 85.799848 331.46487 104.78125 358.15625 C 114.51657 371.84592 132.24242 386.41324 146.1875 392.1875 C 154.81886 395.76159 155.13289 396.21555 153.21875 402.28125 C 149.66743 413.53516 148.86029 419.38263 148.875 433.125 C 148.89982 456.34222 152.42642 470.88548 163.5625 493.53125 C 181.34398 529.69066 213.47606 560.17848 254.9375 580.21875 C 280.63994 592.64192 304.83894 599.1153 335.3125 601.6875 C 343.92366 602.41434 372.45401 601.22469 382.0625 599.75 C 401.58055 596.75418 416.92039 592.41644 435.53125 584.65625 C 493.6009 560.44281 538.05265 511.05507 549.1875 458.34375 C 552.05489 444.7698 551.88518 421.80876 548.8125 409.5 C 547.51424 404.29929 546.16169 399.18452 545.84375 398.15625 C 545.3813 396.66044 546.86113 395.58161 553.125 392.6875 C 599.39092 371.31136 625.49879 318.58675 617.34375 263.0625 C 609.40437 209.00667 570.58701 168.73378 523.375 165.5625 C 512.34018 164.82128 501.49957 166.42433 489.78125 170.5625 C 484.85969 172.30048 479.90589 173.82358 478.78125 173.9375 C 477.28054 174.08951 474.91255 171.48158 469.875 164.15625 C 455.48771 143.23508 430.96477 121.9158 409.5625 111.71875 C 390.07484 102.43391 369.46319 97.946297 348.9375 98.125 z M 393.1875 142.09375 C 394.37818 142.09375 398.54083 143.97422 402.4375 146.25 C 432.39544 163.74639 454.2813 193.71772 462.9375 229.125 C 469.0236 254.01951 469.13116 275.91931 463.3125 301.28125 C 461.20134 310.4832 454.10152 329.64199 451.25 333.8125 C 448.47344 337.87335 449.48555 339.98515 455.875 343.5 C 478.31432 355.84392 499.84864 377.36877 509.09375 396.65625 C 528.55718 437.26169 514.54742 484.98777 472.0625 522.78125 C 447.37315 544.74431 414.01741 560.38079 379.59375 566.125 C 370.41703 567.65632 343.62157 568.81587 335.84375 568.03125 C 278.50624 562.24743 229.22191 534.48242 201.25 492.21875 C 178.19098 457.37811 176.02737 421.2091 195.09375 389.15625 C 204.55396 373.25256 222.95677 355.9165 242.65625 344.375 C 246.30495 342.2373 249.57496 339.80084 249.90625 338.9375 C 250.23754 338.07417 249.48118 335.34019 248.25 332.875 C 235.3591 307.06346 229.87269 275.75993 233.4375 248.5625 C 237.64187 216.48556 249.80767 189.89387 270.3125 167.9375 C 280.30579 157.23679 297.93275 144.1875 302.4375 144.1875 C 303.36019 144.1875 307.21966 145.94729 311.03125 148.0625 C 329.05186 158.06283 340.2351 168.7404 346 181.5625 C 347.92965 185.85435 349.76588 189.37437 350.09375 189.375 C 350.42162 189.37563 351.51271 186.73118 352.53125 183.5 C 354.59703 176.94658 358.87651 169.25251 363.96875 162.90625 C 370.06569 155.30788 388.60864 142.09375 393.1875 142.09375 z M 180.96875 198.96875 C 182.93181 198.92877 184.86079 199.02796 186.75 199.25 C 193.86979 200.08679 205.51089 203.69292 207.0625 205.5625 C 208.01926 206.71533 207.48081 210.40255 204.625 222.125 C 196.76579 254.3854 196.93336 279.3866 205.25 312.71875 L 208.625 326.28125 L 203.9375 330.0625 C 195.44976 336.88457 181.82435 350.53331 176.3125 357.75 C 170.19092 365.76501 169.56213 365.9559 160.71875 362.28125 C 132.15127 350.41075 113.12381 315.33179 115.0625 278.15625 C 116.38004 252.89164 125.13161 232.25823 141.21875 216.46875 C 152.08178 205.80672 167.2273 199.24859 180.96875 198.96875 z M 517.59375 199.40625 C 523.57578 199.29419 529.49736 199.88191 533.75 201.21875 C 547.24427 205.46076 559.58513 214.87876 568.375 227.59375 C 598.83612 271.65732 586.16547 338.56334 543.28125 360.03125 C 537.99655 362.67677 532.65363 364.84375 531.40625 364.84375 C 529.84169 364.84375 527.45535 362.64234 523.71875 357.75 C 518.20859 350.53551 504.57422 336.87842 496.09375 330.0625 L 491.4375 326.28125 L 495.3125 310.09375 C 503.31869 276.8414 503.19645 251.13737 494.875 219.6875 C 492.26759 209.83311 491.84176 206.92607 492.84375 205.71875 C 493.53868 204.8814 497.26821 203.14681 501.125 201.84375 C 505.56366 200.3441 511.61172 199.51831 517.59375 199.40625 z M 216.0625 401.09375 L 216.28125 407.15625 C 216.70677 419.66369 222.70058 435.64963 231.71875 448.28125 C 234.23067 451.79966 240.12968 458.34162 244.84375 462.84375 C 265.32469 482.40408 292.86109 494.93541 325.9375 499.75 C 360.22037 504.74016 402.46658 497.41118 429.875 481.6875 C 444.92112 473.0559 459.97016 459.96634 468.3125 448.28125 C 477.33067 435.64963 483.35573 419.66369 483.78125 407.15625 L 483.96875 401.09375 L 467.8125 401.09375 L 451.625 401.09375 L 451.59375 401.21875 L 248.5625 401.21875 L 248.53125 401.09375 L 232.3125 401.09375 L 216.0625 401.09375 z M 261.84375 432.65625 L 438.3125 432.65625 C 437.17527 434.03799 435.96541 435.40524 434.65625 436.75 C 394.99264 477.49265 307.28641 477.97911 266.4375 437.6875 C 264.78585 436.05838 263.26916 434.38475 261.84375 432.65625 z "
         transform="matrix(0.95179374,0,0,0.95179374,219.7091,642.25365)"
         id="path3801" />
    </g>
    <text
       xml:space="preserve"
       style="font-size:130.50025940000000446px;font-style:normal;font-weight:normal;line-height:125%;letter-spacing:0px;word-spacing:0px;fill:#008080;fill-opacity:1;stroke:none;font-family:Sans"
       x="272.30496"
       y="665.84857"
       id="text3807"
       sodipodi:linespacing="125%"
       transform="scale(0.98340369,1.0168764)"><tspan
         sodipodi:role="line"
         id="tspan3809"
         x="272.30496"
         y="665.84857"
         style="font-weight:bold;fill:#008080;-inkscape-font-specification:Sans Bold">UI</tspan></text>
  </g>
</svg>
