<?xml version="1.0" encoding="UTF-8" standalone="no"?>
<!-- Created with Inkscape (http://www.inkscape.org/) -->

<svg
   xmlns:dc="http://purl.org/dc/elements/1.1/"
   xmlns:cc="http://creativecommons.org/ns#"
   xmlns:rdf="http://www.w3.org/1999/02/22-rdf-syntax-ns#"
   xmlns:svg="http://www.w3.org/2000/svg"
   xmlns="http://www.w3.org/2000/svg"
   xmlns:sodipodi="http://sodipodi.sourceforge.net/DTD/sodipodi-0.dtd"
   xmlns:inkscape="http://www.inkscape.org/namespaces/inkscape"
   width="700"
   height="700"
   id="svg5764"
   version="1.1"
   inkscape:version="0.48.4 r9939"
   sodipodi:docname="goal-ux.svg">
  <defs
     id="defs5766" />
  <sodipodi:namedview
     id="base"
     pagecolor="#ffffff"
     bordercolor="#666666"
     borderopacity="1.0"
     inkscape:pageopacity="0.0"
     inkscape:pageshadow="2"
     inkscape:zoom="0.7"
     inkscape:cx="72.059481"
     inkscape:cy="342.5005"
     inkscape:document-units="px"
     inkscape:current-layer="layer1"
     showgrid="false"
     borderlayer="true"
     inkscape:window-width="1920"
     inkscape:window-height="1056"
     inkscape:window-x="1920"
     inkscape:window-y="24"
     inkscape:window-maximized="1" />
  <metadata
     id="metadata5769">
    <rdf:RDF>
      <cc:Work
         rdf:about="">
        <dc:format>image/svg+xml</dc:format>
        <dc:type
           rdf:resource="http://purl.org/dc/dcmitype/StillImage" />
        <dc:title />
      </cc:Work>
    </rdf:RDF>
  </metadata>
  <g
     inkscape:label="Capa 1"
     inkscape:groupmode="layer"
     id="layer1"
     transform="translate(0,-352.36218)">
    <path
       sodipodi:type="arc"
       style="fill:#98fb98;fill-opacity:1;stroke:none"
       id="path4989"
       sodipodi:cx="319"
       sodipodi:cy="1121"
       sodipodi:rx="76"
       sodipodi:ry="76"
       d="m 395,1121 c 0,41.9736 -34.02636,76 -76,76 -41.97364,0 -76,-34.0264 -76,-76 0,-41.9736 34.02636,-76 76,-76 41.97364,0 76,34.0264 76,76 z"
       transform="matrix(4.6052632,0,0,4.6052632,-1119.079,-4460.1378)" />
    <g
       id="g3799"
       transform="matrix(1.0506478,0,0,1.0506478,-230.83688,-322.4202)"
       style="fill:#006400">
      <path
         style="fill:#006400"
         d="m 538.85715,1214.9216 c -29.00454,-2.4482 -52.03658,-8.5963 -76.5,-20.4206 -39.46274,-19.0742 -70.03874,-48.0796 -86.96304,-82.4959 -10.59925,-21.5541 -13.96918,-35.402 -13.9928,-57.5 -0.014,-13.0799 0.77258,-18.6392 4.1527,-29.3506 1.82187,-5.7733 1.51841,-6.2088 -6.69686,-9.6106 -13.27284,-5.4959 -30.16356,-19.37917 -39.42958,-32.40891 -18.06638,-25.40469 -25.7707,-58.06649 -21.14206,-89.62992 7.79575,-53.16035 44.8063,-91.22593 91.07164,-93.66774 11.30359,-0.59659 23.30092,1.52421 34.92147,6.17317 3.60781,1.44335 7.00258,2.35053 7.54393,2.01596 0.54135,-0.33458 3.79172,-4.75126 7.22305,-9.81485 8.69299,-12.82819 27.55751,-31.52541 40.34138,-39.98361 39.71843,-26.27893 87.74387,-29.83459 130.13983,-9.63515 20.37055,9.70549 43.71108,29.99958 57.40481,49.91222 4.79471,6.9722 7.05092,9.44755 8.47929,9.30287 1.07043,-0.10843 5.77885,-1.55057 10.46316,-3.20477 11.15342,-3.93868 21.48021,-5.48042 31.98308,-4.77493 44.9361,3.0184 81.88233,41.35517 89.43898,92.80517 7.76192,52.84763 -17.10467,103.02361 -61.14028,123.36929 -5.96191,2.7546 -7.34223,3.7991 -6.90207,5.2228 0.30261,0.9787 1.56121,5.8296 2.79689,10.7796 2.92456,11.7154 3.09798,33.5804 0.36882,46.5 -10.59808,50.1703 -52.89536,97.1861 -108.16569,120.2323 -17.7137,7.3861 -32.31949,11.5062 -50.89665,14.3576 -9.1453,1.4036 -36.30395,2.5184 -44.5,1.8266 z m 42.16026,-33.846 c 32.76422,-5.4673 64.50753,-20.3459 88.0067,-41.2502 40.43688,-35.9716 53.77378,-81.3901 35.24861,-120.0381 -8.79944,-18.3577 -29.30797,-38.83192 -50.66557,-50.58079 -6.08144,-3.34541 -7.04403,-5.36384 -4.40132,-9.22893 2.71406,-3.96947 9.48489,-22.21415 11.49428,-30.97251 5.53816,-24.13934 5.42729,-44.97493 -0.36542,-68.66937 -8.23892,-33.70043 -29.06937,-62.23936 -57.58315,-78.89231 -3.70883,-2.16607 -7.67056,-3.93832 -8.80384,-3.93832 -4.35813,0 -22.00512,12.56004 -27.80815,19.79212 -4.84676,6.04033 -8.91883,13.37871 -10.88503,19.61621 -0.96944,3.07542 -2.01793,5.59118 -2.32999,5.59058 -0.31206,-6e-4 -2.07007,-3.34333 -3.9067,-7.42829 -5.487,-12.20399 -16.10488,-22.39194 -33.25678,-31.91019 -3.62785,-2.01324 -7.31463,-3.66043 -8.19284,-3.66043 -4.28759,0 -21.07975,12.39397 -30.5913,22.57884 -19.51637,20.89794 -31.09278,46.21289 -35.09447,76.74352 -3.39296,25.88634 1.84968,55.68517 14.11916,80.25243 1.17183,2.34635 1.8726,4.9384 1.55728,5.76011 -0.31532,0.82172 -3.41471,3.15874 -6.88752,5.19339 -18.74984,10.98513 -36.27216,27.47721 -45.27633,42.61424 -18.14726,30.5077 -16.09149,64.9505 5.85594,98.1116 26.62349,40.2263 73.5327,66.6462 128.10618,72.1512 7.40288,0.7468 32.92592,-0.3773 41.66026,-1.8348 z m -51.08124,-63.1567 c -31.48192,-4.5825 -57.67902,-16.5053 -77.17265,-35.1227 -4.48682,-4.2851 -10.114,-10.5311 -12.50483,-13.8799 -8.58344,-12.0227 -14.30038,-27.2412 -14.70539,-39.1457 l -0.19615,-5.7655 15.45493,0 15.45494,0 1.29324,6.5 c 2.09571,10.5332 7.42449,20.1166 15.75432,28.3328 38.87974,38.3493 122.34326,37.8818 160.09484,-0.8968 7.41321,-7.6148 11.84715,-15.7006 14.29256,-26.0641 l 1.85749,-7.8719 15.39884,0 15.39884,0 -0.19615,5.7655 c -0.40501,11.9045 -6.12195,27.123 -14.70539,39.1457 -7.94019,11.1218 -22.27766,23.5762 -36.59846,31.7917 -26.08716,14.9657 -66.29076,21.9605 -98.92098,17.2109 z M 387.53313,982.75507 c 5.24614,-6.8688 18.20947,-19.86839 26.28805,-26.36159 l 4.46403,-3.58798 -3.21871,-12.90022 c -7.91573,-31.72533 -8.08175,-55.53184 -0.6014,-86.23709 2.71814,-11.15735 3.23322,-14.64957 2.32258,-15.74683 -1.47681,-1.77945 -12.55588,-5.23726 -19.33245,-6.03371 -14.38512,-1.69069 -31.52439,4.78986 -43.34081,16.38763 -15.31164,15.02833 -23.64419,34.68309 -24.89822,58.72979 -1.84523,35.38345 16.27554,68.75906 43.46589,80.05733 8.41707,3.49751 9.02456,3.32131 14.85104,-4.30733 z m 349.26606,2.17183 c 40.81693,-20.43302 52.89038,-84.12016 23.89768,-126.05959 -8.36614,-12.10205 -20.12331,-21.0486 -32.96707,-25.08612 -8.09528,-2.5448 -22.59759,-2.27314 -31.04697,0.58158 -3.67087,1.24024 -7.21549,2.90707 -7.87692,3.70405 -0.95369,1.14912 -0.55487,3.89714 1.92685,13.27649 7.9203,29.93379 8.0396,54.41827 0.41936,86.06765 l -3.70928,15.40589 4.45715,3.58231 c 8.07166,6.48735 21.03664,19.4892 26.28118,26.35591 3.55647,4.6565 5.8249,6.75 7.31404,6.75 1.18725,0 6.27404,-2.06018 11.30398,-4.57817 z"
         id="path3801"
         inkscape:connector-curvature="0" />
    </g>
    <text
       xml:space="preserve"
       style="font-size:130.50025940000000446px;font-style:normal;font-weight:normal;line-height:125%;letter-spacing:0px;word-spacing:0px;fill:#006400;fill-opacity:1;stroke:none;font-family:Sans"
       x="247.89993"
       y="665.84857"
       id="text3807"
       sodipodi:linespacing="125%"
       transform="scale(0.9834037,1.0168764)"><tspan
         sodipodi:role="line"
         id="tspan3809"
         x="247.89993"
         y="665.84857"
         style="font-weight:bold;-inkscape-font-specification:Sans Bold;fill:#006400">UX</tspan></text>
  </g>
</svg>
