<?xml version="1.0" encoding="UTF-8" standalone="no"?>
<!-- Created with Inkscape (http://www.inkscape.org/) -->

<svg
   xmlns:dc="http://purl.org/dc/elements/1.1/"
   xmlns:cc="http://creativecommons.org/ns#"
   xmlns:rdf="http://www.w3.org/1999/02/22-rdf-syntax-ns#"
   xmlns:svg="http://www.w3.org/2000/svg"
   xmlns="http://www.w3.org/2000/svg"
   xmlns:sodipodi="http://sodipodi.sourceforge.net/DTD/sodipodi-0.dtd"
   xmlns:inkscape="http://www.inkscape.org/namespaces/inkscape"
   width="700"
   height="700"
   id="svg5764"
   version="1.1"
   inkscape:version="0.48.4 r9939"
   sodipodi:docname="how.svg">
  <defs
     id="defs5766" />
  <sodipodi:namedview
     id="base"
     pagecolor="#ffffff"
     bordercolor="#666666"
     borderopacity="1.0"
     inkscape:pageopacity="0.0"
     inkscape:pageshadow="2"
     inkscape:zoom="0.98994949"
     inkscape:cx="423.68756"
     inkscape:cy="340.88794"
     inkscape:document-units="px"
     inkscape:current-layer="layer1"
     showgrid="false"
     borderlayer="true"
     inkscape:window-width="1920"
     inkscape:window-height="1056"
     inkscape:window-x="1920"
     inkscape:window-y="24"
     inkscape:window-maximized="1" />
  <metadata
     id="metadata5769">
    <rdf:RDF>
      <cc:Work
         rdf:about="">
        <dc:format>image/svg+xml</dc:format>
        <dc:type
           rdf:resource="http://purl.org/dc/dcmitype/StillImage" />
        <dc:title />
      </cc:Work>
    </rdf:RDF>
  </metadata>
  <g
     inkscape:label="Capa 1"
     inkscape:groupmode="layer"
     id="layer1"
     transform="translate(0,-352.36218)">
    <g
       id="g5879"
       transform="matrix(1.1911394,0,0,1.1911394,-55.16395,191.8626)"
       style="fill:#ff8c00">
      <title
         id="title5881">Layer 1</title>
      <g
         id="layer1-5"
         style="fill:#ff8c00">
        <path
           style="fill:#ff8c00;fill-opacity:1;stroke:none"
           d="M 350 0 C 156.70034 0 7.5791225e-14 156.70034 0 350 C 0 543.29966 156.70034 700 350 700 C 543.29966 700 700 543.29966 700 350 C 700 156.70034 543.29966 7.5791225e-14 350 0 z "
           transform="matrix(0.8395323,0,0,0.8395323,46.311918,134.74458)"
           id="path4989" />
      </g>
    </g>
    <g
       id="g3054"
       transform="translate(-475.78185,-131.31983)" />
    <g
       id="g3052"
       transform="matrix(1.0323678,0,0,1.0323678,-66.009809,-55.713928)"
       style="fill:#ffffff">
      <path
         style="fill:#ffffff"
         d="m 214.46299,934.84217 -2.6994,-2.32193 -0.0222,-133.68712 -0.0222,-133.68713 2.34012,-2.49095 2.34013,-2.49095 28.82568,0 28.82569,0 0.0666,4.25 c 0.21483,13.70246 -0.0479,25.91073 -0.57608,26.76529 -0.35395,0.57275 -6.65195,0.98471 -15.05408,0.98471 l -14.44553,0 0.25455,106.25 0.25454,106.25 115.39246,0.25422 c 84.44145,0.18603 115.75658,-0.048 116.75,-0.87245 0.96678,-0.80236 1.35754,-3.82592 1.35754,-10.50421 l 0,-9.37756 15.39301,0 c 13.11392,0 15.48288,0.2342 16,1.58179 0.33385,0.86998 0.60699,12.25498 0.60699,25.3 0,17.11416 -0.33413,24.05234 -1.2,24.91821 -0.92232,0.92232 -34.80983,1.2 -146.44424,1.2 l -145.24423,0 -2.6994,-2.32192 z m 84.44865,-74.58963 -2.36078,-1.91156 -0.2608,-133.65456 -0.26081,-133.65457 2.93388,-2.93388 2.93388,-2.93388 76.54174,0 c 85.00126,0 77.34576,-0.62555 79.04528,6.45899 0.66527,2.77318 -0.0171,3.66799 -10.86736,14.25 l -11.57719,11.29101 -52.29431,0 c -39.34002,0 -52.59157,0.29726 -53.49431,1.2 -0.91815,0.91815 -1.1964,25.63835 -1.18469,105.25 0.008,57.2275 0.37428,104.61541 0.81301,105.30646 0.63107,0.99399 16.34667,1.20288 75.23469,1 l 74.43699,-0.25646 0.5,-39 c 0.51626,-40.26832 0.72075,-42.17943 4.72222,-44.13235 0.97778,-0.47721 18.87778,-1.09265 39.77778,-1.36765 l 38,-0.5 0,-63.5 0,-63.5 -7.25,-0.29381 c -3.9875,-0.16159 -7.25,-0.66115 -7.25,-1.11012 0,-0.44897 1.65184,-2.56676 3.67076,-4.70619 4.8289,-5.11716 9.57868,-12.69176 11.84522,-18.88988 2.80868,-7.68067 2.44612,-7.5 15.0507,-7.5 10.30112,0 11.55709,0.20284 13.9318,2.25 l 2.61,2.25 0.0274,91.91418 0.0274,91.91419 -44.32742,44.33581 -44.32743,44.33582 -102.14343,0 c -99.07807,0 -102.21428,-0.0574 -104.50422,-1.91155 z M 435.55086,658.00341 c -5.0455,-2.77469 -7.09287,-9.85096 -4.3848,-15.15506 0.61336,-1.20134 11.07586,-11.90785 23.25,-23.79223 l 22.1348,-21.60797 -2.38419,-4.89203 c -8.76393,-17.98235 -5.66741,-37.11933 8.08816,-49.98605 16.25352,-15.20327 41.425,-14.76164 57.14747,1.00263 23.7965,23.85976 10.55756,63.52254 -23.30502,69.81995 -5.76461,1.07204 -11.854,0.52027 -19.7329,-1.78802 -1.84711,-0.54116 -5.98031,3.09996 -26.62986,23.45944 -23.5115,23.18122 -24.59093,24.09886 -28.31352,24.06961 -2.12858,-0.0167 -4.77014,-0.52535 -5.87014,-1.13027 z"
         id="path3054"
         inkscape:connector-curvature="0" />
    </g>
  </g>
</svg>
