<?xml version="1.0" encoding="UTF-8" standalone="no"?>
<!-- Created with Inkscape (http://www.inkscape.org/) -->

<svg
   xmlns:dc="http://purl.org/dc/elements/1.1/"
   xmlns:cc="http://creativecommons.org/ns#"
   xmlns:rdf="http://www.w3.org/1999/02/22-rdf-syntax-ns#"
   xmlns:svg="http://www.w3.org/2000/svg"
   xmlns="http://www.w3.org/2000/svg"
   xmlns:sodipodi="http://sodipodi.sourceforge.net/DTD/sodipodi-0.dtd"
   xmlns:inkscape="http://www.inkscape.org/namespaces/inkscape"
   width="700"
   height="700"
   id="svg5764"
   version="1.1"
   inkscape:version="0.48.4 r9939"
   sodipodi:docname="pain.svg">
  <defs
     id="defs5766" />
  <sodipodi:namedview
     id="base"
     pagecolor="#ffffff"
     bordercolor="#666666"
     borderopacity="1.0"
     inkscape:pageopacity="0.0"
     inkscape:pageshadow="2"
     inkscape:zoom="0.35"
     inkscape:cx="-489.13742"
     inkscape:cy="620.64319"
     inkscape:document-units="px"
     inkscape:current-layer="g3921"
     showgrid="false"
     borderlayer="true"
     inkscape:window-width="1920"
     inkscape:window-height="1056"
     inkscape:window-x="1920"
     inkscape:window-y="24"
     inkscape:window-maximized="1" />
  <metadata
     id="metadata5769">
    <rdf:RDF>
      <cc:Work
         rdf:about="">
        <dc:format>image/svg+xml</dc:format>
        <dc:type
           rdf:resource="http://purl.org/dc/dcmitype/StillImage" />
        <dc:title />
      </cc:Work>
    </rdf:RDF>
  </metadata>
  <g
     inkscape:label="Capa 1"
     inkscape:groupmode="layer"
     id="layer1"
     transform="translate(0,-352.36218)">
    <g
       id="g5879"
       transform="matrix(1.1911394,0,0,1.1911394,-55.16395,191.8626)">
      <title
         id="title5881">Layer 1</title>
      <g
         id="layer1-5">
        <path
           sodipodi:type="arc"
           style="fill:#dc143c;fill-opacity:1;stroke:none"
           id="path4989"
           sodipodi:cx="319"
           sodipodi:cy="1121"
           sodipodi:rx="76"
           sodipodi:ry="76"
           d="m 395,1121 c 0,41.9736 -34.02636,76 -76,76 -41.97364,0 -76,-34.0264 -76,-76 0,-41.9736 34.02636,-76 76,-76 41.97364,0 76,34.0264 76,76 z"
           transform="matrix(3.8662672,0,0,3.8662672,-893.19101,-3905.5046)" />
        <g
           id="g3079"
           transform="matrix(1.0908914,0,0,1.0908914,6.8714274,-170.20555)"
           style="fill:#ffffff">
          <path
             style="fill:#ffffff"
             d="m 352.11485,743.22577 c -15.96909,-2.12863 -34.88946,-12.72219 -43.42107,-24.31158 -5.39934,-7.33448 -8.5506,-15.8038 -13.99911,-37.62407 -4.97967,-19.94262 -6.18463,-22.9957 -10.82972,-27.43975 -2.6041,-2.49139 -2.73393,-2.51859 -12.02214,-2.51859 -9.11385,0 -9.58273,0.0922 -15.96522,3.13974 -11.79795,5.63333 -21.30533,17.41683 -22.7957,28.25314 -0.39757,2.89061 -0.0259,5.91174 1.36044,11.05834 1.44448,5.36248 1.91654,9.42449 1.94493,16.7358 0.0347,8.92533 -0.14664,10.05361 -2.40003,14.93653 -3.08541,6.68582 -9.5441,12.77799 -16.24194,15.32023 -6.60897,2.5085 -17.73899,2.54161 -25.4536,0.0757 -15.55677,-4.97254 -27.20156,-18.66781 -29.47696,-34.66745 -1.05525,-7.42003 -0.28389,-26.248 1.39845,-34.13459 5.16953,-24.23406 7.54935,-32.99437 38.12252,-57.38531 15.71188,-12.53477 12.91126,-9.33929 18.63308,-16.9418 2.52726,-3.35796 5.20558,-6.33967 5.95181,-6.62602 2.53838,-0.97406 5.62186,-0.52351 17.55008,2.56439 6.55443,1.69678 16.41903,5.18128 17.17057,4.89288 1.92831,-0.73996 14.75011,-23.22176 16.72486,-29.52967 1.95902,-6.2577 14.59327,-27.68834 12.89242,-29.3892 -0.64316,-0.64316 -8.86008,-3.17504 -18.25983,-5.6264 -9.39975,-2.45135 -22.52761,-4.96324 -23.5294,-5.58197 -1.0018,-0.61873 -3.79449,-4.63071 -6.20598,-8.91551 -2.41149,-4.28479 -6.49033,-10.62396 -9.06409,-14.08703 -4.69417,-6.31615 -30.6238,-17.51564 -62.97302,-48.86332 -15.44393,-14.96578 -17.614,-17.40553 -19.96683,-22.44821 -3.22092,-6.90322 -3.95719,-12.36155 -2.59881,-19.26608 1.36608,-6.94366 4.04214,-11.98506 8.95505,-16.87034 7.49364,-7.45149 17.6711,-10.37258 28.46807,-8.17079 10.53433,2.14823 15.29594,6.12608 35.24145,29.44076 15.07823,17.62521 33.38655,36.17576 40.28853,40.82154 7.17277,4.82806 20.59454,12.27831 21.13891,11.73394 0.25289,-0.25289 -0.36184,-4.54111 -1.36607,-9.52938 -5.9691,-29.65014 -1.04766,-56.12022 14.85552,-79.90089 16.97954,-25.39019 50.40571,-43.77079 79.96781,-43.97322 11.23299,-0.0769 17.57771,1.28202 26.61709,5.70095 16.7089,8.16819 26.88057,24.96552 29.21034,48.23749 1.56148,15.59757 -5.90046,42.32371 -17.57226,62.93778 -6.53518,11.54209 -13.39429,20.53527 -23.63909,30.99391 l -8.72884,8.91102 3.06983,0.26871 c 4.35106,0.38087 17.40553,-1.98559 25.16905,-4.56254 11.46961,-3.8071 15.80891,-6.64594 26.50616,-17.34081 10.99911,-10.99665 17.34082,-15.53383 25.67966,-18.37256 7.66277,-2.60857 18.22847,-2.66417 23.81427,-0.1253 9.83845,4.47177 15.82475,13.87991 16.47134,25.88653 0.47576,8.83454 -1.12514,15.00389 -7.07346,27.25872 -4.49385,9.2583 -5.12197,10.08747 -15.30123,20.19889 -9.53932,9.47574 -11.48359,10.98781 -19.18627,14.92113 -15.70935,8.02188 -20.55213,9.58563 -57.5963,18.59805 -7.7641,1.88891 -16.21934,4.22115 -18.78943,5.18274 -9.15912,3.42687 -13.86919,9.97067 -19.84495,27.57102 -5.13682,15.12941 -6.70406,24.51411 -6.72966,40.29756 -0.0387,23.87969 2.05991,29.0118 18.36683,44.91497 12.89635,12.57705 17.38641,18.61987 19.84172,26.70346 2.73109,8.99154 0.75947,18.4084 -5.29411,25.28562 -7.30489,8.2988 -24.51944,13.30246 -39.08567,11.36082 z m 20.49547,-15.20132 c 3.00355,-1.11493 6.22119,-3.15638 8.42682,-5.3465 3.06719,-3.0456 3.56801,-4.03705 3.56801,-7.06348 0,-6.91793 -3.39371,-12.01973 -16.79256,-25.24444 -11.47538,-11.32623 -12.60668,-12.72814 -16.25948,-20.14878 -5.56453,-11.3043 -6.74181,-17.45719 -6.74662,-35.26035 -0.004,-16.72414 1.63107,-27.1729 6.65349,-42.50501 4.4866,-13.69636 8.86492,-22.29239 14.20715,-27.89316 8.00544,-8.39287 14.18656,-10.92587 44.34094,-18.17077 22.69912,-5.45368 31.76307,-8.41906 42.5992,-13.93682 14.39788,-7.3314 24.93985,-17.81785 31.5293,-31.36325 4.78547,-9.83712 6.9451,-19.1708 5.52921,-23.89666 -2.27415,-7.5904 -8.81274,-11.56711 -17.69466,-10.76173 -7.59536,0.68872 -12.35304,3.80189 -26.26049,17.18344 -11.15998,10.73798 -13.20935,12.33174 -20.2797,15.77127 -13.65747,6.64397 -33.39376,10.47186 -54.03142,10.4795 -12.09462,0.004 -17.14359,-2.92445 -15.77587,-9.15165 0.4476,-2.03794 2.42368,-4.09104 8.69378,-9.0327 10.91976,-8.60618 25.40181,-23.40814 31.91534,-32.62036 6.02581,-8.52244 14.06586,-24.47088 17.25567,-34.22881 4.90344,-15.00009 6.12856,-29.43613 3.53499,-41.65402 -3.57024,-16.81878 -13.27777,-27.2828 -28.18436,-30.38073 -6.0497,-1.25727 -23.37009,-0.51198 -29.83965,1.28398 -32.17141,8.93085 -55.7277,32.2042 -63.97413,63.20576 -1.87906,7.06413 -2.18765,9.96389 -2.21361,20.80139 -0.0358,14.91364 1.34426,23.07295 6.19052,36.60156 3.91959,10.94176 4.08979,13.18253 1.20701,15.89077 -3.45116,3.24219 -6.55734,2.64051 -18.8106,-3.64377 -30.88085,-15.83771 -39.7082,-23.19483 -69.10023,-57.59136 -21.59664,-25.27383 -23.14878,-26.51756 -33.09317,-26.51756 -5.32713,0 -6.41658,0.28655 -9.57552,2.51859 -5.06119,3.57615 -6.63074,6.07566 -7.67922,12.22909 -0.87115,5.11271 -0.79849,5.6579 1.36089,10.21082 1.89781,4.00146 5.19982,7.59115 19.64881,21.36066 43.24891,41.21512 63.99956,48.38513 71.33326,62.14456 1.53372,2.87755 3.56339,5.55509 4.51037,5.9501 0.947,0.39501 13.58934,2.61727 22.45051,4.93835 17.99356,4.71322 19.89468,5.41322 21.52866,7.92694 3.78777,5.82712 -8.55124,33.26998 -12.27296,44.43847 -3.95687,11.87414 -21.45411,39.36751 -25.8211,39.33157 -1.11041,-0.009 -11.50294,-3.83119 -18.34374,-5.64298 -6.8408,-1.81179 -12.88544,-3.10793 -13.43252,-2.88032 -0.54708,0.22761 -2.31696,2.12635 -3.93306,4.21941 -4.30162,5.57119 -3.5791,4.05049 -19.21533,16.56805 -20.36701,16.30475 -19.4912,18.36261 -25.22733,28.96615 -4.31062,7.96842 -7.13393,17.92038 -8.1548,28.74504 -2.20391,23.36912 2.13396,35.88167 14.71083,42.43317 3.50379,1.82519 5.58539,2.24157 12.59298,2.51899 7.72181,0.30568 8.6248,0.17475 11.25576,-1.63195 1.57324,-1.08036 4.02887,-3.41721 5.45696,-5.193 2.48835,-3.09419 2.59467,-3.54886 2.55208,-10.91392 -0.0297,-5.14522 -0.68318,-10.18244 -1.97706,-15.24101 -4.11277,-16.07945 0.91627,-30.33643 15.50773,-43.96324 10.61713,-9.91523 22.04934,-14.67019 35.20665,-14.6434 9.0553,0.0185 13.19792,1.06155 18.57885,4.6781 8.87172,5.96272 11.41919,11.47026 18.7312,40.49602 5.02516,19.94794 7.61651,25.74077 14.67789,32.81178 5.40649,5.41387 15.46636,11.09923 23.57079,13.32109 6.87808,1.88564 19.60894,1.63323 25.36354,-0.50289 z m -9.22581,-247.68963 c -1.45383,-0.52529 -2.99608,-2.15596 -4.09794,-4.33286 -9.02166,-17.82387 -25.69141,-27.81661 -49.38728,-29.60541 -6.35173,-0.4795 -7.77841,-0.86562 -9.33997,-2.52782 -2.56549,-2.73084 -2.33865,-6.89663 0.50894,-9.34618 2.62998,-2.26236 6.69768,-2.43274 17.21383,-0.72101 23.63541,3.84715 43.4576,16.99579 52.14386,34.58854 1.78264,3.61047 2.36464,5.75156 1.97999,7.28412 -1.02346,4.07777 -4.97897,6.12126 -9.02143,4.66062 z m 20.545,-38.50456 c -11.70899,-2.36344 -18.58563,-10.41631 -18.60697,-21.78964 -0.0133,-7.08932 2.53871,-12.69253 7.95049,-17.45617 4.15543,-3.65775 10.17904,-6.05073 15.2309,-6.05073 5.19957,0 11.71126,3.15184 15.71745,7.60769 8.48297,9.4351 8.49937,21.50555 0.042,30.91217 -5.32495,5.92263 -12.58237,8.34131 -20.33388,6.77668 z m 9.617,-14.65915 c 4.42841,-2.90161 4.96949,-9.88112 1.06845,-13.78217 -2.25472,-2.25472 -3.16693,-2.58318 -7.17419,-2.58318 -6.14822,0 -8.71235,2.3523 -8.71235,7.9926 0,4.74035 0.98912,6.70991 4.46113,8.88311 3.01892,1.88961 6.99301,1.69378 10.35696,-0.51036 z M 331.1491,416.67623 c -7.96309,-1.64498 -15.31217,-7.72571 -17.57654,-14.54308 -1.64121,-4.94124 -1.2288,-12.29724 0.92997,-16.58711 3.708,-7.3685 13.57164,-14.19829 20.5053,-14.19829 7.9277,0 17.98128,6.81528 20.77836,14.08557 2.09331,5.44099 1.90295,12.90586 -0.46503,18.23642 -4.46331,10.04737 -13.90453,15.1275 -24.17206,13.00649 z m 7.58754,-13.74429 c 5.76466,-2.40863 7.90247,-7.8967 4.86841,-12.49795 -2.46427,-3.73715 -4.42763,-4.75883 -9.20011,-4.7875 -3.67651,-0.0221 -4.81937,0.34696 -6.6053,2.1329 -1.91759,1.91758 -2.11708,2.6723 -1.78018,6.73483 0.66425,8.00995 5.70601,11.34718 12.71718,8.41772 z"
             id="path3081"
             inkscape:connector-curvature="0"
             sodipodi:nodetypes="cssssssssssssssssssssssssssssssssssssssscssssssssssssssssccssssscssssssssscssssssssssssssssssssssscsssssssssscssssssssssssssssscsssssccsssssssssssssssssss" />
        </g>
      </g>
      <g
         id="g3915"
         transform="matrix(-0.3188973,-0.58730601,0.58730601,-0.3188973,117.23794,942.44798)"
         style="fill:#ffffff">
        <path
           style="fill:#ffffff"
           d="m 193.28125,282.59375 c -3.89756,0.0836 -4.60034,3.37212 -7.34375,12.59375 l -3.3125,11.09375 -19.65625,-5.71875 c -25.56728,-7.42734 -30.73134,-7.86878 -40.78125,-3.375 -12.84,5.74136 -19.76054,18.97542 -16.65625,31.8125 1.14341,4.72831 5.0588,11.82297 8.34375,15.125 5.26069,5.28803 9.00819,6.93659 30.0625,13.28125 11.16893,3.36572 20.52899,6.50418 20.78125,6.96875 0.25226,0.46458 -0.9393,5.61285 -2.65625,11.4375 -2.57757,8.74429 -2.96783,10.90664 -2.1875,12.34375 1.22396,2.25415 4.59501,3.65949 16.96875,7.09375 8.45698,2.34719 10.22428,2.59809 11.84375,1.71875 1.72919,-0.93892 3.26667,-5.68015 17.125,-52.46875 8.78503,-29.66003 14.98538,-51.89384 14.65625,-52.5 -1.13045,-2.08192 -4.12843,-3.37346 -15.59375,-6.6875 -5.76961,-1.6677 -9.25522,-2.76892 -11.59375,-2.71875 z m 36,38.0625 -6.625,21.15625 c -8.16925,26.06935 -10.47311,34.33103 -9.90625,35.375 0.23824,0.43876 32.92928,10.39221 72.90625,22.1875 l 25.78125,-54.4375 c -3.20769,-0.95158 -5.77954,-1.71189 -9.1875,-2.71875 l -72.96875,-21.5625 z"
           transform="matrix(-0.59944087,1.1039768,-1.1039768,-0.59944087,1111.0954,484.82997)"
           id="path3917"
           inkscape:connector-curvature="0" />
      </g>
      <g
         style="fill:#ffffff"
         transform="matrix(-0.3188973,-0.58730601,0.58730601,-0.3188973,195.85198,966.21124)"
         id="g3921">
        <path
           style="fill:#ffffff"
           d="m 451.90038,393.09883 c -3.07948,8.21279 -11.0641,22.75475 -12.49413,30.61992 -1.23752,6.80634 -2.77685,18.25115 -3.84375,26.46875 28.38315,8.07694 29.22062,7.24518 36.25,5.3125 3.28913,-0.90431 5.8228,-2.07875 9.0625,-4.1875 l 4.5,-2.90625 17.6875,5.3125 c 11.52308,3.4516 18.97477,5.26932 21.28125,5.21875 8.13177,-0.17826 14.36666,-6.70848 13.75,-14.375 -0.22117,-2.74977 -2.02331,-6.17782 -4.625,-8.8125 -1.64011,-1.6609 -5.58854,-3.15096 -21.46875,-7.96875 -16.25914,-4.93275 -19.54857,-6.13462 -19.78125,-7.34375 -0.15334,-0.79682 -1.39149,-3.48016 -2.75,-5.96875 -3.0912,-5.66433 -7.61649,-10.17774 -13.25,-13.1875 -1.46155,-0.78085 -8.68923,-3.395 -24.31837,-8.18242 z"
           transform="matrix(-0.59944087,1.1039768,-1.1039768,-0.59944087,1208.1172,399.06368)"
           id="path3923"
           inkscape:connector-curvature="0"
           sodipodi:nodetypes="cscscccssssscsc" />
      </g>
    </g>
  </g>
</svg>
