<?xml version="1.0" encoding="UTF-8" standalone="no"?>
<!-- Created with Inkscape (http://www.inkscape.org/) -->

<svg
   xmlns:dc="http://purl.org/dc/elements/1.1/"
   xmlns:cc="http://creativecommons.org/ns#"
   xmlns:rdf="http://www.w3.org/1999/02/22-rdf-syntax-ns#"
   xmlns:svg="http://www.w3.org/2000/svg"
   xmlns="http://www.w3.org/2000/svg"
   xmlns:sodipodi="http://sodipodi.sourceforge.net/DTD/sodipodi-0.dtd"
   xmlns:inkscape="http://www.inkscape.org/namespaces/inkscape"
   width="1200"
   height="1200"
   id="svg4177"
   version="1.1"
   inkscape:version="0.48.4 r9939"
   sodipodi:docname="11no-visible.svg">
  <defs
     id="defs4179" />
  <sodipodi:namedview
     id="base"
     pagecolor="#ffffff"
     bordercolor="#666666"
     borderopacity="1.0"
     inkscape:pageopacity="0.0"
     inkscape:pageshadow="2"
     inkscape:zoom="0.35355339"
     inkscape:cx="635.04268"
     inkscape:cy="127.83129"
     inkscape:document-units="px"
     inkscape:current-layer="layer1"
     showgrid="false"
     showguides="true"
     inkscape:guide-bbox="true"
     inkscape:window-width="1920"
     inkscape:window-height="1056"
     inkscape:window-x="1920"
     inkscape:window-y="24"
     inkscape:window-maximized="1">
    <sodipodi:guide
       orientation="0,1"
       position="674.28571,600"
       id="guide4185" />
    <sodipodi:guide
       orientation="1,0"
       position="600,734.28571"
       id="guide4187" />
    <sodipodi:guide
       orientation="1,0"
       position="300,720"
       id="guide4189" />
    <sodipodi:guide
       orientation="1,0"
       position="900,677.14286"
       id="guide4191" />
    <sodipodi:guide
       orientation="0,1"
       position="-174.28571,300"
       id="guide4193" />
    <sodipodi:guide
       orientation="0,1"
       position="0,899.43983"
       id="guide4195" />
    <sodipodi:guide
       orientation="0,1"
       position="101.07143,1200"
       id="guide4216" />
    <sodipodi:guide
       orientation="1,0"
       position="0,1105.7143"
       id="guide4218" />
    <sodipodi:guide
       orientation="0,1"
       position="137.85714,0"
       id="guide4220" />
    <sodipodi:guide
       orientation="1,0"
       position="1200,138.92857"
       id="guide4222" />
  </sodipodi:namedview>
  <metadata
     id="metadata4182">
    <rdf:RDF>
      <cc:Work
         rdf:about="">
        <dc:format>image/svg+xml</dc:format>
        <dc:type
           rdf:resource="http://purl.org/dc/dcmitype/StillImage" />
        <dc:title></dc:title>
      </cc:Work>
    </rdf:RDF>
  </metadata>
  <g
     inkscape:label="Capa 1"
     inkscape:groupmode="layer"
     id="layer1"
     transform="translate(0,147.63782)">
    <path
       style="font-size:medium;font-style:normal;font-variant:normal;font-weight:normal;font-stretch:normal;text-indent:0;text-align:start;text-decoration:none;line-height:normal;letter-spacing:normal;word-spacing:normal;text-transform:none;direction:ltr;block-progression:tb;writing-mode:lr-tb;text-anchor:start;baseline-shift:baseline;color:#000000;fill:#000000;fill-opacity:1;stroke:none;stroke-width:95.75170898;marker:none;visibility:visible;display:inline;overflow:visible;enable-background:accumulate;font-family:Sans;-inkscape-font-specification:Sans"
       d="m 558.03125,906.36218 0,-119.21875 C 492.64008,781.34682 430.35302,763.5612 372.96875,739.36218 L 317.25,853.20593 l -75.28125,-36.84375 55.625,-113.625 C 237.46075,669.63944 184.85172,631.41361 142.375,596.39343 L 72.21875,681.92468 7.4375,628.76843 79.65625,540.73718 C 45.890755,508.42625 27.0625,486.26843 27.0625,486.26843 l -28,-31.65625 27.96875,-31.71875 c 0,0 257.39013,-303.46875 576.5625,-303.46875 319.17238,0 570.81245,303.90625 570.81245,303.90625 l 26.9063,31.28125 -26.9375,31.21875 c 0,0 -18.1265,21.84787 -50.8125,53.8125 l 68.5937,89.5 -66.5,51 -64.4374,-84.0625 c -44.3614,37.21315 -100.10629,78.02071 -164.2188,112.5 l 54.25,102.625 -74.125,39.15625 -56.03125,-106.03125 c -55.67693,22.504 -115.94286,38.63188 -179.25,43.375 l 0,118.65625 z m 45.5625,-212.9375 c 201.68804,0 395.03225,-168.02628 467.65625,-238.875 -72.60179,-70.95994 -265.98183,-239.375 -467.65625,-239.375 -201.31124,0 -398.41114,168.07671 -473.03125,239.375 74.6426,71.18625 271.70632,238.875 473.03125,238.875 z"
       id="path2993"
       inkscape:connector-curvature="0"
       sodipodi:nodetypes="cccccccccccccsccccccccccccccscscs" />
  </g>
</svg>
