<?xml version="1.0" encoding="UTF-8" standalone="no"?>
<!-- Created with Inkscape (http://www.inkscape.org/) -->

<svg
   xmlns:dc="http://purl.org/dc/elements/1.1/"
   xmlns:cc="http://creativecommons.org/ns#"
   xmlns:rdf="http://www.w3.org/1999/02/22-rdf-syntax-ns#"
   xmlns:svg="http://www.w3.org/2000/svg"
   xmlns="http://www.w3.org/2000/svg"
   xmlns:sodipodi="http://sodipodi.sourceforge.net/DTD/sodipodi-0.dtd"
   xmlns:inkscape="http://www.inkscape.org/namespaces/inkscape"
   width="1200"
   height="1200"
   id="svg4177"
   version="1.1"
   inkscape:version="0.48.4 r9939"
   sodipodi:docname="20hold.svg">
  <defs
     id="defs4179" />
  <sodipodi:namedview
     id="base"
     pagecolor="#ffffff"
     bordercolor="#666666"
     borderopacity="1.0"
     inkscape:pageopacity="0.0"
     inkscape:pageshadow="2"
     inkscape:zoom="0.70710678"
     inkscape:cx="897.99929"
     inkscape:cy="593.28058"
     inkscape:document-units="px"
     inkscape:current-layer="layer1"
     showgrid="false"
     showguides="true"
     inkscape:guide-bbox="true"
     inkscape:window-width="2560"
     inkscape:window-height="1416"
     inkscape:window-x="1920"
     inkscape:window-y="24"
     inkscape:window-maximized="1">
    <sodipodi:guide
       orientation="0,1"
       position="674.28571,600"
       id="guide4185" />
    <sodipodi:guide
       orientation="1,0"
       position="600,734.28571"
       id="guide4187" />
    <sodipodi:guide
       orientation="1,0"
       position="300,720"
       id="guide4189" />
    <sodipodi:guide
       orientation="1,0"
       position="900,677.14286"
       id="guide4191" />
    <sodipodi:guide
       orientation="0,1"
       position="-174.28571,300"
       id="guide4193" />
    <sodipodi:guide
       orientation="0,1"
       position="0,899.43983"
       id="guide4195" />
    <sodipodi:guide
       orientation="0,1"
       position="101.07143,1200"
       id="guide4216" />
    <sodipodi:guide
       orientation="1,0"
       position="0,1105.7143"
       id="guide4218" />
    <sodipodi:guide
       orientation="0,1"
       position="137.85714,0"
       id="guide4220" />
    <sodipodi:guide
       orientation="1,0"
       position="1200,138.92857"
       id="guide4222" />
  </sodipodi:namedview>
  <metadata
     id="metadata4182">
    <rdf:RDF>
      <cc:Work
         rdf:about="">
        <dc:format>image/svg+xml</dc:format>
        <dc:type
           rdf:resource="http://purl.org/dc/dcmitype/StillImage" />
        <dc:title />
      </cc:Work>
    </rdf:RDF>
  </metadata>
  <g
     inkscape:label="Capa 1"
     inkscape:groupmode="layer"
     id="layer1"
     transform="translate(0,147.63782)">
    <path
       style="fill:#000000;fill-opacity:1;stroke:none"
       d="M 232.53125,452.65625 C 136.94738,452.65625 60,529.60363 60,625.1875 l 0,401.625 c 0,95.5839 76.94738,172.5313 172.53125,172.5313 l 734.93755,0 c 95.5838,0 172.5312,-76.9474 172.5312,-172.5313 l 0,-401.625 c 0,-95.58387 -76.9474,-172.53125 -172.5312,-172.53125 z M 600,603.96875 c 83.5722,0 151.3125,67.2834 151.3125,150.25 0,52.03977 -26.66163,97.8854 -67.15625,124.84375 l 0,84.84375 c 0,46.61675 -37.53952,84.12495 -84.15625,84.12495 -46.61673,0 -84.15625,-37.5082 -84.15625,-84.12495 l 0,-84.84375 C 475.34913,852.10415 448.6875,806.25852 448.6875,754.21875 c 0,-82.9666 67.7403,-150.25 151.3125,-150.25 z"
       transform="translate(0,-147.63782)"
       id="rect2993"
       inkscape:connector-curvature="0"
       sodipodi:nodetypes="ssssssssssscssscss" />
    <path
       style="fill:#000000;fill-opacity:1;stroke:none"
       d="M 472.53125 0 C 376.94738 0 300 76.947382 300 172.53125 L 300 505.625 C 300 583.28689 350.80634 648.65752 421.125 670.4375 C 413.3064 658.27984 408.90625 644.46176 408.90625 629.78125 L 408.90625 177.8125 C 408.90625 128.87162 457.92381 89.46875 518.8125 89.46875 L 681.1875 89.46875 C 742.07619 89.46875 791.09375 128.87162 791.09375 177.8125 L 791.09375 629.78125 C 791.09375 644.46176 786.6936 658.27984 778.875 670.4375 C 849.19366 648.65752 900 583.28689 900 505.625 L 900 172.53125 C 900 76.947382 823.05262 0 727.46875 0 L 472.53125 0 z "
       transform="translate(0,-147.63782)"
       id="rect3001" />
  </g>
</svg>
