<?xml version="1.0" encoding="UTF-8" standalone="no"?>
<!-- Created with Inkscape (http://www.inkscape.org/) -->

<svg
   xmlns:dc="http://purl.org/dc/elements/1.1/"
   xmlns:cc="http://creativecommons.org/ns#"
   xmlns:rdf="http://www.w3.org/1999/02/22-rdf-syntax-ns#"
   xmlns:svg="http://www.w3.org/2000/svg"
   xmlns="http://www.w3.org/2000/svg"
   xmlns:sodipodi="http://sodipodi.sourceforge.net/DTD/sodipodi-0.dtd"
   xmlns:inkscape="http://www.inkscape.org/namespaces/inkscape"
   width="1200"
   height="1200"
   id="svg4177"
   version="1.1"
   inkscape:version="0.48.4 r9939"
   sodipodi:docname="9unblocked.svg">
  <defs
     id="defs4179" />
  <sodipodi:namedview
     id="base"
     pagecolor="#ffffff"
     bordercolor="#666666"
     borderopacity="1.0"
     inkscape:pageopacity="0.0"
     inkscape:pageshadow="2"
     inkscape:zoom="0.70710678"
     inkscape:cx="897.99929"
     inkscape:cy="593.28058"
     inkscape:document-units="px"
     inkscape:current-layer="layer1"
     showgrid="false"
     showguides="true"
     inkscape:guide-bbox="true"
     inkscape:window-width="1920"
     inkscape:window-height="1056"
     inkscape:window-x="0"
     inkscape:window-y="24"
     inkscape:window-maximized="1">
    <sodipodi:guide
       orientation="0,1"
       position="674.28571,600"
       id="guide4185" />
    <sodipodi:guide
       orientation="1,0"
       position="600,734.28571"
       id="guide4187" />
    <sodipodi:guide
       orientation="1,0"
       position="300,720"
       id="guide4189" />
    <sodipodi:guide
       orientation="1,0"
       position="900,677.14286"
       id="guide4191" />
    <sodipodi:guide
       orientation="0,1"
       position="-174.28571,300"
       id="guide4193" />
    <sodipodi:guide
       orientation="0,1"
       position="0,899.43983"
       id="guide4195" />
    <sodipodi:guide
       orientation="0,1"
       position="101.07143,1200"
       id="guide4216" />
    <sodipodi:guide
       orientation="1,0"
       position="0,1105.7143"
       id="guide4218" />
    <sodipodi:guide
       orientation="0,1"
       position="137.85714,0"
       id="guide4220" />
    <sodipodi:guide
       orientation="1,0"
       position="1200,138.92857"
       id="guide4222" />
  </sodipodi:namedview>
  <metadata
     id="metadata4182">
    <rdf:RDF>
      <cc:Work
         rdf:about="">
        <dc:format>image/svg+xml</dc:format>
        <dc:type
           rdf:resource="http://purl.org/dc/dcmitype/StillImage" />
        <dc:title />
      </cc:Work>
    </rdf:RDF>
  </metadata>
  <g
     inkscape:label="Capa 1"
     inkscape:groupmode="layer"
     id="layer1"
     transform="translate(0,147.63782)">
    <path
       style="fill:#000000;fill-opacity:1;stroke:none"
       d="M 472.53125 0 C 376.94738 0 300 76.947382 300 172.53125 L 300 452.65625 L 232.53125 452.65625 C 136.94738 452.65625 60 529.60363 60 625.1875 L 60 1026.8125 C 60 1122.3964 136.94738 1199.3438 232.53125 1199.3438 L 967.46875 1199.3438 C 1063.0525 1199.3438 1140 1122.3964 1140 1026.8125 L 1140 625.1875 C 1140 529.60363 1063.0525 452.65625 967.46875 452.65625 L 408.90625 452.65625 L 408.90625 177.8125 C 408.90625 128.87162 457.92381 89.46875 518.8125 89.46875 L 681.1875 89.46875 C 742.07619 89.46875 791.09375 128.87162 791.09375 177.8125 L 791.09375 259.5 L 900 259.5 L 900 172.53125 C 900 76.947382 823.05262 0 727.46875 0 L 472.53125 0 z M 600 603.96875 C 683.5722 603.96875 751.3125 671.25215 751.3125 754.21875 C 751.3125 806.25852 724.65087 852.10415 684.15625 879.0625 L 684.15625 963.90625 C 684.15625 1010.523 646.61673 1048.0313 600 1048.0312 C 553.38327 1048.0312 515.84375 1010.523 515.84375 963.90625 L 515.84375 879.0625 C 475.34913 852.10415 448.6875 806.25852 448.6875 754.21875 C 448.6875 671.25215 516.4278 603.96875 600 603.96875 z "
       transform="translate(0,-147.63782)"
       id="rect2993" />
  </g>
</svg>
