<?xml version="1.0" encoding="UTF-8" standalone="no"?>
<!-- Created with Inkscape (http://www.inkscape.org/) -->

<svg
   xmlns:dc="http://purl.org/dc/elements/1.1/"
   xmlns:cc="http://creativecommons.org/ns#"
   xmlns:rdf="http://www.w3.org/1999/02/22-rdf-syntax-ns#"
   xmlns:svg="http://www.w3.org/2000/svg"
   xmlns="http://www.w3.org/2000/svg"
   xmlns:sodipodi="http://sodipodi.sourceforge.net/DTD/sodipodi-0.dtd"
   xmlns:inkscape="http://www.inkscape.org/namespaces/inkscape"
   width="1200"
   height="1200"
   id="svg4177"
   version="1.1"
   inkscape:version="0.48.4 r9939"
   sodipodi:docname="12line.svg">
  <defs
     id="defs4179" />
  <sodipodi:namedview
     id="base"
     pagecolor="#ffffff"
     bordercolor="#666666"
     borderopacity="1.0"
     inkscape:pageopacity="0.0"
     inkscape:pageshadow="2"
     inkscape:zoom="0.5"
     inkscape:cx="900.75686"
     inkscape:cy="500.91898"
     inkscape:document-units="px"
     inkscape:current-layer="layer1"
     showgrid="false"
     showguides="true"
     inkscape:guide-bbox="true"
     inkscape:window-width="2560"
     inkscape:window-height="1416"
     inkscape:window-x="1920"
     inkscape:window-y="24"
     inkscape:window-maximized="1">
    <sodipodi:guide
       orientation="0,1"
       position="674.28571,600"
       id="guide4185" />
    <sodipodi:guide
       orientation="1,0"
       position="600,734.28571"
       id="guide4187" />
    <sodipodi:guide
       orientation="1,0"
       position="300,720"
       id="guide4189" />
    <sodipodi:guide
       orientation="1,0"
       position="900,677.14286"
       id="guide4191" />
    <sodipodi:guide
       orientation="0,1"
       position="-174.28571,300"
       id="guide4193" />
    <sodipodi:guide
       orientation="0,1"
       position="0,899.43983"
       id="guide4195" />
    <sodipodi:guide
       orientation="0,1"
       position="101.07143,1200"
       id="guide4216" />
    <sodipodi:guide
       orientation="1,0"
       position="0,1105.7143"
       id="guide4218" />
    <sodipodi:guide
       orientation="0,1"
       position="137.85714,0"
       id="guide4220" />
    <sodipodi:guide
       orientation="1,0"
       position="1200,138.92857"
       id="guide4222" />
  </sodipodi:namedview>
  <metadata
     id="metadata4182">
    <rdf:RDF>
      <cc:Work
         rdf:about="">
        <dc:format>image/svg+xml</dc:format>
        <dc:type
           rdf:resource="http://purl.org/dc/dcmitype/StillImage" />
        <dc:title />
      </cc:Work>
    </rdf:RDF>
  </metadata>
  <g
     inkscape:label="Capa 1"
     inkscape:groupmode="layer"
     id="layer1"
     transform="translate(0,147.63782)">
    <path
       style="fill:#000000;fill-opacity:1;stroke:none"
       d="m 155.93694,-145.94292 c -85.966909,0 -155.65624933,69.689344 -155.65624933,155.6562542 0,85.9669098 69.68934033,155.6562458 155.65624933,155.6562458 85.96691,0 155.65625,-69.689336 155.65625,-155.6562458 0,-85.9669102 -69.68934,-155.6562542 -155.65625,-155.6562542 z m 0,48.781254 c 59.02073,0 106.875,47.85427 106.875,106.8750002 0,59.0207298 -47.85427,106.8749958 -106.875,106.8749958 -59.020729,0 -106.874999,-47.854266 -106.874999,-106.8749958 0,-59.0207302 47.85427,-106.8750002 106.874999,-106.8750002 z"
       id="path2995"
       inkscape:connector-curvature="0" />
    <path
       inkscape:connector-curvature="0"
       id="path3768"
       d="m 1039.8204,737.94056 c -85.96689,0 -155.65623,69.68934 -155.65623,155.65625 0,85.96691 69.68934,155.65629 155.65623,155.65629 85.9669,0 155.6563,-69.68938 155.6563,-155.65629 0,-85.96691 -69.6894,-155.65625 -155.6563,-155.65625 z m 0,48.78125 c 59.0207,0 106.875,47.85427 106.875,106.875 0,59.02073 -47.8543,106.87499 -106.875,106.87499 -59.02071,0 -106.87498,-47.85426 -106.87498,-106.87499 0,-59.02073 47.85427,-106.875 106.87498,-106.875 z"
       style="fill:#000000;fill-opacity:1;stroke:none" />
    <rect
       style="fill:#000000;fill-opacity:1;stroke:none"
       id="rect3770"
       width="90.510269"
       height="977.95392"
       x="57.855377"
       y="259.41254"
       transform="matrix(0.70710678,-0.70710678,0.70710678,0.70710678,0,0)" />
  </g>
</svg>
