<?xml version="1.0" encoding="UTF-8" standalone="no"?>
<!-- Created with Inkscape (http://www.inkscape.org/) -->

<svg
   xmlns:dc="http://purl.org/dc/elements/1.1/"
   xmlns:cc="http://creativecommons.org/ns#"
   xmlns:rdf="http://www.w3.org/1999/02/22-rdf-syntax-ns#"
   xmlns:svg="http://www.w3.org/2000/svg"
   xmlns="http://www.w3.org/2000/svg"
   xmlns:sodipodi="http://sodipodi.sourceforge.net/DTD/sodipodi-0.dtd"
   xmlns:inkscape="http://www.inkscape.org/namespaces/inkscape"
   width="1200"
   height="1200"
   id="svg4177"
   version="1.1"
   inkscape:version="0.48.4 r9939"
   sodipodi:docname="28bucket.svg">
  <defs
     id="defs4179" />
  <sodipodi:namedview
     id="base"
     pagecolor="#ffffff"
     bordercolor="#666666"
     borderopacity="1.0"
     inkscape:pageopacity="0.0"
     inkscape:pageshadow="2"
     inkscape:zoom="0.5"
     inkscape:cx="903.66351"
     inkscape:cy="600.89125"
     inkscape:document-units="px"
     inkscape:current-layer="g3071"
     showgrid="false"
     showguides="true"
     inkscape:guide-bbox="true"
     inkscape:window-width="2560"
     inkscape:window-height="1416"
     inkscape:window-x="1920"
     inkscape:window-y="24"
     inkscape:window-maximized="1">
    <sodipodi:guide
       orientation="0,1"
       position="674.28571,600"
       id="guide4185" />
    <sodipodi:guide
       orientation="1,0"
       position="600,734.28571"
       id="guide4187" />
    <sodipodi:guide
       orientation="1,0"
       position="300,720"
       id="guide4189" />
    <sodipodi:guide
       orientation="1,0"
       position="900,677.14286"
       id="guide4191" />
    <sodipodi:guide
       orientation="0,1"
       position="-174.28571,300"
       id="guide4193" />
    <sodipodi:guide
       orientation="0,1"
       position="-228.57143,901.42857"
       id="guide4195" />
    <sodipodi:guide
       orientation="0,1"
       position="101.07143,1200"
       id="guide4216" />
    <sodipodi:guide
       orientation="1,0"
       position="0,1105.7143"
       id="guide4218" />
    <sodipodi:guide
       orientation="0,1"
       position="137.85714,0"
       id="guide4220" />
    <sodipodi:guide
       orientation="1,0"
       position="1200,138.92857"
       id="guide4222" />
  </sodipodi:namedview>
  <metadata
     id="metadata4182">
    <rdf:RDF>
      <cc:Work
         rdf:about="">
        <dc:format>image/svg+xml</dc:format>
        <dc:type
           rdf:resource="http://purl.org/dc/dcmitype/StillImage" />
        <dc:title />
      </cc:Work>
    </rdf:RDF>
  </metadata>
  <g
     inkscape:label="Capa 1"
     inkscape:groupmode="layer"
     id="layer1"
     transform="translate(0,147.63782)">
    <g
       id="g3071">
      <path
         style="fill:#333333"
         d="M 397.26562,1050.7753 C 309.79873,1043.3219 210.9486,988.92559 129.08157,903.19613 68.381482,839.63223 27.612422,771.03542 9.550362,702.07646 3.9232905,680.59292 -1.1538324,633.85686 0.93171984,622.73991 2.8226116,612.66059 54.441,556.61251 151.38075,459.37991 L 225,385.53826 l 0.0178,-189.83023 c 0.0109,-118.14632 0.92524,-195.58304609 2.42118,-205.0646 8.32679,-52.776912 37.76148,-91.70772 87.79538,-116.11958 32.58148,-15.89671 56.11236,-20.85987 98.4375,-20.76254 37.95193,0.0873 54.59227,2.94428 82.7427,14.20622 40.1981,16.08178 70.40663,42.508091 86.94593,76.060051 16.1922,32.847773 16.55287,36.660365 16.59881,175.462399 l 0.0408,122.98716 142.38282,142.17684 c 106.58437,106.43018 143.96683,145.18744 148.683,154.15109 8.19089,15.5678 10.28836,30.27938 6.67964,46.85079 l -2.8725,13.19069 -171.45992,171.94121 C 554.47216,940.20294 444.68285,1046.2479 434.03597,1050.2959 c -5.24754,1.9951 -17.1607,2.1504 -36.77025,0.4794 z m 196.232,-568.52039 c 33.37139,-15.27793 51.51286,-55.09086 40.4396,-88.74802 -6.57621,-19.98844 -21.81542,-39.58221 -30.78537,-39.58221 -2.0741,0 -3.03626,10.34946 -3.58005,38.50882 -0.67081,34.7352 -1.22414,39.15638 -5.64668,45.11719 -17.06466,23.00011 -45.78558,23.00011 -62.85024,0 -4.42254,-5.96081 -4.97587,-10.38199 -5.64668,-45.11719 -0.81911,-42.41562 -1.26011,-43.42259 -14.23525,-32.50474 -10.45369,8.79621 -22.05692,33.90159 -23.2422,50.28813 -4.00188,55.3253 54.63499,95.34626 105.54687,72.03802 z M 379.60652,231.28555 c 79.38218,-78.85725 79.56579,-78.9972 103.4779,-78.86773 5.65123,0.0305 16.60308,2.66243 24.33745,5.8485 7.73438,3.18609 14.85352,5.79778 15.82032,5.80376 0.96679,0.007 1.75781,-36.71177 1.75781,-81.595007 0,-89.7594633 -0.84145,-96.646085 -14.0343,-114.858279 -22.14636,-30.572152 -79.27313,-46.909366 -128.99405,-36.889943 -36.87298,7.430393 -62.45114,24.73947 -74.68685,50.541579 l -6.11293,12.890625 -0.68303,152.158245 c -0.37566,83.68704 -0.14508,153.56008 0.51239,155.27343 0.65747,1.71336 1.98309,3.1152 2.94579,3.1152 0.96271,0 35.0095,-33.03916 75.6595,-73.42038 z M 1017.4312,898.73762 C 950.78084,884.27923 900.0814,821.03968 900.0814,752.36218 c 0,-36.38252 11.75681,-66.2748 41.75245,-106.15758 33.50363,-44.54707 42.84642,-65.45712 43.15137,-96.5768 0.26829,-27.37748 -7.25799,-49.22381 -30.0252,-87.15337 -2.46475,-4.10625 -3.67697,-8.2703 -2.69379,-9.25348 2.91172,-2.91171 33.43282,3.34261 52.56417,10.77134 75.8089,29.43668 152.0562,116.39688 180.9192,206.33864 12.7557,39.74916 17.0948,83.82982 11.0429,112.18507 -9.4205,44.13757 -39.7724,83.8268 -78.8308,103.08178 -32.4616,16.00287 -66.7018,20.47824 -100.5305,13.13984 z"
         id="path3073"
         inkscape:connector-curvature="0" />
    </g>
  </g>
</svg>
