<?xml version="1.0" encoding="UTF-8" standalone="no"?>
<!-- Created with Inkscape (http://www.inkscape.org/) -->

<svg
   xmlns:dc="http://purl.org/dc/elements/1.1/"
   xmlns:cc="http://creativecommons.org/ns#"
   xmlns:rdf="http://www.w3.org/1999/02/22-rdf-syntax-ns#"
   xmlns:svg="http://www.w3.org/2000/svg"
   xmlns="http://www.w3.org/2000/svg"
   xmlns:sodipodi="http://sodipodi.sourceforge.net/DTD/sodipodi-0.dtd"
   xmlns:inkscape="http://www.inkscape.org/namespaces/inkscape"
   width="1200"
   height="1200"
   id="svg4177"
   version="1.1"
   inkscape:version="0.48.4 r9939"
   sodipodi:docname="31history.svg">
  <defs
     id="defs4179" />
  <sodipodi:namedview
     id="base"
     pagecolor="#ffffff"
     bordercolor="#666666"
     borderopacity="1.0"
     inkscape:pageopacity="0.0"
     inkscape:pageshadow="2"
     inkscape:zoom="0.35355339"
     inkscape:cx="132.78913"
     inkscape:cy="992.57727"
     inkscape:document-units="px"
     inkscape:current-layer="g3059"
     showgrid="false"
     showguides="true"
     inkscape:guide-bbox="true"
     inkscape:window-width="1920"
     inkscape:window-height="1056"
     inkscape:window-x="0"
     inkscape:window-y="24"
     inkscape:window-maximized="1"
     inkscape:snap-global="false">
    <sodipodi:guide
       orientation="0,1"
       position="674.28571,600"
       id="guide4185" />
    <sodipodi:guide
       orientation="1,0"
       position="600,734.28571"
       id="guide4187" />
    <sodipodi:guide
       orientation="1,0"
       position="300,720"
       id="guide4189" />
    <sodipodi:guide
       orientation="1,0"
       position="900,677.14286"
       id="guide4191" />
    <sodipodi:guide
       orientation="0,1"
       position="-174.28571,300"
       id="guide4193" />
    <sodipodi:guide
       orientation="0,1"
       position="-228.57143,901.42857"
       id="guide4195" />
    <sodipodi:guide
       orientation="0,1"
       position="101.07143,1200"
       id="guide4216" />
    <sodipodi:guide
       orientation="1,0"
       position="0,1105.7143"
       id="guide4218" />
    <sodipodi:guide
       orientation="0,1"
       position="137.85714,0"
       id="guide4220" />
    <sodipodi:guide
       orientation="1,0"
       position="1200,138.92857"
       id="guide4222" />
  </sodipodi:namedview>
  <metadata
     id="metadata4182">
    <rdf:RDF>
      <cc:Work
         rdf:about="">
        <dc:format>image/svg+xml</dc:format>
        <dc:type
           rdf:resource="http://purl.org/dc/dcmitype/StillImage" />
        <dc:title />
      </cc:Work>
    </rdf:RDF>
  </metadata>
  <g
     inkscape:label="Capa 1"
     inkscape:groupmode="layer"
     id="layer1"
     transform="translate(0,147.63782)">
    <g
       id="g3071">
      <g
         id="g3059"
         transform="matrix(3.1255948,0,0,3.1255948,-3223.541,-329.6341)">
        <path
           style="fill:#000000;fill-opacity:1;stroke:none"
           d="m 1151.4094,66.976062 0,55.969348 144.7188,0 0,-55.969348 -144.7188,0 z m -56.0459,46.901068 0,328.27752 0.2803,0 0,0.02 255.1285,0 0,-0.02 1.4019,0 0,-328.27752 -44.0606,0 0,27.38479 -168.3042,0 0,-27.34479 -0.1489,0 0,-0.04 -44.297,0 z m 32.2415,50.25044 17.3822,0 0,0.33993 157.0023,0 0,-0.33993 17.3824,0 0,212.11962 0,15.35708 0,12.15769 -191.7669,0 0,-12.15769 0,-15.35708 0,-212.11962 z m 24.6892,31.93392 0,25.34518 144.719,0 0,-25.34518 -144.719,0 z m 0,44.79147 0,25.34518 144.719,0 0,-25.34518 -144.719,0 z m 0,44.79148 0,25.34517 144.719,0 0,-25.34517 -144.719,0 z m 0,44.79147 0,25.34518 144.719,0 0,-25.34518 -144.719,0 z"
           id="rect2995"
           inkscape:connector-curvature="0" />
      </g>
    </g>
  </g>
</svg>
