<?xml version="1.0" encoding="UTF-8" standalone="no"?>
<!-- Created with Inkscape (http://www.inkscape.org/) -->

<svg
   xmlns:dc="http://purl.org/dc/elements/1.1/"
   xmlns:cc="http://creativecommons.org/ns#"
   xmlns:rdf="http://www.w3.org/1999/02/22-rdf-syntax-ns#"
   xmlns:svg="http://www.w3.org/2000/svg"
   xmlns="http://www.w3.org/2000/svg"
   xmlns:sodipodi="http://sodipodi.sourceforge.net/DTD/sodipodi-0.dtd"
   xmlns:inkscape="http://www.inkscape.org/namespaces/inkscape"
   width="319.98737"
   height="832.30804"
   id="svg2"
   version="1.1"
   inkscape:version="0.48.4 r9939"
   sodipodi:docname="panels.svg">
  <defs
     id="defs4" />
  <sodipodi:namedview
     id="base"
     pagecolor="#ffffff"
     bordercolor="#666666"
     borderopacity="1.0"
     inkscape:pageopacity="0.0"
     inkscape:pageshadow="2"
     inkscape:zoom="2"
     inkscape:cx="87.077805"
     inkscape:cy="615.50749"
     inkscape:document-units="px"
     inkscape:current-layer="layer2"
     showgrid="false"
     inkscape:window-width="1920"
     inkscape:window-height="1056"
     inkscape:window-x="1920"
     inkscape:window-y="24"
     inkscape:window-maximized="1"
     showguides="true"
     inkscape:guide-bbox="true"
     borderlayer="true"
     fit-margin-top="0"
     fit-margin-left="0"
     fit-margin-right="0"
     fit-margin-bottom="0"
     inkscape:snap-global="false">
    <inkscape:grid
       type="xygrid"
       id="grid3854"
       empspacing="5"
       visible="true"
       enabled="true"
       snapvisiblegridlinesonly="true"
       spacingx="16px"
       spacingy="16px"
       color="#e49b1b"
       opacity="0.5254902"
       empcolor="#f28953"
       empopacity="0.76078431"
       originx="0px"
       originy="-367.94196px" />
  </sodipodi:namedview>
  <metadata
     id="metadata7">
    <rdf:RDF>
      <cc:Work
         rdf:about="">
        <dc:format>image/svg+xml</dc:format>
        <dc:type
           rdf:resource="http://purl.org/dc/dcmitype/StillImage" />
        <dc:title />
      </cc:Work>
    </rdf:RDF>
  </metadata>
  <g
     inkscape:groupmode="layer"
     id="layer8"
     inkscape:label="base"
     style="display:inline"
     transform="translate(0,0.25000238)"
     sodipodi:insensitive="true">
    <rect
       style="color:#000000;fill:#7d7d7d;fill-opacity:1;fill-rule:nonzero;stroke:none;stroke-width:10;marker:none;visibility:visible;display:inline;overflow:visible;enable-background:accumulate"
       id="rect3234"
       width="323.02023"
       height="832.30804"
       x="0"
       y="-0.25000238"
       rx="0"
       ry="0" />
  </g>
  <g
     inkscape:groupmode="layer"
     id="layer2"
     inkscape:label="layers"
     style="display:inline">
    <rect
       style="opacity:1;fill:#535353;fill-opacity:1;stroke:none"
       id="rect3848"
       width="321.25"
       height="33.400757"
       x="-0.25"
       y="0.058043554" />
    <text
       xml:space="preserve"
       style="font-size:25.7852993px;font-style:normal;font-weight:normal;line-height:125%;letter-spacing:0px;word-spacing:0px;fill:#b0b0b0;fill-opacity:1;stroke:none;font-family:Sans"
       x="78.369797"
       y="19.753454"
       id="text3850"
       sodipodi:linespacing="125%"><tspan
         sodipodi:role="line"
         id="tspan3852"
         x="78.369797"
         y="19.753454"
         style="font-size:11px;font-style:normal;font-variant:normal;font-weight:normal;font-stretch:normal;fill:#b0b0b0;fill-opacity:1;font-family:Open Sans;-inkscape-font-specification:Open Sans">(Shift+Ctrl+L)</tspan></text>
    <text
       sodipodi:linespacing="125%"
       id="text3854"
       y="20.412525"
       x="30.142136"
       style="font-size:40px;font-style:normal;font-weight:normal;line-height:125%;letter-spacing:0px;word-spacing:0px;fill:#b0b0b0;fill-opacity:1;stroke:none;font-family:Sans"
       xml:space="preserve"><tspan
         style="font-size:14px;font-style:normal;font-variant:normal;font-weight:bold;font-stretch:normal;text-align:start;line-height:125%;writing-mode:lr-tb;text-anchor:start;fill:#b0b0b0;fill-opacity:1;font-family:Open Sans;-inkscape-font-specification:Open Sans Bold"
         y="20.412525"
         x="30.142136"
         id="tspan3856"
         sodipodi:role="line">Layers</tspan></text>
    <g
       transform="matrix(0.0118942,0,0,0.0118942,7.8164163,11.712413)"
       id="layer1-0"
       inkscape:label="Capa 1"
       style="fill:#b0b0b0;fill-opacity:1;display:inline">
      <rect
         transform="matrix(0.89402109,0.44802488,-0.89402109,0.44802488,0,0)"
         y="-501.6395"
         x="170.54533"
         height="667.47644"
         width="667.47644"
         id="rect5071"
         style="fill:#b0b0b0;fill-opacity:1;stroke:none" />
      <path
         id="rect5073"
         transform="translate(0,-147.63782)"
         d="m 243.65625,478.34375 -239.4375,120 596.71875,299.0625 596.75,-299.0625 -239.46875,-120 -357.28125,179.0625 -357.28125,-179.0625 z"
         style="fill:#b0b0b0;fill-opacity:1;stroke:none"
         inkscape:connector-curvature="0" />
      <path
         id="rect5075"
         transform="translate(0,-147.63782)"
         d="m 247.65625,780.34375 -243.4375,122 596.71875,299.06245 596.75,-299.06245 -243.4375,-122 -353.3125,177.0625 -353.28125,-177.0625 z"
         style="fill:#b0b0b0;fill-opacity:1;stroke:none"
         inkscape:connector-curvature="0" />
    </g>
    <g
       transform="matrix(0,0.00861818,-0.00861818,0,310.51291,11.275778)"
       id="layer1-00"
       inkscape:label="Capa 1"
       style="fill:#b0b0b0;fill-opacity:1">
      <path
         inkscape:connector-curvature="0"
         id="rect3911"
         d="M 972.30492,-138.65756 600,233.64736 227.69508,-138.65756 6.9177617,82.11976 379.22268,454.42468 6.9177617,826.7296 227.69508,1047.5069 600,675.202 972.30492,1047.5069 1193.0822,826.7296 820.77732,454.42468 1193.0822,82.11976 972.30492,-138.65756 z"
         style="fill:#b0b0b0;fill-opacity:1;stroke:none" />
    </g>
    <g
       transform="matrix(0,0.01052232,-0.01052232,0,289.94185,10.130844)"
       id="layer1-4"
       inkscape:label="Capa 1"
       style="fill:#b0b0b0;fill-opacity:1">
      <path
         inkscape:connector-curvature="0"
         id="rect5132"
         d="M 600.23289,74.07811 0.90045411,673.41059 152.76252,825.27269 600.23289,377.80232 1047.7033,825.27269 1199.5654,673.41059 600.23289,74.07811 z"
         style="fill:#b0b0b0;fill-opacity:1;stroke:none" />
    </g>
    <rect
       style="fill:#d5d5d5;fill-opacity:1;stroke:none"
       id="rect3925"
       width="309.71277"
       height="102.53049"
       x="5.6568542"
       y="38.227127" />
    <rect
       y="73.228912"
       x="5.6568542"
       height="31.819809"
       width="309.71277"
       id="rect4072"
       style="fill:#ff7f2a;fill-opacity:1;stroke:none" />
    <rect
       y="38.227127"
       x="311.12698"
       height="74.246216"
       width="4.2426391"
       id="rect3927"
       style="fill:#ff7f2a;fill-opacity:1;stroke:none" />
    <g
       transform="matrix(0.01536595,0,0,0.01536595,16.520288,153.06393)"
       id="layer1-9"
       inkscape:label="Capa 1"
       style="fill:#b0b0b0;fill-opacity:1">
      <rect
         y="-147.63782"
         x="462.31442"
         height="1204.1136"
         width="275.37115"
         id="rect3911-2"
         style="fill:#b0b0b0;fill-opacity:1;stroke:none" />
      <rect
         transform="matrix(0,1,-1,0,0,0)"
         style="fill:#b0b0b0;fill-opacity:1;stroke:none"
         id="rect3915"
         width="275.37115"
         height="1204.1136"
         x="316.73343"
         y="-1202.0569" />
    </g>
    <g
       transform="matrix(0.01536595,0,0,0.01536595,280.87915,153.06739)"
       id="layer1-1"
       inkscape:label="Capa 1"
       style="fill:#b0b0b0;fill-opacity:1">
      <rect
         y="318.02689"
         x="5.6843419e-14"
         height="272.3353"
         width="1202.5195"
         id="rect2993"
         style="fill:#b0b0b0;fill-opacity:1;stroke:none" />
    </g>
    <g
       transform="matrix(0.01710427,0,0,0.01710427,117.10707,152.28274)"
       id="layer1-91"
       inkscape:label="Capa 1"
       style="fill:#b0b0b0;fill-opacity:1">
      <path
         id="rect2993-2"
         transform="translate(0,-147.63782)"
         d="M 599.6875,0 175.28125,424.375 303.0625,552.15625 491.84375,363.375 l 0,839.7188 216.3125,0 0,-839.7188 L 896.9375,552.15625 1024.7188,424.375 600.3125,0 600,0.34375 599.6875,0 z"
         style="fill:#b0b0b0;fill-opacity:1;stroke:none"
         inkscape:connector-curvature="0" />
    </g>
    <g
       transform="matrix(0.01710427,0,0,0.01710427,172.40086,152.28274)"
       id="layer1-8"
       inkscape:label="Capa 1"
       style="fill:#b0b0b0;fill-opacity:1">
      <path
         inkscape:connector-curvature="0"
         id="rect2993-3"
         d="M 599.6875,1055.456 175.28125,631.08098 303.0625,503.29973 l 188.78125,188.78125 0,-839.7188 216.3125,0 0,839.7188 L 896.9375,503.29973 1024.7188,631.08098 600.3125,1055.456 600,1055.1122 l -0.3125,0.3438 z"
         style="fill:#b0b0b0;fill-opacity:1;stroke:none" />
    </g>
    <g
       transform="matrix(0.01861939,0,0,0.01861939,253.02617,152.53435)"
       id="layer1-42"
       inkscape:label="Capa 1"
       style="fill:#b0b0b0;fill-opacity:1;stroke:none">
      <path
         sodipodi:nodetypes="cccccccccccc"
         inkscape:connector-curvature="0"
         id="rect2993-0"
         d="m -888.0139,783.8136 -389.8708,-389.8421 117.3832,-117.38325 173.4195,173.41947 0,-596.84896 198.7104,0 0,596.84896 173.41945,-173.41947 117.38332,117.38325 -389.87097,389.8421 -0.287,-0.3157 z"
         style="fill:#b0b0b0;fill-opacity:1;stroke:none" />
      <rect
         transform="scale(1,-1)"
         y="-939.98022"
         x="-1281.8176"
         height="169.02728"
         width="788.18158"
         id="rect3019"
         style="fill:#b0b0b0;fill-opacity:1;stroke:none" />
    </g>
    <g
       transform="matrix(0.01710427,0,0,0.01710427,66.006056,152.3084)"
       id="layer1-48"
       inkscape:label="Capa 1"
       style="fill:#b0b0b0;fill-opacity:1;stroke:none">
      <path
         sodipodi:nodetypes="cccccccccccc"
         inkscape:connector-curvature="0"
         id="rect2993-32"
         d="m 599.68747,38.36218 -424.40625,424.375 127.78125,127.78125 188.78125,-188.78125 0,649.71882 216.3125,0 0,-649.71882 188.78125,188.78125 127.78133,-127.78125 -424.40633,-424.375 -0.3125,0.34375 z"
         style="fill:#b0b0b0;fill-opacity:1;stroke:none" />
      <rect
         y="-131.63782"
         x="171"
         height="184"
         width="858"
         id="rect3019-8"
         style="fill:#b0b0b0;fill-opacity:1;stroke:none" />
    </g>
    <text
       sodipodi:linespacing="125%"
       id="text4056"
       y="227.75346"
       x="10.369797"
       style="font-size:25.7852993px;font-style:normal;font-weight:normal;line-height:125%;letter-spacing:0px;word-spacing:0px;fill:#d5d5d5;fill-opacity:1;stroke:none;font-family:Sans"
       xml:space="preserve"><tspan
         style="font-size:11px;font-style:normal;font-variant:normal;font-weight:normal;font-stretch:normal;fill:#d5d5d5;fill-opacity:1;font-family:Open Sans;-inkscape-font-specification:Open Sans"
         y="227.75346"
         x="10.369797"
         id="tspan4058"
         sodipodi:role="line">Opacity, %</tspan></text>
    <text
       sodipodi:linespacing="125%"
       id="text4060"
       y="59.753456"
       x="64.369797"
       style="font-size:25.7852993px;font-style:normal;font-weight:normal;line-height:125%;letter-spacing:0px;word-spacing:0px;fill:#535353;fill-opacity:1;stroke:none;font-family:Sans"
       xml:space="preserve"><tspan
         style="font-size:12px;font-style:normal;font-variant:normal;font-weight:normal;font-stretch:normal;fill:#535353;fill-opacity:1;font-family:Open Sans;-inkscape-font-specification:Open Sans"
         y="59.753456"
         x="64.369797"
         id="tspan4062"
         sodipodi:role="line">Shadows</tspan></text>
    <text
       xml:space="preserve"
       style="font-size:25.7852993px;font-style:normal;font-weight:normal;line-height:125%;letter-spacing:0px;word-spacing:0px;fill:#ffffff;fill-opacity:1;stroke:none;font-family:Sans"
       x="64.369797"
       y="93.753456"
       id="text4064"
       sodipodi:linespacing="125%"><tspan
         sodipodi:role="line"
         id="tspan4066"
         x="64.369797"
         y="93.753456"
         style="font-size:12px;font-style:normal;font-variant:normal;font-weight:normal;font-stretch:normal;fill:#ffffff;fill-opacity:1;font-family:Open Sans;-inkscape-font-specification:Open Sans">Body</tspan></text>
    <text
       sodipodi:linespacing="125%"
       id="text4068"
       y="125.75346"
       x="64.369797"
       style="font-size:25.7852993px;font-style:normal;font-weight:normal;line-height:125%;letter-spacing:0px;word-spacing:0px;fill:#535353;fill-opacity:1;stroke:none;font-family:Sans"
       xml:space="preserve"><tspan
         style="font-size:12px;font-style:normal;font-variant:normal;font-weight:normal;font-stretch:normal;fill:#535353;fill-opacity:1;font-family:Open Sans;-inkscape-font-specification:Open Sans"
         y="125.75346"
         x="64.369797"
         id="tspan4070"
         sodipodi:role="line">Background</tspan></text>
    <g
       transform="matrix(0.01060022,0,0,0.01060022,41.863988,117.84462)"
       id="layer1-3"
       inkscape:label="Capa 1"
       style="fill:#5d5d5d;fill-opacity:1">
      <path
         sodipodi:nodetypes="ssssssssssscssscss"
         inkscape:connector-curvature="0"
         id="rect2993-03"
         transform="translate(0,-147.63782)"
         d="M 232.53125,452.65625 C 136.94738,452.65625 60,529.60363 60,625.1875 l 0,401.625 c 0,95.5839 76.94738,172.5313 172.53125,172.5313 l 734.93755,0 c 95.5838,0 172.5312,-76.9474 172.5312,-172.5313 l 0,-401.625 c 0,-95.58387 -76.9474,-172.53125 -172.5312,-172.53125 z M 600,603.96875 c 83.5722,0 151.3125,67.2834 151.3125,150.25 0,52.03977 -26.66163,97.8854 -67.15625,124.84375 l 0,84.84375 c 0,46.61675 -37.53952,84.12495 -84.15625,84.12495 -46.61673,0 -84.15625,-37.5082 -84.15625,-84.12495 l 0,-84.84375 C 475.34913,852.10415 448.6875,806.25852 448.6875,754.21875 c 0,-82.9666 67.7403,-150.25 151.3125,-150.25 z"
         style="fill:#5d5d5d;fill-opacity:1;stroke:none" />
      <path
         id="rect3001"
         transform="translate(0,-147.63782)"
         d="M 472.53125,0 C 376.94738,0 300,76.947382 300,172.53125 l 0,333.09375 c 0,77.66189 50.80634,143.03252 121.125,164.8125 -7.8186,-12.15766 -12.21875,-25.97574 -12.21875,-40.65625 l 0,-451.96875 c 0,-48.94088 49.01756,-88.34375 109.90625,-88.34375 l 162.375,0 c 60.88869,0 109.90625,39.40287 109.90625,88.34375 l 0,451.96875 c 0,14.68051 -4.40015,28.49859 -12.21875,40.65625 C 849.19366,648.65752 900,583.28689 900,505.625 l 0,-333.09375 C 900,76.947382 823.05262,0 727.46875,0 l -254.9375,0 z"
         style="fill:#5d5d5d;fill-opacity:1;stroke:none"
         inkscape:connector-curvature="0" />
    </g>
    <g
       transform="matrix(0.01060022,0,0,0.01060022,41.895038,50.461795)"
       id="layer1-35"
       inkscape:label="Capa 1"
       style="fill:#5d5d5d;fill-opacity:1">
      <path
         id="rect2993-6"
         transform="translate(0,-147.63782)"
         d="M 472.53125,0 C 376.94738,0 300,76.947382 300,172.53125 l 0,280.125 -67.46875,0 C 136.94738,452.65625 60,529.60363 60,625.1875 l 0,401.625 c 0,95.5839 76.94738,172.5313 172.53125,172.5313 l 734.9375,0 c 95.58375,0 172.53125,-76.9474 172.53125,-172.5313 l 0,-401.625 c 0,-95.58387 -76.9475,-172.53125 -172.53125,-172.53125 l -558.5625,0 0,-274.84375 c 0,-48.94088 49.01756,-88.34375 109.90625,-88.34375 l 162.375,0 c 60.88869,0 109.90625,39.40287 109.90625,88.34375 l 0,81.6875 108.90625,0 0,-86.96875 C 900,76.947382 823.05262,0 727.46875,0 L 472.53125,0 z M 600,603.96875 c 83.5722,0 151.3125,67.2834 151.3125,150.25 0,52.03977 -26.66163,97.8854 -67.15625,124.84375 l 0,84.84375 c 0,46.61675 -37.53952,84.12505 -84.15625,84.12495 -46.61673,0 -84.15625,-37.5082 -84.15625,-84.12495 l 0,-84.84375 C 475.34913,852.10415 448.6875,806.25852 448.6875,754.21875 c 0,-82.9666 67.7403,-150.25 151.3125,-150.25 z"
         style="fill:#5d5d5d;fill-opacity:1;stroke:none"
         inkscape:connector-curvature="0" />
    </g>
    <g
       inkscape:label="Capa 1"
       id="g4112"
       transform="matrix(0.01060022,0,0,0.01060022,41.895038,85.844608)"
       style="fill:#ffffff">
      <path
         inkscape:connector-curvature="0"
         style="fill:#ffffff;fill-opacity:1;stroke:none"
         d="M 472.53125,0 C 376.94738,0 300,76.947382 300,172.53125 l 0,280.125 -67.46875,0 C 136.94738,452.65625 60,529.60363 60,625.1875 l 0,401.625 c 0,95.5839 76.94738,172.5313 172.53125,172.5313 l 734.9375,0 c 95.58375,0 172.53125,-76.9474 172.53125,-172.5313 l 0,-401.625 c 0,-95.58387 -76.9475,-172.53125 -172.53125,-172.53125 l -558.5625,0 0,-274.84375 c 0,-48.94088 49.01756,-88.34375 109.90625,-88.34375 l 162.375,0 c 60.88869,0 109.90625,39.40287 109.90625,88.34375 l 0,81.6875 108.90625,0 0,-86.96875 C 900,76.947382 823.05262,0 727.46875,0 L 472.53125,0 z M 600,603.96875 c 83.5722,0 151.3125,67.2834 151.3125,150.25 0,52.03977 -26.66163,97.8854 -67.15625,124.84375 l 0,84.84375 c 0,46.61675 -37.53952,84.12505 -84.15625,84.12495 -46.61673,0 -84.15625,-37.5082 -84.15625,-84.12495 l 0,-84.84375 C 475.34913,852.10415 448.6875,806.25852 448.6875,754.21875 c 0,-82.9666 67.7403,-150.25 151.3125,-150.25 z"
         transform="translate(0,-147.63782)"
         id="path4114" />
    </g>
    <g
       transform="matrix(0.01176947,0,0,0.01176947,16.797673,50.629308)"
       id="layer1-17"
       inkscape:label="Capa 1"
       style="fill:#5d5d5d;fill-opacity:1">
      <path
         id="path2993"
         transform="translate(0,-147.63782)"
         d="m 558.03125,147.0625 0,119.21875 c -65.39117,5.79661 -127.67823,23.58223 -185.0625,47.78125 L 317.25,200.21875 l -75.28125,36.84375 55.625,113.625 C 237.46075,383.78524 184.85172,422.01107 142.375,457.03125 L 72.21875,371.5 7.4375,424.65625 79.65625,512.6875 C 45.890755,544.99843 27.0625,567.15625 27.0625,567.15625 l -28,31.65625 27.96875,31.71875 c 0,0 257.39013,303.46875 576.5625,303.46875 319.17238,0 570.81245,-303.90625 570.81245,-303.90625 l 26.9063,-31.28125 -26.9375,-31.21875 c 0,0 -18.1265,-21.84787 -50.8125,-53.8125 l 68.5937,-89.5 -66.5,-51 -64.4374,84.0625 C 1016.8574,420.1306 961.11251,379.32304 897,344.84375 l 54.25,-102.625 -74.125,-39.15625 -56.03125,106.03125 c -55.67693,-22.504 -115.94286,-38.63188 -179.25,-43.375 l 0,-118.65625 -83.8125,0 z M 603.59375,360 C 805.28179,360 998.626,528.02628 1071.25,598.875 998.64821,669.83494 805.26817,838.25 603.59375,838.25 402.28251,838.25 205.18261,670.17329 130.5625,598.875 205.2051,527.68875 402.26882,360 603.59375,360 z m -3.0625,34.28125 c -112.54683,0 -204.875,92.29692 -204.875,204.84375 0,112.54683 92.32817,204.875 204.875,204.875 112.54683,0 204.84375,-92.32817 204.84375,-204.875 0,-112.54683 -92.29692,-204.84375 -204.84375,-204.84375 z m 0,100 c 58.50281,0 104.84375,46.34094 104.84375,104.84375 0,58.50281 -46.34094,104.875 -104.84375,104.875 -58.50281,0 -104.875,-46.37219 -104.875,-104.875 0,-58.50281 46.37219,-104.84375 104.875,-104.84375 z"
         style="font-size:medium;font-style:normal;font-variant:normal;font-weight:normal;font-stretch:normal;text-indent:0;text-align:start;text-decoration:none;line-height:normal;letter-spacing:normal;word-spacing:normal;text-transform:none;direction:ltr;block-progression:tb;writing-mode:lr-tb;text-anchor:start;baseline-shift:baseline;color:#000000;fill:#5d5d5d;fill-opacity:1;stroke:none;stroke-width:95.75170898000000363;marker:none;visibility:visible;display:inline;overflow:visible;enable-background:accumulate;font-family:Sans;-inkscape-font-specification:Sans"
         inkscape:connector-curvature="0" />
    </g>
    <g
       transform="matrix(0.01176947,0,0,0.01176947,17.478439,116.5998)"
       id="layer1-19"
       inkscape:label="Capa 1"
       style="fill:#5d5d5d;fill-opacity:1">
      <path
         sodipodi:nodetypes="cccccccccccccsccccccccccccccscscs"
         inkscape:connector-curvature="0"
         id="path2993-1"
         d="m 558.03125,906.36218 0,-119.21875 C 492.64008,781.34682 430.35302,763.5612 372.96875,739.36218 L 317.25,853.20593 l -75.28125,-36.84375 55.625,-113.625 C 237.46075,669.63944 184.85172,631.41361 142.375,596.39343 L 72.21875,681.92468 7.4375,628.76843 79.65625,540.73718 C 45.890755,508.42625 27.0625,486.26843 27.0625,486.26843 l -28,-31.65625 27.96875,-31.71875 c 0,0 257.39013,-303.46875 576.5625,-303.46875 319.17238,0 570.81245,303.90625 570.81245,303.90625 l 26.9063,31.28125 -26.9375,31.21875 c 0,0 -18.1265,21.84787 -50.8125,53.8125 l 68.5937,89.5 -66.5,51 -64.4374,-84.0625 c -44.3614,37.21315 -100.10629,78.02071 -164.2188,112.5 l 54.25,102.625 -74.125,39.15625 -56.03125,-106.03125 c -55.67693,22.504 -115.94286,38.63188 -179.25,43.375 l 0,118.65625 z m 45.5625,-212.9375 c 201.68804,0 395.03225,-168.02628 467.65625,-238.875 -72.60179,-70.95994 -265.98183,-239.375 -467.65625,-239.375 -201.31124,0 -398.41114,168.07671 -473.03125,239.375 74.6426,71.18625 271.70632,238.875 473.03125,238.875 z"
         style="font-size:medium;font-style:normal;font-variant:normal;font-weight:normal;font-stretch:normal;text-indent:0;text-align:start;text-decoration:none;line-height:normal;letter-spacing:normal;word-spacing:normal;text-transform:none;direction:ltr;block-progression:tb;writing-mode:lr-tb;text-anchor:start;baseline-shift:baseline;color:#000000;fill:#5d5d5d;fill-opacity:1;stroke:none;stroke-width:95.75170898000000363;marker:none;visibility:visible;display:inline;overflow:visible;enable-background:accumulate;font-family:Sans;-inkscape-font-specification:Sans" />
    </g>
    <g
       inkscape:label="Capa 1"
       id="g4152"
       transform="matrix(0.01176947,0,0,0.01176947,16.797673,86.012121)"
       style="fill:#ffffff">
      <path
         inkscape:connector-curvature="0"
         style="font-size:medium;font-style:normal;font-variant:normal;font-weight:normal;font-stretch:normal;text-indent:0;text-align:start;text-decoration:none;line-height:normal;letter-spacing:normal;word-spacing:normal;text-transform:none;direction:ltr;block-progression:tb;writing-mode:lr-tb;text-anchor:start;baseline-shift:baseline;color:#000000;fill:#ffffff;fill-opacity:1;stroke:none;stroke-width:95.75170898000000363;marker:none;visibility:visible;display:inline;overflow:visible;enable-background:accumulate;font-family:Sans;-inkscape-font-specification:Sans"
         d="m 558.03125,147.0625 0,119.21875 c -65.39117,5.79661 -127.67823,23.58223 -185.0625,47.78125 L 317.25,200.21875 l -75.28125,36.84375 55.625,113.625 C 237.46075,383.78524 184.85172,422.01107 142.375,457.03125 L 72.21875,371.5 7.4375,424.65625 79.65625,512.6875 C 45.890755,544.99843 27.0625,567.15625 27.0625,567.15625 l -28,31.65625 27.96875,31.71875 c 0,0 257.39013,303.46875 576.5625,303.46875 319.17238,0 570.81245,-303.90625 570.81245,-303.90625 l 26.9063,-31.28125 -26.9375,-31.21875 c 0,0 -18.1265,-21.84787 -50.8125,-53.8125 l 68.5937,-89.5 -66.5,-51 -64.4374,84.0625 C 1016.8574,420.1306 961.11251,379.32304 897,344.84375 l 54.25,-102.625 -74.125,-39.15625 -56.03125,106.03125 c -55.67693,-22.504 -115.94286,-38.63188 -179.25,-43.375 l 0,-118.65625 -83.8125,0 z M 603.59375,360 C 805.28179,360 998.626,528.02628 1071.25,598.875 998.64821,669.83494 805.26817,838.25 603.59375,838.25 402.28251,838.25 205.18261,670.17329 130.5625,598.875 205.2051,527.68875 402.26882,360 603.59375,360 z m -3.0625,34.28125 c -112.54683,0 -204.875,92.29692 -204.875,204.84375 0,112.54683 92.32817,204.875 204.875,204.875 112.54683,0 204.84375,-92.32817 204.84375,-204.875 0,-112.54683 -92.29692,-204.84375 -204.84375,-204.84375 z m 0,100 c 58.50281,0 104.84375,46.34094 104.84375,104.84375 0,58.50281 -46.34094,104.875 -104.84375,104.875 -58.50281,0 -104.875,-46.37219 -104.875,-104.875 0,-58.50281 46.37219,-104.84375 104.875,-104.84375 z"
         transform="translate(0,-147.63782)"
         id="path4154" />
    </g>
    <rect
       transform="matrix(0,1,-1,0,0,0)"
       y="-239.60437"
       x="240.06448"
       height="69.545204"
       width="4.2426391"
       id="rect4158"
       style="fill:#535353;fill-opacity:1;stroke:none" />
    <rect
       style="fill:#ff7f2a;fill-opacity:1;stroke:none"
       id="rect4156"
       width="4.2426391"
       height="161.22035"
       x="240.06448"
       y="-171.47339"
       transform="matrix(0,1,-1,0,0,0)" />
    <path
       sodipodi:type="arc"
       style="fill:#ff7f2a;fill-opacity:1;stroke:none"
       id="path4160"
       sodipodi:cx="168.25"
       sodipodi:cy="213.05804"
       sodipodi:rx="6.75"
       sodipodi:ry="6.75"
       d="m 175,213.05804 a 6.75,6.75 0 1 1 -13.5,0 6.75,6.75 0 1 1 13.5,0 z"
       transform="translate(3,29.127759)" />
    <rect
       style="fill:#d5d5d5;fill-opacity:1;stroke:none;display:inline"
       id="rect4165"
       width="49.042618"
       height="20.434425"
       x="252.875"
       y="231.87363" />
    <rect
       y="231.87363"
       x="-315.20001"
       height="20.434425"
       width="13.691066"
       id="rect4175"
       style="fill:#535353;fill-opacity:1;stroke:none;display:inline"
       transform="scale(-1,1)" />
    <g
       style="fill:#d5d5d5;fill-opacity:1;display:inline"
       inkscape:label="Capa 1"
       id="g4001"
       transform="matrix(0.00807394,0,0,0.00807394,303.50824,233.10607)">
      <path
         style="fill:#d5d5d5;fill-opacity:1;stroke:none"
         d="M 600.23289,74.07811 0.90045411,673.41059 152.76252,825.27269 600.23289,377.80232 1047.7033,825.27269 1199.5654,673.41059 600.23289,74.07811 z"
         id="path4003"
         inkscape:connector-curvature="0" />
    </g>
    <g
       transform="matrix(-0.00807394,0,0,-0.00807394,313.20069,251.48553)"
       id="g4005"
       inkscape:label="Capa 1"
       style="fill:#d5d5d5;fill-opacity:1;display:inline">
      <path
         inkscape:connector-curvature="0"
         id="path4007"
         d="M 600.23289,74.07811 0.90045411,673.41059 152.76252,825.27269 600.23289,377.80232 1047.7033,825.27269 1199.5654,673.41059 600.23289,74.07811 z"
         style="fill:#d5d5d5;fill-opacity:1;stroke:none" />
    </g>
    <text
       xml:space="preserve"
       style="font-size:31.93380356px;font-style:normal;font-weight:normal;line-height:125%;letter-spacing:0px;word-spacing:0px;fill:#535353;fill-opacity:1;stroke:none;font-family:Sans"
       x="259.10223"
       y="246.15176"
       id="text4179"
       sodipodi:linespacing="125%"><tspan
         sodipodi:role="line"
         id="tspan4181"
         x="259.10223"
         y="246.15176"
         style="font-size:11px;font-style:normal;font-variant:normal;font-weight:normal;font-stretch:normal;fill:#535353;fill-opacity:1;font-family:Open Sans;-inkscape-font-specification:Open Sans">75,0</tspan></text>
    <path
       transform="matrix(0.51550091,0,0,0.51550091,84.516972,132.35419)"
       d="m 175,213.05804 a 6.75,6.75 0 1 1 -13.5,0 6.75,6.75 0 1 1 13.5,0 z"
       sodipodi:ry="6.75"
       sodipodi:rx="6.75"
       sodipodi:cy="213.05804"
       sodipodi:cx="168.25"
       id="path4183"
       style="fill:#ffffff;fill-opacity:1;stroke:none"
       sodipodi:type="arc" />
    <text
       xml:space="preserve"
       style="font-size:25.7852993px;font-style:normal;font-weight:normal;line-height:125%;letter-spacing:0px;word-spacing:0px;fill:#d5d5d5;fill-opacity:1;stroke:none;font-family:Sans"
       x="10.369797"
       y="201.75346"
       id="text4185"
       sodipodi:linespacing="125%"><tspan
         sodipodi:role="line"
         id="tspan4187"
         x="10.369797"
         y="201.75346"
         style="font-size:11px;font-style:normal;font-variant:normal;font-weight:normal;font-stretch:normal;fill:#d5d5d5;fill-opacity:1;font-family:Open Sans;-inkscape-font-specification:Open Sans">Blend mode</tspan></text>
    <rect
       y="189.51303"
       x="126.375"
       height="20.79501"
       width="175.30824"
       id="rect4189"
       style="fill:#d5d5d5;fill-opacity:1;stroke:none;display:inline" />
    <rect
       transform="scale(-1,1)"
       style="fill:#535353;fill-opacity:1;stroke:none;display:inline"
       id="rect4191"
       width="13.932657"
       height="20.79501"
       x="-315.20001"
       y="189.51303" />
    <g
       transform="matrix(0.00821641,0,0,0.00821641,303.30192,190.76723)"
       id="g4193"
       inkscape:label="Capa 1"
       style="fill:#d5d5d5;fill-opacity:1;display:inline">
      <path
         inkscape:connector-curvature="0"
         id="path4195"
         d="M 600.23289,74.07811 0.90045411,673.41059 152.76252,825.27269 600.23289,377.80232 1047.7033,825.27269 1199.5654,673.41059 600.23289,74.07811 z"
         style="fill:#d5d5d5;fill-opacity:1;stroke:none" />
    </g>
    <g
       style="fill:#d5d5d5;fill-opacity:1;display:inline"
       inkscape:label="Capa 1"
       id="g4197"
       transform="matrix(-0.00821641,0,0,-0.00821641,313.16541,209.47102)">
      <path
         style="fill:#d5d5d5;fill-opacity:1;stroke:none"
         d="M 600.23289,74.07811 0.90045411,673.41059 152.76252,825.27269 600.23289,377.80232 1047.7033,825.27269 1199.5654,673.41059 600.23289,74.07811 z"
         id="path4199"
         inkscape:connector-curvature="0" />
    </g>
    <text
       sodipodi:linespacing="125%"
       id="text4201"
       y="204.04314"
       x="134.60258"
       style="font-size:32.49730682px;font-style:normal;font-weight:normal;line-height:125%;letter-spacing:0px;word-spacing:0px;fill:#535353;fill-opacity:1;stroke:none;font-family:Sans"
       xml:space="preserve"><tspan
         style="font-size:11px;font-style:normal;font-variant:normal;font-weight:normal;font-stretch:normal;fill:#535353;fill-opacity:1;font-family:Open Sans;-inkscape-font-specification:Open Sans"
         y="204.04314"
         x="134.60258"
         id="tspan4203"
         sodipodi:role="line">Normal</tspan></text>
    <rect
       y="268.05804"
       x="-0.25"
       height="33.400757"
       width="321.25"
       id="rect4205"
       style="opacity:1;fill:#535353;fill-opacity:1;stroke:none" />
    <text
       sodipodi:linespacing="125%"
       id="text4207"
       y="287.75348"
       x="134.3698"
       style="font-size:25.7852993px;font-style:normal;font-weight:normal;line-height:125%;letter-spacing:0px;word-spacing:0px;fill:#b0b0b0;fill-opacity:1;stroke:none;font-family:Sans"
       xml:space="preserve"><tspan
         style="font-size:11px;font-style:normal;font-variant:normal;font-weight:normal;font-stretch:normal;fill:#b0b0b0;fill-opacity:1;font-family:Open Sans;-inkscape-font-specification:Open Sans"
         y="287.75348"
         x="134.3698"
         id="tspan4209"
         sodipodi:role="line">(Shift+Ctrl+F)</tspan></text>
    <text
       xml:space="preserve"
       style="font-size:40px;font-style:normal;font-weight:normal;line-height:125%;letter-spacing:0px;word-spacing:0px;fill:#b0b0b0;fill-opacity:1;stroke:none;font-family:Sans"
       x="30.142136"
       y="288.41254"
       id="text4211"
       sodipodi:linespacing="125%"><tspan
         sodipodi:role="line"
         id="tspan4213"
         x="30.142136"
         y="288.41254"
         style="font-size:14px;font-style:normal;font-variant:normal;font-weight:bold;font-stretch:normal;text-align:start;line-height:125%;writing-mode:lr-tb;text-anchor:start;fill:#b0b0b0;fill-opacity:1;font-family:Open Sans;-inkscape-font-specification:Open Sans Bold">Fill and stroke</tspan></text>
    <g
       style="fill:#b0b0b0;fill-opacity:1"
       inkscape:label="Capa 1"
       id="g4223"
       transform="matrix(0,0.00861818,-0.00861818,0,310.51291,279.27578)">
      <path
         style="fill:#b0b0b0;fill-opacity:1;stroke:none"
         d="M 972.30492,-138.65756 600,233.64736 227.69508,-138.65756 6.9177617,82.11976 379.22268,454.42468 6.9177617,826.7296 227.69508,1047.5069 600,675.202 972.30492,1047.5069 1193.0822,826.7296 820.77732,454.42468 1193.0822,82.11976 972.30492,-138.65756 z"
         id="path4225"
         inkscape:connector-curvature="0" />
    </g>
    <g
       style="fill:#b0b0b0;fill-opacity:1"
       inkscape:label="Capa 1"
       id="g4227"
       transform="matrix(0,0.01052232,-0.01052232,0,289.94185,278.13084)">
      <path
         style="fill:#b0b0b0;fill-opacity:1;stroke:none"
         d="M 600.23289,74.07811 0.90045411,673.41059 152.76252,825.27269 600.23289,377.80232 1047.7033,825.27269 1199.5654,673.41059 600.23289,74.07811 z"
         id="path4229"
         inkscape:connector-curvature="0" />
    </g>
    <g
       transform="matrix(0.01101548,0,0,0.01101548,10.271975,278.24754)"
       id="layer1-22"
       inkscape:label="Capa 1"
       style="fill:#b0b0b0;fill-opacity:1;display:inline">
      <path
         sodipodi:nodetypes="cssssc"
         inkscape:connector-curvature="0"
         id="path5059"
         d="m 4.8373648,-147.27619 c 0,0 -21.5778918,399.52182 161.1217152,631.27298 182.69963,231.75115 382.60684,171.17909 511.9686,41.81734 C 807.28944,396.45238 860.11564,237.85084 710.06424,87.79944 560.01283,-62.25196 373.85368,-38.614425 262.22244,-44.447842 150.59121,-50.281259 4.8373648,-147.27619 4.8373648,-147.27619 z"
         style="fill:#b0b0b0;fill-opacity:1;stroke:none" />
      <rect
         ry="61.223118"
         rx="61.223118"
         transform="matrix(0.70710678,-0.70710678,0.70710678,0.70710678,0,0)"
         y="881.10779"
         x="-90.316849"
         height="122.44624"
         width="402.76291"
         id="rect5061"
         style="fill:#b0b0b0;fill-opacity:1;stroke:none" />
      <rect
         transform="matrix(0.70710678,-0.70710678,0.70710678,0.70710678,0,0)"
         y="937.31561"
         x="-26.319733"
         height="506.65967"
         width="273.40073"
         id="rect5065"
         style="fill:#b0b0b0;fill-opacity:1;stroke:none" />
      <path
         transform="translate(0,-147.63782)"
         inkscape:connector-curvature="0"
         id="path5067"
         d="m 59.39697,600 108.89444,147.45166 0,287.08534 603.86919,0 102.53049,102.5305 -812.465693,0 z"
         style="fill:#b0b0b0;fill-opacity:1;stroke:none" />
      <path
         sodipodi:nodetypes="ccccccc"
         transform="translate(0,-147.63782)"
         inkscape:connector-curvature="0"
         id="path5069"
         d="m 1022.4764,747.45166 105.3589,105.35891 0,-782.767206 -527.8353,0 132.56262,101.823376 289.91378,0 z"
         style="fill:#b0b0b0;fill-opacity:1;stroke:none" />
    </g>
  </g>
  <g
     inkscape:label="colors"
     inkscape:groupmode="layer"
     id="layer1"
     transform="translate(0,147.88782)">
    <rect
       style="fill:#7d7d7d;fill-opacity:1;stroke:none"
       id="rect3772"
       width="97.14286"
       height="97.14286"
       x="-129.99998"
       y="180.07646"
       rx="0"
       ry="0" />
    <rect
       ry="0"
       rx="0"
       y="72.076462"
       x="-129.99998"
       height="97.14286"
       width="97.14286"
       id="rect3774"
       style="fill:#b0b0b0;fill-opacity:1;stroke:none" />
    <rect
       ry="0"
       rx="0"
       y="288.07648"
       x="-129.99998"
       height="97.14286"
       width="97.14286"
       id="rect3776"
       style="fill:#535353;fill-opacity:1;stroke:none" />
    <rect
       style="fill:#d5d5d5;fill-opacity:1;stroke:none"
       id="rect3778"
       width="97.14286"
       height="97.14286"
       x="-129.99998"
       y="-35.923538"
       rx="0"
       ry="0" />
    <rect
       ry="0"
       rx="0"
       y="-145.92354"
       x="-129.99998"
       height="97.14286"
       width="97.14286"
       id="rect3846"
       style="fill:#ff7f2a;fill-opacity:1;stroke:none" />
  </g>
</svg>
