<?xml version="1.0" encoding="UTF-8" standalone="no"?>
<!-- Created with Inkscape (http://www.inkscape.org/) -->

<svg
   xmlns:dc="http://purl.org/dc/elements/1.1/"
   xmlns:cc="http://creativecommons.org/ns#"
   xmlns:rdf="http://www.w3.org/1999/02/22-rdf-syntax-ns#"
   xmlns:svg="http://www.w3.org/2000/svg"
   xmlns="http://www.w3.org/2000/svg"
   xmlns:sodipodi="http://sodipodi.sourceforge.net/DTD/sodipodi-0.dtd"
   xmlns:inkscape="http://www.inkscape.org/namespaces/inkscape"
   width="367.73737"
   height="1200.25"
   id="svg2"
   version="1.1"
   inkscape:version="0.48.4 r9939"
   sodipodi:docname="tool-bar.svg">
  <defs
     id="defs4" />
  <sodipodi:namedview
     id="base"
     pagecolor="#ffffff"
     bordercolor="#666666"
     borderopacity="1.0"
     inkscape:pageopacity="0.0"
     inkscape:pageshadow="2"
     inkscape:zoom="0.70710678"
     inkscape:cx="-10.480568"
     inkscape:cy="517.51535"
     inkscape:document-units="px"
     inkscape:current-layer="layer8"
     showgrid="false"
     inkscape:window-width="2560"
     inkscape:window-height="1416"
     inkscape:window-x="1920"
     inkscape:window-y="24"
     inkscape:window-maximized="1"
     showguides="true"
     inkscape:guide-bbox="true"
     borderlayer="true"
     fit-margin-top="0"
     fit-margin-left="0"
     fit-margin-right="0"
     fit-margin-bottom="0" />
  <metadata
     id="metadata7">
    <rdf:RDF>
      <cc:Work
         rdf:about="">
        <dc:format>image/svg+xml</dc:format>
        <dc:type
           rdf:resource="http://purl.org/dc/dcmitype/StillImage" />
        <dc:title></dc:title>
      </cc:Work>
    </rdf:RDF>
  </metadata>
  <g
     inkscape:groupmode="layer"
     id="layer8"
     inkscape:label="tools2"
     style="display:inline"
     transform="translate(0,0.25000238)">
    <rect
       style="color:#000000;fill:#7d7d7d;fill-opacity:1;fill-rule:nonzero;stroke:none;stroke-width:10;marker:none;visibility:visible;display:inline;overflow:visible;enable-background:accumulate"
       id="rect3234"
       width="60.25"
       height="1200.25"
       x="0"
       y="-0.25000238"
       rx="0"
       ry="0" />
    <rect
       style="fill:#d5d5d5;fill-opacity:1;stroke:none"
       id="rect5404"
       width="36.062447"
       height="36.062447"
       x="11.424622"
       y="104.20631" />
    <g
       transform="matrix(0.02019044,0,0,0.02019044,18.470956,113.76149)"
       id="layer1-1"
       inkscape:label="Capa 1"
       style="fill:#535353;fill-opacity:1">
      <path
         sodipodi:nodetypes="ccccc"
         inkscape:connector-curvature="0"
         id="path4226"
         d="m 236.23423,-147.88293 80,1198.28573 310.57143,-452.17064 469.42864,20.95975 z"
         style="fill:#535353;fill-opacity:1;stroke:none" />
    </g>
    <rect
       y="352.34128"
       x="11"
       height="3.3015873"
       width="39"
       id="rect4804"
       style="fill:#535353;fill-opacity:1;stroke:none" />
    <g
       transform="matrix(0.02019219,0,0,0.02019219,18.470506,160.8606)"
       id="layer1-7"
       inkscape:label="Capa 1"
       style="fill:#d5d5d5;fill-opacity:1">
      <path
         id="path4740"
         transform="translate(0,-147.63782)"
         d="m 238.15625,2.875 c -130.57609,0 -236.4375,105.83016 -236.4375,236.40625 0,130.5761 105.86141,236.4375 236.4375,236.4375 130.57609,0 236.40625,-105.8614 236.40625,-236.4375 C 474.5625,108.70516 368.73234,2.875 238.15625,2.875 z"
         style="fill:#d5d5d5;fill-opacity:1;stroke:none"
         inkscape:connector-curvature="0" />
      <path
         inkscape:connector-curvature="0"
         id="path4747"
         d="m 1031.0044,-151.20484 c -81.65849,0 -147.85273,66.194232 -147.85273,147.8526824 0,81.6584496 66.19424,147.8526576 147.85273,147.8526576 81.6584,0 147.8527,-66.194208 147.8527,-147.8526576 0,-81.6584504 -66.1943,-147.8526824 -147.8527,-147.8526824 z m 0,41.88843 c 58.5174,0 105.9432,47.446792 105.9432,105.9642524 0,58.5174596 -47.4258,105.9642576 -105.9432,105.9642576 -58.5175,0 -105.96429,-47.446798 -105.96429,-105.9642576 0,-58.5174604 47.44679,-105.9642524 105.96429,-105.9642524 z"
         style="fill:#d5d5d5;fill-opacity:1;stroke:#d5d5d5;stroke-width:49.52409744;stroke-miterlimit:4;stroke-opacity:1;stroke-dasharray:none" />
      <path
         sodipodi:nodetypes="csccscc"
         inkscape:connector-curvature="0"
         id="path4749"
         d="m 186.30602,723.08806 c 0,0 -114.877449,-371.29731 113.69398,-574.15445 C 528.57143,-53.923535 875.75634,41.19901 875.75634,41.19901 l 0,-108.571421 c 0,0 -385.89991,-109.103689 -656.41987,139.784631 C -52.001507,322.05315 83.448876,723.08806 83.448876,723.08806 z"
         style="fill:#d5d5d5;fill-opacity:1;stroke:none" />
      <path
         sodipodi:nodetypes="ccccc"
         transform="translate(0,-147.63782)"
         inkscape:connector-curvature="0"
         id="path4754"
         d="M 352.85715,352.85714 680,1200 824.28571,792.85714 1200,680 z"
         style="fill:#d5d5d5;fill-opacity:1;stroke:none" />
      <path
         style="fill:#d5d5d5;fill-opacity:1;stroke:#d5d5d5;stroke-width:49.52409744;stroke-miterlimit:4;stroke-opacity:1;stroke-dasharray:none"
         d="m 151.95166,734.03842 c -81.658495,0 -147.8527345,66.19423 -147.8527345,147.85268 0,81.65845 66.1942395,147.8527 147.8527345,147.8527 81.6584,0 147.8527,-66.19425 147.8527,-147.8527 0,-81.65845 -66.1943,-147.85268 -147.8527,-147.85268 z m 0,41.88843 c 58.5174,0 105.9432,47.44679 105.9432,105.96425 0,58.51746 -47.4258,105.96426 -105.9432,105.96426 -58.517505,0 -105.964295,-47.4468 -105.964295,-105.96426 0,-58.51746 47.44679,-105.96425 105.964295,-105.96425 z"
         id="path5119"
         inkscape:connector-curvature="0" />
    </g>
    <g
       transform="matrix(0.02035677,0,0,0.02035677,18.349418,208.01063)"
       id="layer1-6"
       inkscape:label="Capa 1"
       style="fill:#d5d5d5;fill-opacity:1">
      <path
         style="fill:#d5d5d5;fill-opacity:1;stroke:none"
         d="m 467.14736,-140.3631 c -254.68491,0 -461.1384317,206.453517 -461.1384317,461.13847 0,254.68494 206.4535217,461.1384 461.1384317,461.1384 254.68496,0 461.13848,-206.45346 461.13848,-461.1384 0,-254.684953 -206.45352,-461.13847 -461.13848,-461.13847 z m 0,130.6460351 c 182.51041,0 330.42672,147.9820349 330.42672,330.4924349 0,182.5104 -147.91631,330.49246 -330.42672,330.49246 -182.51035,0 -330.49239,-147.98206 -330.49239,-330.49246 0,-182.5104 147.98204,-330.4924349 330.49239,-330.4924349 z"
         id="path4745-2"
         inkscape:connector-curvature="0" />
      <rect
         transform="matrix(0.70710678,-0.70710678,0.70710678,0.70710678,0,0)"
         y="986.90741"
         x="34.309048"
         height="535.71429"
         width="137.14285"
         id="rect4832"
         style="fill:#d5d5d5;fill-opacity:1;stroke:none" />
    </g>
    <g
       transform="matrix(0.02021171,0,0,0.02021171,18.476146,302.69032)"
       id="layer1-2"
       inkscape:label="Capa 1"
       style="fill:#d5d5d5;fill-opacity:1">
      <path
         id="rect4882"
         transform="translate(0,-147.63782)"
         d="m 0,0 0,1200 1200,0 L 1200,0 0,0 z m 150.625,150.625 898.75,0 0,898.75 -898.75,0 0,-898.75 z"
         style="fill:#d5d5d5;fill-opacity:1;stroke:none"
         inkscape:connector-curvature="0" />
    </g>
    <g
       transform="matrix(0.02059069,0,0,0.02059069,18.239835,255.29595)"
       id="layer1-5"
       inkscape:label="Capa 1"
       style="fill:#d5d5d5;fill-opacity:1">
      <rect
         y="-147.63782"
         x="0"
         height="162.80696"
         width="1200"
         id="rect4853-5"
         style="fill:#d5d5d5;fill-opacity:1;stroke:none" />
      <rect
         transform="matrix(0,1,-1,0,0,0)"
         y="-1010.6439"
         x="250.47047"
         height="63.811989"
         width="707.8537"
         id="rect4857-3"
         style="fill:#d5d5d5;fill-opacity:1;stroke:none" />
      <rect
         y="897.513"
         x="867.72217"
         height="60.811184"
         width="222.03152"
         id="rect4859-7"
         style="fill:#d5d5d5;fill-opacity:1;stroke:none" />
      <rect
         style="fill:#d5d5d5;fill-opacity:1;stroke:none"
         id="rect4861-3"
         width="222.03152"
         height="60.811184"
         x="867.72217"
         y="250.47047" />
      <rect
         transform="matrix(0,1,-1,0,0,0)"
         style="fill:#d5d5d5;fill-opacity:1;stroke:none"
         id="rect2997"
         width="1200"
         height="162.80696"
         x="-148.23431"
         y="-681.4035" />
    </g>
    <g
       transform="matrix(0.02046957,0,0,0.02046957,18.205259,382.61617)"
       id="layer1-22"
       inkscape:label="Capa 1"
       style="fill:#d5d5d5;fill-opacity:1">
      <path
         sodipodi:nodetypes="cssssc"
         inkscape:connector-curvature="0"
         id="path5059"
         d="m 4.8373648,-147.27619 c 0,0 -21.5778918,399.52182 161.1217152,631.27298 182.69963,231.75115 382.60684,171.17909 511.9686,41.81734 C 807.28944,396.45238 860.11564,237.85084 710.06424,87.79944 560.01283,-62.25196 373.85368,-38.614425 262.22244,-44.447842 150.59121,-50.281259 4.8373648,-147.27619 4.8373648,-147.27619 z"
         style="fill:#d5d5d5;fill-opacity:1;stroke:none" />
      <rect
         ry="61.223118"
         rx="61.223118"
         transform="matrix(0.70710678,-0.70710678,0.70710678,0.70710678,0,0)"
         y="881.10779"
         x="-90.316849"
         height="122.44624"
         width="402.76291"
         id="rect5061"
         style="fill:#d5d5d5;fill-opacity:1;stroke:none" />
      <rect
         transform="matrix(0.70710678,-0.70710678,0.70710678,0.70710678,0,0)"
         y="937.31561"
         x="-26.319733"
         height="506.65967"
         width="273.40073"
         id="rect5065"
         style="fill:#d5d5d5;fill-opacity:1;stroke:none" />
      <path
         transform="translate(0,-147.63782)"
         inkscape:connector-curvature="0"
         id="path5067"
         d="m 59.39697,600 108.89444,147.45166 0,287.08534 603.86919,0 102.53049,102.5305 -812.465693,0 z"
         style="fill:#d5d5d5;fill-opacity:1;stroke:none" />
      <path
         sodipodi:nodetypes="ccccccc"
         transform="translate(0,-147.63782)"
         inkscape:connector-curvature="0"
         id="path5069"
         d="m 1022.4764,747.45166 105.3589,105.35891 0,-782.767206 -527.8353,0 132.56262,101.823376 289.91378,0 z"
         style="fill:#d5d5d5;fill-opacity:1;stroke:none" />
    </g>
    <g
       transform="matrix(0.02046957,0,0,0.02046957,18.183869,434.67307)"
       id="layer1-0"
       inkscape:label="Capa 1"
       style="fill:#d5d5d5;fill-opacity:1">
      <rect
         transform="matrix(0.89402109,0.44802488,-0.89402109,0.44802488,0,0)"
         y="-501.6395"
         x="170.54533"
         height="667.47644"
         width="667.47644"
         id="rect5071"
         style="fill:#d5d5d5;fill-opacity:1;stroke:none" />
      <path
         id="rect5073"
         transform="translate(0,-147.63782)"
         d="m 243.65625,478.34375 -239.4375,120 596.71875,299.0625 596.75,-299.0625 -239.46875,-120 -357.28125,179.0625 -357.28125,-179.0625 z"
         style="fill:#d5d5d5;fill-opacity:1;stroke:none"
         inkscape:connector-curvature="0" />
      <path
         id="rect5075"
         transform="translate(0,-147.63782)"
         d="m 247.65625,780.34375 -243.4375,122 596.71875,299.06245 596.75,-299.06245 -243.4375,-122 -353.3125,177.0625 -353.28125,-177.0625 z"
         style="fill:#d5d5d5;fill-opacity:1;stroke:none"
         inkscape:connector-curvature="0" />
    </g>
    <g
       transform="matrix(0.02046957,0,0,0.02046957,18.205194,481.94439)"
       id="layer1-3"
       inkscape:label="Capa 1"
       style="fill:#d5d5d5;fill-opacity:1">
      <rect
         y="-147.63782"
         x="0"
         height="1200"
         width="160.48456"
         id="rect5102"
         style="fill:#d5d5d5;fill-opacity:1;stroke:none" />
      <rect
         y="-147.63782"
         x="257.57361"
         height="300.56018"
         width="689.09546"
         id="rect5107"
         style="fill:#d5d5d5;fill-opacity:1;stroke:none" />
      <rect
         style="fill:#d5d5d5;fill-opacity:1;stroke:none"
         id="rect5109"
         width="942.23969"
         height="300.56018"
         x="257.57361"
         y="304.36218" />
      <rect
         y="752.36218"
         x="257.57361"
         height="300.56018"
         width="536.36035"
         id="rect5111"
         style="fill:#d5d5d5;fill-opacity:1;stroke:none" />
    </g>
    <g
       transform="matrix(0.02046957,0,0,0.02046957,18.212353,529.04962)"
       id="layer1-68"
       inkscape:label="Capa 1"
       style="fill:#d5d5d5;fill-opacity:1">
      <path
         inkscape:connector-curvature="0"
         id="rect5132"
         d="M 1.1703448,452.5419 346.63195,798.00348 434.16688,710.46857 176.24021,452.5419 434.16688,194.61523 346.63195,107.08029 1.1703448,452.5419 z"
         style="fill:#d5d5d5;fill-opacity:1;stroke:none" />
      <path
         style="fill:#d5d5d5;fill-opacity:1;stroke:none"
         d="M 1197.9435,452.54189 852.48192,107.08029 764.94701,194.6152 1022.8737,452.54189 764.94701,710.46857 852.48192,798.00348 1197.9435,452.54189 z"
         id="path5137"
         inkscape:connector-curvature="0" />
      <rect
         transform="matrix(0.97180509,0.23578564,-0.23578564,0.97180509,0,0)"
         y="-68.397041"
         x="624.17657"
         height="752.37695"
         width="122.13912"
         id="rect5139"
         style="fill:#d5d5d5;fill-opacity:1;stroke:none" />
    </g>
    <rect
       style="fill:#535353;fill-opacity:1;stroke:none"
       id="rect5402"
       width="39"
       height="3.3015873"
       x="11"
       y="611.19843" />
    <g
       transform="matrix(0.02041667,0,0,0.02041667,17.04331,634.02871)"
       id="layer1-27"
       inkscape:label="Capa 1"
       style="fill:#d5d5d5;fill-opacity:1;stroke:#d5d5d5;stroke-opacity:1;stroke-width:48.97958383999999654;stroke-miterlimit:4;stroke-dasharray:none">
      <path
         inkscape:connector-curvature="0"
         id="path2995"
         d="m 155.93694,-145.94292 c -85.966909,0 -155.65624933,69.689344 -155.65624933,155.6562542 0,85.9669098 69.68934033,155.6562458 155.65624933,155.6562458 85.96691,0 155.65625,-69.689336 155.65625,-155.6562458 0,-85.9669102 -69.68934,-155.6562542 -155.65625,-155.6562542 z m 0,48.781254 c 59.02073,0 106.875,47.85427 106.875,106.8750002 0,59.0207298 -47.85427,106.8749958 -106.875,106.8749958 -59.020729,0 -106.874999,-47.854266 -106.874999,-106.8749958 0,-59.0207302 47.85427,-106.8750002 106.874999,-106.8750002 z"
         style="fill:#d5d5d5;fill-opacity:1;stroke:#d5d5d5;stroke-opacity:1;stroke-width:48.97958383999999654;stroke-miterlimit:4;stroke-dasharray:none" />
      <path
         style="fill:#d5d5d5;fill-opacity:1;stroke:#d5d5d5;stroke-opacity:1;stroke-width:48.97958383999999654;stroke-miterlimit:4;stroke-dasharray:none"
         d="m 1039.8204,737.94056 c -85.96689,0 -155.65623,69.68934 -155.65623,155.65625 0,85.96691 69.68934,155.65629 155.65623,155.65629 85.9669,0 155.6563,-69.68938 155.6563,-155.65629 0,-85.96691 -69.6894,-155.65625 -155.6563,-155.65625 z m 0,48.78125 c 59.0207,0 106.875,47.85427 106.875,106.875 0,59.02073 -47.8543,106.87499 -106.875,106.87499 -59.02071,0 -106.87498,-47.85426 -106.87498,-106.87499 0,-59.02073 47.85427,-106.875 106.87498,-106.875 z"
         id="path3768"
         inkscape:connector-curvature="0" />
      <rect
         transform="matrix(0.70710678,-0.70710678,0.70710678,0.70710678,0,0)"
         y="259.41254"
         x="57.855377"
         height="977.95392"
         width="90.510269"
         id="rect3770"
         style="fill:#d5d5d5;fill-opacity:1;stroke:#d5d5d5;stroke-opacity:1;stroke-width:48.97958392000000316;stroke-miterlimit:4;stroke-dasharray:none" />
    </g>
    <g
       transform="matrix(0.02041667,0,0,0.02041667,16.92416,806.03206)"
       id="layer1-71"
       inkscape:label="Capa 1"
       style="fill:#d5d5d5;fill-opacity:1">
      <path
         inkscape:connector-curvature="0"
         id="rect3837"
         d="m 867.51954,187.6907 c -64.84291,-64.8429 -169.24466,-64.8429 -234.08755,0 L 54.384076,766.7386 c -64.842915,64.84292 -64.865587,169.26735 -0.02269,234.1102 64.842904,64.8429 169.267324,64.8203 234.110234,-0.023 L 867.51954,421.77825 c 64.84289,-64.8429 64.84289,-169.24465 0,-234.08755 z m -71.32887,71.32887 c 40.669,40.669 40.69169,106.1405 0.0227,146.80951 l -523.6909,523.69089 c -40.66908,40.66908 -106.16321,40.66901 -146.83222,1e-5 -40.668998,-40.66901 -40.669064,-106.16313 2e-5,-146.83222 L 649.38116,258.99688 c 40.669,-40.669 106.1405,-40.64632 146.80951,0.0227 z"
         style="fill:#d5d5d5;fill-opacity:1;stroke:none" />
      <rect
         transform="matrix(0.70710678,0.70710678,-0.70710678,0.70710678,0,0)"
         ry="90.749191"
         y="-454.59235"
         x="431.78461"
         height="181.49838"
         width="628.71045"
         id="rect3839"
         style="fill:#d5d5d5;fill-opacity:1;stroke:none" />
      <rect
         ry="90.749191"
         transform="matrix(0.70710678,0.70710678,-0.70710678,0.70710678,0,0)"
         y="-823.39709"
         x="563.18945"
         height="451.56799"
         width="365.90076"
         id="rect3841"
         style="fill:#d5d5d5;fill-opacity:1;stroke:none" />
    </g>
    <g
       transform="matrix(0.02041667,0,0,0.02041667,16.870069,766.04315)"
       id="layer1-05"
       inkscape:label="Capa 1"
       style="fill:#d5d5d5;fill-opacity:1">
      <rect
         ry="88.388344"
         y="714.36517"
         x="14.142134"
         height="335.16861"
         width="394.56558"
         id="rect3866"
         style="fill:#d5d5d5;fill-opacity:1;stroke:none" />
      <rect
         ry="88.388344"
         y="-147.63782"
         x="149.90665"
         height="454.70944"
         width="574.17078"
         id="rect3868"
         style="fill:#d5d5d5;fill-opacity:1;stroke:none" />
      <rect
         ry="88.388344"
         y="437.17926"
         x="741.04791"
         height="357.79602"
         width="457.53787"
         id="rect3870"
         style="fill:#d5d5d5;fill-opacity:1;stroke:none" />
      <rect
         ry="31.819805"
         transform="translate(0,-147.63782)"
         y="300.56018"
         x="268.70059"
         height="664.68036"
         width="63.63961"
         id="rect3872"
         style="fill:#d5d5d5;fill-opacity:1;stroke:none" />
      <rect
         ry="31.819805"
         y="223.63303"
         x="536.58997"
         height="482.24683"
         width="66.46804"
         id="rect3874"
         style="fill:#d5d5d5;fill-opacity:1;stroke:none" />
      <rect
         ry="31.819805"
         y="626.6839"
         x="539.4184"
         height="79.195961"
         width="337.99704"
         id="rect3876"
         style="fill:#d5d5d5;fill-opacity:1;stroke:none" />
    </g>
    <g
       transform="matrix(0.02041667,0,0,0.02041667,17,850.01428)"
       id="layer1-9"
       inkscape:label="Capa 1"
       style="fill:#d5d5d5;fill-opacity:1">
      <path
         id="rect3897-9"
         transform="translate(0,-147.63782)"
         d="m 302.46875,0 150.625,150.625 596.28125,0 0,898.75 -898.75,0 0,-544.4375 L 0,354.3125 0,1200 1200,1200 1200,0 302.46875,0 z"
         style="fill:#d5d5d5;fill-opacity:1;stroke:none"
         inkscape:connector-curvature="0" />
      <path
         transform="translate(0,-147.63782)"
         inkscape:connector-curvature="0"
         id="path3905"
         d="m 247.48737,942.61313 701.44993,-2.82843 0,-586.89863 L 675.99408,688.05469 414.36457,600 z"
         style="fill:#d5d5d5;fill-opacity:1;stroke:none" />
      <path
         transform="matrix(1,0,0,-1,-35.355339,675.51403)"
         d="m 811.75856,438.44598 c 0,76.15224 -61.73358,137.88582 -137.88582,137.88582 -76.15223,0 -137.88582,-61.73358 -137.88582,-137.88582 0,-76.15223 61.73359,-137.88581 137.88582,-137.88581 76.15224,0 137.88582,61.73358 137.88582,137.88581 z"
         sodipodi:ry="137.88582"
         sodipodi:rx="137.88582"
         sodipodi:cy="438.44598"
         sodipodi:cx="673.87274"
         id="path3907"
         style="fill:#d5d5d5;fill-opacity:1;stroke:none"
         sodipodi:type="arc" />
      <rect
         y="-147.63782"
         x="118.03785"
         height="354.11359"
         width="118.03785"
         id="rect3911-5"
         style="fill:#d5d5d5;fill-opacity:1;stroke:none" />
      <rect
         transform="scale(1,-1)"
         y="-88.437889"
         x="0"
         height="117.81744"
         width="354.11359"
         id="rect3913-3"
         style="fill:#d5d5d5;fill-opacity:1;stroke:none" />
    </g>
    <rect
       ry="0"
       rx="0"
       y="-0.25000238"
       x="60"
       height="1200.25"
       width="307.73737"
       id="rect3236"
       style="color:#000000;fill:#d5d5d5;fill-opacity:1;fill-rule:nonzero;stroke:none;stroke-width:10;marker:none;visibility:visible;display:inline;overflow:visible;enable-background:accumulate" />
    <path
       style="color:#000000;fill:#ffffff;fill-opacity:1;fill-rule:nonzero;stroke:none;stroke-width:10;marker:none;visibility:visible;display:inline;overflow:visible;enable-background:accumulate"
       d="M 60,288.5625 60,302.53125 48.96875,313.5625 60,324.59375 l 0,13.96875 193.75,0 0,-50 z"
       id="rect3238"
       transform="translate(0,-0.25000238)"
       inkscape:connector-curvature="0"
       sodipodi:nodetypes="cccccccc" />
    <g
       transform="matrix(0.02065115,0,0,0.02065115,72.962486,303.9707)"
       id="layer1-70"
       inkscape:label="Capa 1"
       style="fill:#b0b0b0;fill-opacity:1">
      <path
         id="path4906"
         transform="translate(0,-147.63782)"
         d="M 600,0 C 268.62915,0 0,268.62915 0,600 c 0,331.37085 268.62915,600 600,600 331.37085,0 600,-268.62915 600,-600 C 1200,268.62915 931.37085,0 600,0 z m 0,152.03125 c 247.40813,0 447.9688,200.56062 447.9688,447.96875 0,247.40813 -200.56067,447.9688 -447.9688,447.9688 C 352.59187,1047.9688 152.03125,847.40813 152.03125,600 152.03125,352.59187 352.59187,152.03125 600,152.03125 z"
         style="fill:#b0b0b0;fill-opacity:1;stroke:none"
         inkscape:connector-curvature="0" />
    </g>
    <g
       transform="matrix(0.02209593,0,0,0.02209593,116.90889,304.0661)"
       id="layer1-78"
       inkscape:label="Capa 1"
       style="fill:#b0b0b0;fill-opacity:1">
      <path
         id="path3812"
         transform="translate(0,-147.63782)"
         d="M 860.9375,1.71875 492.8125,59.375 124.875,118.28125 65.96875,486.25 8.28125,854.375 340,1024.0938 672.3125,1192.7188 936.25,929.65625 1199.2812,665.75 1030.6562,333.4375 860.9375,1.71875 z M 798.96875,145.25 927.78125,397.03125 1055.75,649.21875 856.09375,849.53125 655.78125,1049.1875 403.59375,921.1875 151.8125,792.375 195.59375,513 240.3125,233.75 519.5625,189.03125 798.96875,145.25 z"
         style="fill:#b0b0b0;fill-opacity:1;stroke:none"
         inkscape:connector-curvature="0" />
    </g>
    <path
       style="fill:#b0b0b0;fill-opacity:1"
       d="m 221.93293,325.61898 c -3.94113,-0.46398 -7.55648,-2.5208 -9.57363,-5.44654 -2.48699,-3.60722 -2.62802,-8.06879 -0.37864,-11.97854 2.12372,-3.69134 6.23553,-6.3409 11.06039,-7.12707 2.23613,-0.36436 4.87422,-0.30754 6.95873,0.14989 1.09443,0.24016 1.67115,0.64523 1.78628,1.25463 0.0973,0.51512 -0.0169,0.83512 -0.44889,1.25775 -0.51245,0.50133 -0.93145,0.54323 -2.6271,0.26274 -1.80786,-0.29906 -4.15791,-0.25607 -5.75452,0.10527 -3.05842,0.69217 -5.49672,2.15435 -7.16431,4.29624 -3.72379,4.78291 -2.08856,11.101 3.48508,13.46546 4.51567,1.91563 9.7077,0.64076 11.71829,-2.87735 0.61282,-1.07231 0.83321,-1.84894 0.83321,-2.93613 0,-1.03356 -0.21156,-1.81404 -0.73154,-2.69884 -1.61121,-2.74163 -5.79756,-3.62533 -8.19224,-1.72931 -1.61986,1.28254 -1.65931,3.6572 -0.0702,4.22261 0.46905,0.16688 0.53554,0.0999 0.35847,-0.3609 -0.53244,-1.38576 1.47851,-2.56395 3.1421,-1.84092 0.67639,0.29397 1.41547,1.48816 1.41547,2.28709 0,0.97215 -0.90829,2.15217 -2.03359,2.64198 -1.85329,0.80668 -4.28267,0.40136 -5.8036,-0.96829 -2.577,-2.32067 -2.08876,-6.21065 1.06069,-8.45092 1.37672,-0.97928 3.12004,-1.48211 5.09737,-1.47026 5.6369,0.0338 9.87899,4.45376 9.11575,9.49796 -0.61107,4.03854 -4.02387,7.27693 -8.69597,8.25156 -1.13653,0.2371 -3.37364,0.33128 -4.55764,0.19189 z"
       id="path3057"
       inkscape:connector-curvature="0" />
    <g
       transform="matrix(0.02066214,0,0,0.02066214,163.04499,303.98445)"
       id="layer1-4"
       inkscape:label="Capa 1"
       style="fill:#b0b0b0;fill-opacity:1">
      <path
         sodipodi:nodetypes="ccccccccccccccccccccccccccccccc"
         inkscape:connector-curvature="0"
         id="rect4882-9"
         transform="translate(0,-147.63782)"
         d="M 540.21875,1.21875 4.46875,185.4375 0,186.92188 l 0,771.23437 663.84375,238.43755 0,0.5624 0.71875,-0.3124 0.875,0.3124 0,-0.7187 534.5313,-238.28125 0,-770.625 -0.01,-0.77735 0.01,-0.5039 -0.01,0 -3.3047,-0.9375 z M 550.40625,52.6875 1048.4688,203.75 654.21875,374.90625 169.9375,197.75 z m -462.875,260.34375 494.375,177 0,579.93755 -494.375,-177.00005 z m 1041.12495,0 0,579.9375 -397.5312,177.00005 0,-579.93755 z"
         style="fill:#b0b0b0;fill-opacity:1;stroke:none" />
    </g>
    <rect
       style="fill:#535353;fill-opacity:1;stroke:none"
       id="rect4344"
       width="39"
       height="3.3015873"
       x="11"
       y="76.341278" />
    <path
       sodipodi:nodetypes="cccccccc"
       inkscape:connector-curvature="0"
       id="path4346"
       d="M 60,618.25 60,632.21875 48.96875,643.25 60,654.28125 60,668.25 l 141.75,0 0,-50 z"
       style="color:#000000;fill:#ffffff;fill-opacity:1;fill-rule:nonzero;stroke:none;stroke-width:10;marker:none;visibility:visible;display:inline;overflow:visible;enable-background:accumulate" />
    <g
       transform="matrix(0.02041667,0,0,0.02041667,73.54331,634.02871)"
       id="layer1-00"
       inkscape:label="Capa 1"
       style="fill:#b0b0b0;fill-opacity:1">
      <path
         style="fill:#b0b0b0;fill-opacity:1;stroke:#b0b0b0;stroke-opacity:1"
         d="M 76.71875 631.3125 C 74.963592 631.3125 73.5625 632.71359 73.5625 634.46875 C 73.5625 636.22391 74.963592 637.65625 76.71875 637.65625 C 77.510019 637.65625 78.224989 637.35344 78.78125 636.875 C 79.908236 636.83821 82.213375 636.94291 83 638.34375 C 84.053884 640.22053 76.894033 647.23545 80.21875 651 C 82.539257 653.62749 89.789778 646.15007 91.5625 647.59375 C 92.40078 648.27643 92.630932 649.31033 92.65625 650.1875 C 92.0163 650.76886 91.59375 651.59854 91.59375 652.53125 C 91.59375 654.28641 93.026092 655.6875 94.78125 655.6875 C 96.536408 655.6875 97.9375 654.28641 97.9375 652.53125 C 97.9375 650.77609 96.536408 649.34375 94.78125 649.34375 C 94.51654 649.34375 94.245851 649.37651 94 649.4375 C 94.020009 648.93759 94.022464 646.49295 91.90625 645.375 C 89.556057 644.13344 84.223618 650.95008 81.625 648.875 C 79.026382 646.79992 86.562042 640.05751 84.9375 637.71875 C 83.658363 635.87725 80.721447 635.56106 79.71875 635.5 C 79.828271 635.1784 79.90625 634.82741 79.90625 634.46875 C 79.90625 632.71359 78.473908 631.3125 76.71875 631.3125 z M 76.71875 632.28125 C 77.923757 632.28125 78.90625 633.26374 78.90625 634.46875 C 78.90625 635.67376 77.923757 636.65625 76.71875 636.65625 C 75.513743 636.65625 74.53125 635.67376 74.53125 634.46875 C 74.53125 633.26374 75.513743 632.28125 76.71875 632.28125 z M 94.78125 650.34375 C 95.986256 650.34375 96.96875 651.32624 96.96875 652.53125 C 96.96875 653.73626 95.986256 654.71875 94.78125 654.71875 C 93.576244 654.71875 92.59375 653.73626 92.59375 652.53125 C 92.59375 651.32624 93.576244 650.34375 94.78125 650.34375 z "
         id="path2995-9"
         transform="matrix(48.979584,0,0,48.979584,-3602.1207,-31066.707)" />
    </g>
    <g
       transform="matrix(0.02091174,0,0,0.02091174,116.54286,633.59998)"
       id="layer1-44"
       inkscape:label="Capa 1"
       style="fill:#b0b0b0;fill-opacity:1">
      <path
         sodipodi:nodetypes="cssscsssssc"
         transform="translate(0,-147.63782)"
         inkscape:connector-curvature="0"
         id="path2993"
         d="M 1200.7578,94.084994 C 1200.7578,94.084994 1064.9028,0 756.60426,0 448.3057,0 0,253.14423 0,600 0,1004.8385 497.80318,753.10851 752.36162,798.36334 1006.9201,843.61818 300,1200 300,1200 c 0,0 313.76869,-39.598 377.4083,-66.468 63.63961,-26.8701 410.1219,-213.54629 345.0681,-397.39405 C 957.42258,552.29019 414.36457,673.91256 264.45794,697.95419 114.5513,721.99582 256.52922,388.06538 449.71991,298.57143 673.29185,195.00362 892.36875,258.13377 937.62356,259.54798 982.87846,260.96219 1200.7578,94.084994 1200.7578,94.084994 z"
         style="fill:#b0b0b0;fill-opacity:1;stroke:none" />
    </g>
    <g
       transform="matrix(0.02124732,0,0,0.02124732,16.46497,571.40556)"
       id="layer1-14"
       inkscape:label="Capa 1"
       style="fill:#d5d5d5;fill-opacity:1">
      <path
         id="rect4882-4"
         transform="translate(0,-147.63782)"
         d="m 0,0 0,1200 1200,0 L 1200,0 0,0 z m 150.625,150.625 189.375,0 0,202.625 -189.375,0 0,-202.625 z m 339.28125,0 220.09375,0 0,202.625 -220.09375,0 0,-202.625 z m 370,0 189.46875,0 0,202.625 -189.46875,0 0,-202.625 z M 150.625,503.15625 l 189.375,0 0,220.09375 -189.375,0 0,-220.09375 z m 339.28125,0 220.09375,0 0,220.09375 -220.09375,0 0,-220.09375 z m 370,0 189.46875,0 0,220.09375 -189.46875,0 0,-220.09375 z m -709.28125,370 189.375,0 0,176.21875 -189.375,0 0,-176.21875 z m 339.28125,0 220.09375,0 0,176.21875 -220.09375,0 0,-176.21875 z m 370,0 189.46875,0 0,176.21875 -189.46875,0 0,-176.21875 z"
         style="fill:#d5d5d5;fill-opacity:1;stroke:none"
         inkscape:connector-curvature="0" />
    </g>
    <g
       transform="matrix(0.02221095,0,0,0.02221095,15.887771,683.07372)"
       id="layer1-42"
       inkscape:label="Capa 1"
       style="fill:#d5d5d5;fill-opacity:1">
      <rect
         transform="matrix(0.8660254,0.5,-0.5,0.8660254,0,0)"
         ry="70.28537"
         rx="70.28537"
         y="-451.78836"
         x="439.62833"
         height="1084.6875"
         width="614.65625"
         id="rect2996"
         style="color:#000000;fill:#d5d5d5;fill-opacity:1;fill-rule:nonzero;stroke:none;stroke-width:10;marker:none;visibility:visible;display:inline;overflow:visible;enable-background:accumulate" />
    </g>
    <path
       style="color:#000000;fill:#ffffff;fill-opacity:1;fill-rule:nonzero;stroke:none;stroke-width:10;marker:none;visibility:visible;display:inline;overflow:visible;enable-background:accumulate"
       d="M 60,706.25 60,720.21875 48.96875,731.25 60,742.28125 60,756.25 l 101.75,0 0,-50 z"
       id="path5887"
       inkscape:connector-curvature="0"
       sodipodi:nodetypes="cccccccc" />
    <g
       transform="matrix(0.02430766,0,0,0.02430766,157.15837,633.76508)"
       id="layer1-21"
       inkscape:label="Capa 1"
       style="fill:#b0b0b0;fill-opacity:1;stroke:#b0b0b0;stroke-opacity:1;stroke-width:20.56964758999999887;stroke-miterlimit:4;stroke-dasharray:none">
      <path
         sodipodi:nodetypes="ssssccccccccccsssssccssssccscccccccssssscccss"
         inkscape:connector-curvature="0"
         id="path2993-1"
         transform="translate(0,-147.63782)"
         d="m 613.75,159.8125 c -5.11061,-0.007 -10.28557,0.0933 -15.53125,0.28125 -109.64687,3.92814 -196.4438,44.61518 -259.0625,102.6875 -62.6187,58.07232 -101.8306,131.68409 -127.25,202.6875 C 180.11019,554.28392 169.34598,641.28784 165.75,694 L 52,694 l -50,0 0,50 0,50.125 100,0 0,-0.125 112,0 50.84375,0 L 264,743.15625 c 0,0 -1.44186,-122.53635 42.03125,-243.96875 21.73656,-60.7162 54.36067,-119.72471 101.125,-163.09375 46.76433,-43.36904 106.89572,-72.91957 194.625,-76.0625 8.24744,-0.29547 16.17867,-0.35795 23.8125,-0.15625 114.50738,3.02551 161.67282,60.37887 191.625,123.875 4.27741,9.06776 7.95269,18.19961 11.1875,27.21875 -0.29603,-0.14377 -0.57804,-0.29431 -0.875,-0.4375 C 761.68849,378.78385 662.40731,361.58132 571.5,424.625 480.03806,488.0533 452.4495,593.798 466.6875,684.03125 c 14.238,90.23325 65.3425,174.13746 149.25,202.875 95.76552,32.7988 176.06721,-0.38086 221,-41.8125 C 858.65156,825.07164 874.1418,803.26715 884.46875,786 L 1070,786 c 5.0472,-0.0829 10.2846,-0.32053 15.6875,-0.36704 L 1200,784.21875 1200,736 l 0,-50 -50,0 -295.90625,0 L 820,686 807.5625,717.71875 c 0,0 -12.31644,29.78685 -38.40625,53.84375 -26.08981,24.0569 -56.7719,42.68331 -120.8125,20.75 -33.92824,-11.62011 -73.30998,-63.05868 -82.90625,-123.875 -9.59627,-60.81632 5.65857,-121.81571 63.0625,-161.625 57.95856,-40.19391 108.65298,-28.82093 155.59375,-6.1875 46.94077,22.63343 79.53125,56.53125 79.53125,56.53125 l 86.4375,91.75 L 950,522.84375 c 0,0 0.75201,-90.39059 -42.34375,-181.75 C 865.90724,252.58932 772.17898,160.04284 613.75,159.8125 z"
         style="font-size:medium;font-style:normal;font-variant:normal;font-weight:normal;font-stretch:normal;text-indent:0;text-align:start;text-decoration:none;line-height:normal;letter-spacing:normal;word-spacing:normal;text-transform:none;direction:ltr;block-progression:tb;writing-mode:lr-tb;text-anchor:start;baseline-shift:baseline;color:#000000;fill:#b0b0b0;fill-opacity:1;stroke:#b0b0b0;stroke-width:20.56964758999999887;marker:none;visibility:visible;display:inline;overflow:visible;enable-background:accumulate;font-family:Sans;-inkscape-font-specification:Sans;stroke-opacity:1;stroke-miterlimit:4;stroke-dasharray:none" />
    </g>
    <g
       transform="matrix(0.02146242,0,0,0.02146242,16.390738,724.02458)"
       id="layer1-54"
       inkscape:label="Capa 1"
       style="fill:#d5d5d5;fill-opacity:1">
      <g
         id="g3071"
         style="fill:#d5d5d5;fill-opacity:1">
        <path
           inkscape:connector-curvature="0"
           id="path3073"
           d="M 397.26562,1050.7753 C 309.79873,1043.3219 210.9486,988.92559 129.08157,903.19613 68.381482,839.63223 27.612422,771.03542 9.550362,702.07646 3.9232905,680.59292 -1.1538324,633.85686 0.93171984,622.73991 2.8226116,612.66059 54.441,556.61251 151.38075,459.37991 L 225,385.53826 225.0178,195.70803 c 0.0109,-118.14632 0.92524,-195.58304609 2.42118,-205.0646 8.32679,-52.776912 37.76148,-91.70772 87.79538,-116.11958 32.58148,-15.89671 56.11236,-20.85987 98.4375,-20.76254 37.95193,0.0873 54.59227,2.94428 82.7427,14.20622 40.1981,16.08178 70.40663,42.508091 86.94593,76.060051 16.1922,32.847773 16.55287,36.660365 16.59881,175.462399 l 0.0408,122.98716 142.38282,142.17684 c 106.58437,106.43018 143.96683,145.18744 148.683,154.15109 8.19089,15.5678 10.28836,30.27938 6.67964,46.85079 l -2.8725,13.19069 -171.45992,171.94121 C 554.47216,940.20294 444.68285,1046.2479 434.03597,1050.2959 c -5.24754,1.9951 -17.1607,2.1504 -36.77025,0.4794 z m 196.232,-568.52039 c 33.37139,-15.27793 51.51286,-55.09086 40.4396,-88.74802 -6.57621,-19.98844 -21.81542,-39.58221 -30.78537,-39.58221 -2.0741,0 -3.03626,10.34946 -3.58005,38.50882 -0.67081,34.7352 -1.22414,39.15638 -5.64668,45.11719 -17.06466,23.00011 -45.78558,23.00011 -62.85024,0 -4.42254,-5.96081 -4.97587,-10.38199 -5.64668,-45.11719 -0.81911,-42.41562 -1.26011,-43.42259 -14.23525,-32.50474 -10.45369,8.79621 -22.05692,33.90159 -23.2422,50.28813 -4.00188,55.3253 54.63499,95.34626 105.54687,72.03802 z M 379.60652,231.28555 c 79.38218,-78.85725 79.56579,-78.9972 103.4779,-78.86773 5.65123,0.0305 16.60308,2.66243 24.33745,5.8485 7.73438,3.18609 14.85352,5.79778 15.82032,5.80376 0.96679,0.007 1.75781,-36.71177 1.75781,-81.595007 0,-89.7594633 -0.84145,-96.646085 -14.0343,-114.858279 -22.14636,-30.572152 -79.27313,-46.909366 -128.99405,-36.889943 -36.87298,7.430393 -62.45114,24.73947 -74.68685,50.541579 l -6.11293,12.890625 -0.68303,152.158245 c -0.37566,83.68704 -0.14508,153.56008 0.51239,155.27343 0.65747,1.71336 1.98309,3.1152 2.94579,3.1152 0.96271,0 35.0095,-33.03916 75.6595,-73.42038 z M 1017.4312,898.73762 C 950.78084,884.27923 900.0814,821.03968 900.0814,752.36218 c 0,-36.38252 11.75681,-66.2748 41.75245,-106.15758 33.50363,-44.54707 42.84642,-65.45712 43.15137,-96.5768 0.26829,-27.37748 -7.25799,-49.22381 -30.0252,-87.15337 -2.46475,-4.10625 -3.67697,-8.2703 -2.69379,-9.25348 2.91172,-2.91171 33.43282,3.34261 52.56417,10.77134 75.8089,29.43668 152.0562,116.39688 180.9192,206.33864 12.7557,39.74916 17.0948,83.82982 11.0429,112.18507 -9.4205,44.13757 -39.7724,83.8268 -78.8308,103.08178 -32.4616,16.00287 -66.7018,20.47824 -100.5305,13.13984 z"
           style="fill:#d5d5d5;fill-opacity:1" />
      </g>
    </g>
    <g
       transform="matrix(0.03007311,0,0,0.03007311,11.280718,26.42579)"
       id="layer1-40"
       inkscape:label="Capa 1"
       style="fill:#535353;fill-opacity:1">
      <path
         inkscape:connector-curvature="0"
         id="path3955"
         d="m 611.21792,-143.25548 c -21.25833,-0.32034 -42.41703,0.50321 -63.41324,2.43277 L 458.79278,113.97754 214.39749,-0.55363764 C 188.70107,21.304496 164.70931,45.46283 142.79804,71.775822 L 260.02299,314.92901 6.2083117,406.79025 c -2.7336745,34.13217 -2.4804991,68.1733 0.6067778,101.76723 L 261.61535,597.56939 147.08417,841.96467 c 21.85814,25.69639 46.01647,49.68817 72.32946,71.5994 l 243.15318,-117.2249 91.86124,253.81473 c 34.13219,2.7336 68.17331,2.4804 101.76724,-0.6069 L 745.20719,794.74682 989.60247,909.278 c 25.69633,-21.85815 49.68833,-46.01641 71.59943,-72.32946 L 943.97698,593.79535 1197.7917,501.93411 c 2.7337,-34.13214 2.4804,-68.1733 -0.6069,-101.76723 L 942.38462,311.15497 1056.9158,66.75969 C 1035.0576,41.063274 1010.8994,17.071508 984.58634,-4.8397616 L 741.43315,112.38519 649.57192,-141.42949 c -12.79957,-1.02513 -25.599,-1.63378 -38.354,-1.82599 z m -8.08596,363.61185 C 731.25054,222.07123 833.72101,327.32204 832.00615,455.44062 830.29129,583.5592 725.04049,686.02967 596.9219,684.31481 468.80332,682.59995 366.33285,577.34915 368.04771,449.23056 369.76257,321.11198 475.01338,218.64151 603.13196,220.35637 z"
         style="fill:#535353;fill-opacity:1;stroke:none" />
    </g>
  </g>
  <g
     inkscape:label="colors"
     inkscape:groupmode="layer"
     id="layer1"
     transform="translate(0,147.88782)"
     sodipodi:insensitive="true">
    <rect
       style="fill:#7d7d7d;fill-opacity:1;stroke:none"
       id="rect3772"
       width="97.14286"
       height="97.14286"
       x="-129.99998"
       y="180.07646"
       rx="0"
       ry="0" />
    <rect
       ry="0"
       rx="0"
       y="72.076462"
       x="-129.99998"
       height="97.14286"
       width="97.14286"
       id="rect3774"
       style="fill:#b0b0b0;fill-opacity:1;stroke:none" />
    <rect
       ry="0"
       rx="0"
       y="288.07648"
       x="-129.99998"
       height="97.14286"
       width="97.14286"
       id="rect3776"
       style="fill:#535353;fill-opacity:1;stroke:none" />
    <rect
       style="fill:#d5d5d5;fill-opacity:1;stroke:none"
       id="rect3778"
       width="97.14286"
       height="97.14286"
       x="-129.99998"
       y="-35.923538"
       rx="0"
       ry="0" />
    <rect
       ry="0"
       rx="0"
       y="-145.92354"
       x="-129.99998"
       height="97.14286"
       width="97.14286"
       id="rect3846"
       style="fill:#ff7f2a;fill-opacity:1;stroke:none" />
  </g>
</svg>
