<svg xmlns="http://www.w3.org/2000/svg" width="80.378" height="80.063"><g transform="translate(-61.488 -34.249)"><rect width=".903" height="80.049" x="61.488" y="34.262" ry="0" opacity=".3" fill="#ff3131"/><rect ry="0" y="-141.538" x="113.409" height="80.049" width=".903" transform="rotate(90)" opacity=".3" fill="#ff3131"/><rect transform="scale(-1)" width=".903" height="80.049" x="-78.293" y="-114.298" ry="0" opacity=".3" fill="#6c6cff"/><rect ry="0" y="-114.298" x="-94.293" height="80.049" width=".903" transform="scale(-1)" opacity=".3" fill="#6c6cff"/><rect transform="scale(-1)" width=".903" height="80.049" x="-110.293" y="-114.298" ry="0" opacity=".3" fill="#6c6cff"/><rect ry="0" y="-114.298" x="-126.293" height="80.049" width=".903" transform="scale(-1)" opacity=".3" fill="#6c6cff"/><rect ry="0" y="61.817" x="-50.283" height="80.049" width=".903" transform="rotate(-90)" opacity=".3" fill="#6c6cff"/><rect transform="rotate(-90)" width=".903" height="80.049" x="-66.283" y="61.817" ry="0" opacity=".3" fill="#6c6cff"/><rect ry="0" y="61.817" x="-82.283" height="80.049" width=".903" transform="rotate(-90)" opacity=".3" fill="#6c6cff"/><rect transform="rotate(-90)" width=".903" height="80.049" x="-98.283" y="61.817" ry="0" opacity=".3" fill="#6c6cff"/></g></svg>