<?xml version="1.0" encoding="UTF-8" standalone="no"?>
<!-- Created with Inkscape (http://www.inkscape.org/) -->

<svg
   xmlns:dc="http://purl.org/dc/elements/1.1/"
   xmlns:cc="http://creativecommons.org/ns#"
   xmlns:rdf="http://www.w3.org/1999/02/22-rdf-syntax-ns#"
   xmlns:svg="http://www.w3.org/2000/svg"
   xmlns="http://www.w3.org/2000/svg"
   xmlns:sodipodi="http://sodipodi.sourceforge.net/DTD/sodipodi-0.dtd"
   xmlns:inkscape="http://www.inkscape.org/namespaces/inkscape"
   width="700"
   height="700"
   id="svg5764"
   version="1.1"
   inkscape:version="0.48.4 r9939"
   sodipodi:docname="goal-love.svg">
  <defs
     id="defs5766" />
  <sodipodi:namedview
     id="base"
     pagecolor="#ffffff"
     bordercolor="#666666"
     borderopacity="1.0"
     inkscape:pageopacity="0.0"
     inkscape:pageshadow="2"
     inkscape:zoom="0.98994949"
     inkscape:cx="72.153926"
     inkscape:cy="434.1396"
     inkscape:document-units="px"
     inkscape:current-layer="layer1"
     showgrid="false"
     borderlayer="true"
     inkscape:window-width="1920"
     inkscape:window-height="1056"
     inkscape:window-x="1920"
     inkscape:window-y="24"
     inkscape:window-maximized="1" />
  <metadata
     id="metadata5769">
    <rdf:RDF>
      <cc:Work
         rdf:about="">
        <dc:format>image/svg+xml</dc:format>
        <dc:type
           rdf:resource="http://purl.org/dc/dcmitype/StillImage" />
        <dc:title></dc:title>
      </cc:Work>
    </rdf:RDF>
  </metadata>
  <g
     inkscape:label="Capa 1"
     inkscape:groupmode="layer"
     id="layer1"
     transform="translate(0,-352.36218)">
    <path
       sodipodi:type="arc"
       style="fill:#ee82ee;fill-opacity:1;stroke:none"
       id="path4989"
       sodipodi:cx="319"
       sodipodi:cy="1121"
       sodipodi:rx="76"
       sodipodi:ry="76"
       d="m 395,1121 c 0,41.9736 -34.02636,76 -76,76 -41.97364,0 -76,-34.0264 -76,-76 0,-41.9736 34.02636,-76 76,-76 41.97364,0 76,34.0264 76,76 z"
       transform="matrix(4.6052632,0,0,4.6052632,-1119.079,-4460.1378)" />
    <g
       id="g3799"
       transform="matrix(1.0506478,0,0,1.0506478,-230.83688,-322.4202)"
       style="fill:#9932cc">
      <path
         style="fill:#9932cc"
         d="m 348.9375,98.125 c -26.39017,0.229761 -52.62058,8.18818 -76.09375,23.71875 -13.43134,8.88659 -33.27298,28.52209 -42.40625,42 -3.60512,5.32005 -7.02498,9.96097 -7.59375,10.3125 -0.56877,0.35152 -4.11571,-0.5773 -7.90625,-2.09375 -12.20911,-4.88442 -24.81141,-7.12681 -36.6875,-6.5 -48.60858,2.56548 -87.496912,42.55345 -95.6875,98.40625 -4.86307,33.16205 3.237348,67.49612 22.21875,94.1875 9.73532,13.68967 27.46117,28.25699 41.40625,34.03125 8.63136,3.57409 8.94539,4.02805 7.03125,10.09375 -3.55132,11.25391 -4.35846,17.10138 -4.34375,30.84375 0.0248,23.21722 3.55142,37.76048 14.6875,60.40625 17.78148,36.15941 49.91356,66.64723 91.375,86.6875 25.70244,12.42317 49.90144,18.89655 80.375,21.46875 8.61116,0.72684 37.14151,-0.46281 46.75,-1.9375 19.51805,-2.99582 34.85789,-7.33356 53.46875,-15.09375 58.06965,-24.21344 102.5214,-73.60118 113.65625,-126.3125 2.86739,-13.57395 2.69768,-36.53499 -0.375,-48.84375 -1.29826,-5.20071 -2.65081,-10.31548 -2.96875,-11.34375 -0.46245,-1.49581 1.01738,-2.57464 7.28125,-5.46875 46.26592,-21.37614 72.37379,-74.10075 64.21875,-129.625 -7.93938,-54.05583 -46.75674,-94.32872 -93.96875,-97.5 -11.03482,-0.74122 -21.87543,0.86183 -33.59375,5 -4.92156,1.73798 -9.87536,3.26108 -11,3.375 -1.50071,0.15201 -3.8687,-2.45592 -8.90625,-9.78125 -14.38729,-20.92117 -38.91023,-42.24045 -60.3125,-52.4375 -19.48766,-9.28484 -40.09931,-13.772453 -60.625,-13.59375 z m 44.25,43.96875 c 1.19068,0 5.35333,1.88047 9.25,4.15625 29.95794,17.49639 51.8438,47.46772 60.5,82.875 6.0861,24.89451 6.19366,46.79431 0.375,72.15625 -2.11116,9.20195 -9.21098,28.36074 -12.0625,32.53125 -2.77656,4.06085 -1.76445,6.17265 4.625,9.6875 22.43932,12.34392 43.97364,33.86877 53.21875,53.15625 19.46343,40.60544 5.45367,88.33152 -37.03125,126.125 -24.68935,21.96306 -58.04509,37.59954 -92.46875,43.34375 -9.17672,1.53132 -35.97218,2.69087 -43.75,1.90625 -57.33751,-5.78382 -106.62184,-33.54883 -134.59375,-75.8125 -23.05902,-34.84064 -25.22263,-71.00965 -6.15625,-103.0625 9.46021,-15.90369 27.86302,-33.23975 47.5625,-44.78125 3.6487,-2.1377 6.91871,-4.57416 7.25,-5.4375 0.33129,-0.86333 -0.42507,-3.59731 -1.65625,-6.0625 -12.8909,-25.81154 -18.37731,-57.11507 -14.8125,-84.3125 4.20437,-32.07694 16.37017,-58.66863 36.875,-80.625 9.99329,-10.70071 27.62025,-23.75 32.125,-23.75 0.92269,0 4.78216,1.75979 8.59375,3.875 18.02061,10.00033 29.20385,20.6779 34.96875,33.5 1.92965,4.29185 3.76588,7.81187 4.09375,7.8125 0.32787,6.3e-4 1.41896,-2.64382 2.4375,-5.875 2.06578,-6.55342 6.34526,-14.24749 11.4375,-20.59375 6.09694,-7.59837 24.63989,-20.8125 29.21875,-20.8125 z m -212.21875,56.875 c 1.96306,-0.04 3.89204,0.0592 5.78125,0.28125 7.11979,0.83679 18.76089,4.44292 20.3125,6.3125 0.95676,1.15283 0.41831,4.84005 -2.4375,16.5625 -7.85921,32.2604 -7.69164,57.2616 0.625,90.59375 l 3.375,13.5625 -4.6875,3.78125 c -8.48774,6.82207 -22.11315,20.47081 -27.625,27.6875 -6.12158,8.01501 -6.75037,8.2059 -15.59375,4.53125 -28.56748,-11.8705 -47.59494,-46.94946 -45.65625,-84.125 1.31754,-25.26461 10.06911,-45.89802 26.15625,-61.6875 10.86303,-10.66203 26.00855,-17.22016 39.75,-17.5 z m 336.625,0.4375 c 5.98203,-0.11206 11.90361,0.47566 16.15625,1.8125 13.49427,4.24201 25.83513,13.66001 34.625,26.375 30.46112,44.06357 17.79047,110.96959 -25.09375,132.4375 -5.2847,2.64552 -10.62762,4.8125 -11.875,4.8125 -1.56456,0 -3.9509,-2.20141 -7.6875,-7.09375 -5.51016,-7.21449 -19.14453,-20.87158 -27.625,-27.6875 l -4.65625,-3.78125 3.875,-16.1875 c 8.00619,-33.25235 7.88395,-58.95638 -0.4375,-90.40625 -2.60741,-9.85439 -3.03324,-12.76143 -2.03125,-13.96875 0.69493,-0.83735 4.42446,-2.57194 8.28125,-3.875 4.43866,-1.49965 10.48672,-2.32544 16.46875,-2.4375 z"
         transform="matrix(0.95179374,0,0,0.95179374,219.7091,642.25365)"
         id="path3801"
         inkscape:connector-curvature="0"
         sodipodi:nodetypes="ssscsssssssssscssscsssssssssssssssssssssssssssssssssssscccssssssssssscccssss" />
      <path
         sodipodi:type="arc"
         style="fill:#9932cc;fill-opacity:1;stroke:none"
         id="path3852"
         sodipodi:cx="429.81992"
         sodipodi:cy="461.09894"
         sodipodi:rx="56.063465"
         sodipodi:ry="56.063465"
         d="m 485.88338,461.09894 a 56.063465,56.063465 0 1 1 -112.12693,0 56.063465,56.063465 0 1 1 112.12693,0 z"
         transform="matrix(0.95179374,0,0,0.95179374,188.94248,625.90888)" />
      <g
         transform="matrix(1.2722794,0,0,1.2722794,397.51582,855.97229)"
         id="g3"
         style="fill:#9932cc">
        <rect
           id="rect5"
           y="6"
           x="53"
           width="7"
           height="7"
           style="fill:#9932cc" />
        <rect
           id="rect7"
           y="6"
           x="60"
           width="8"
           height="7"
           style="fill:#9932cc" />
        <rect
           id="rect9"
           y="6"
           x="68"
           width="6"
           height="7"
           style="fill:#9932cc" />
        <rect
           id="rect11"
           y="13"
           x="45"
           width="8"
           height="8"
           style="fill:#9932cc" />
        <rect
           id="rect13"
           y="13"
           x="53"
           width="7"
           height="8"
           style="fill:#9932cc" />
        <rect
           id="rect15"
           y="13"
           x="68"
           width="6"
           height="8"
           style="fill:#9932cc" />
        <rect
           id="rect17"
           y="13"
           x="74"
           width="9"
           height="8"
           style="fill:#9932cc" />
        <rect
           id="rect19"
           y="13"
           x="83"
           width="7"
           height="8"
           style="fill:#9932cc" />
        <rect
           id="rect21"
           y="13"
           x="90"
           width="8"
           height="8"
           style="fill:#9932cc" />
        <rect
           id="rect23"
           y="13"
           x="98"
           width="7"
           height="8"
           style="fill:#9932cc" />
        <rect
           id="rect25"
           y="13"
           x="105"
           width="8"
           height="8"
           style="fill:#9932cc" />
        <rect
           id="rect27"
           y="21"
           x="45"
           width="8"
           height="7"
           style="fill:#9932cc" />
        <rect
           id="rect29"
           y="21"
           x="60"
           width="8"
           height="7"
           style="fill:#9932cc" />
        <rect
           id="rect31"
           y="21"
           x="68"
           width="6"
           height="7"
           style="fill:#9932cc" />
        <rect
           id="rect33"
           y="21"
           x="74"
           width="9"
           height="7"
           style="fill:#9932cc" />
        <rect
           id="rect35"
           y="21"
           x="83"
           width="7"
           height="7"
           style="fill:#9932cc" />
        <rect
           id="rect37"
           y="21"
           x="90"
           width="8"
           height="7"
           style="fill:#9932cc" />
        <rect
           id="rect39"
           y="21"
           x="98"
           width="7"
           height="7"
           style="fill:#9932cc" />
        <rect
           id="rect41"
           y="21"
           x="105"
           width="8"
           height="7"
           style="fill:#9932cc" />
        <rect
           id="rect43"
           y="28"
           x="45"
           width="8"
           height="9"
           style="fill:#9932cc" />
        <rect
           id="rect45"
           y="28"
           x="53"
           width="7"
           height="9"
           style="fill:#9932cc" />
        <rect
           id="rect47"
           y="28"
           x="60"
           width="8"
           height="9"
           style="fill:#9932cc" />
        <rect
           id="rect49"
           y="28"
           x="68"
           width="6"
           height="9"
           style="fill:#9932cc" />
        <rect
           id="rect51"
           y="28"
           x="74"
           width="9"
           height="9"
           style="fill:#9932cc" />
        <rect
           id="rect53"
           y="28"
           x="83"
           width="7"
           height="9"
           style="fill:#9932cc" />
        <rect
           id="rect55"
           y="28"
           x="90"
           width="8"
           height="9"
           style="fill:#9932cc" />
        <rect
           id="rect57"
           y="28"
           x="98"
           width="7"
           height="9"
           style="fill:#9932cc" />
        <rect
           id="rect59"
           y="28"
           x="105"
           width="8"
           height="9"
           style="fill:#9932cc" />
        <rect
           id="rect61"
           y="37"
           x="53"
           width="7"
           height="6"
           style="fill:#9932cc" />
        <rect
           id="rect63"
           y="37"
           x="60"
           width="8"
           height="6"
           style="fill:#9932cc" />
        <rect
           id="rect65"
           y="37"
           x="68"
           width="6"
           height="6"
           style="fill:#9932cc" />
        <rect
           id="rect67"
           y="37"
           x="74"
           width="9"
           height="6"
           style="fill:#9932cc" />
        <rect
           id="rect69"
           y="37"
           x="83"
           width="7"
           height="6"
           style="fill:#9932cc" />
        <rect
           id="rect71"
           y="37"
           x="90"
           width="8"
           height="6"
           style="fill:#9932cc" />
        <rect
           id="rect73"
           y="37"
           x="98"
           width="7"
           height="6"
           style="fill:#9932cc" />
        <rect
           id="rect75"
           y="43"
           x="60"
           width="8"
           height="8"
           style="fill:#9932cc" />
        <rect
           id="rect77"
           y="43"
           x="68"
           width="6"
           height="8"
           style="fill:#9932cc" />
        <rect
           id="rect79"
           y="43"
           x="74"
           width="9"
           height="8"
           style="fill:#9932cc" />
        <rect
           id="rect81"
           y="43"
           x="83"
           width="7"
           height="8"
           style="fill:#9932cc" />
        <rect
           id="rect83"
           y="51"
           x="68"
           width="6"
           height="7"
           style="fill:#9932cc" />
        <rect
           id="rect85"
           y="51"
           x="74"
           width="9"
           height="7"
           style="fill:#9932cc" />
        <rect
           id="rect87"
           y="58"
           x="74"
           width="9"
           height="8"
           style="fill:#9932cc" />
        <rect
           id="rect89"
           y="51"
           x="83"
           width="7"
           height="7"
           style="fill:#9932cc" />
        <rect
           id="rect91"
           y="43"
           x="90"
           width="8"
           height="8"
           style="fill:#9932cc" />
        <rect
           id="rect93"
           y="6"
           x="83"
           width="7"
           height="7"
           style="fill:#9932cc" />
        <rect
           id="rect95"
           y="6"
           x="90"
           width="8"
           height="7"
           style="fill:#9932cc" />
        <rect
           id="rect97"
           y="6"
           x="98"
           width="7"
           height="7"
           style="fill:#9932cc" />
      </g>
      <g
         id="g4068"
         transform="matrix(1.2722794,0,0,1.2722794,507.92386,855.97229)"
         style="fill:#9932cc">
        <rect
           height="7"
           width="7"
           x="53"
           y="6"
           id="rect4070"
           style="fill:#9932cc" />
        <rect
           height="7"
           width="8"
           x="60"
           y="6"
           id="rect4072"
           style="fill:#9932cc" />
        <rect
           height="7"
           width="6"
           x="68"
           y="6"
           id="rect4074"
           style="fill:#9932cc" />
        <rect
           height="8"
           width="8"
           x="45"
           y="13"
           id="rect4076"
           style="fill:#9932cc" />
        <rect
           height="8"
           width="7"
           x="53"
           y="13"
           id="rect4078"
           style="fill:#9932cc" />
        <rect
           height="8"
           width="6"
           x="68"
           y="13"
           id="rect4080"
           style="fill:#9932cc" />
        <rect
           height="8"
           width="9"
           x="74"
           y="13"
           id="rect4082"
           style="fill:#9932cc" />
        <rect
           height="8"
           width="7"
           x="83"
           y="13"
           id="rect4084"
           style="fill:#9932cc" />
        <rect
           height="8"
           width="8"
           x="90"
           y="13"
           id="rect4086"
           style="fill:#9932cc" />
        <rect
           height="8"
           width="7"
           x="98"
           y="13"
           id="rect4088"
           style="fill:#9932cc" />
        <rect
           height="8"
           width="8"
           x="105"
           y="13"
           id="rect4090"
           style="fill:#9932cc" />
        <rect
           height="7"
           width="8"
           x="45"
           y="21"
           id="rect4092"
           style="fill:#9932cc" />
        <rect
           height="7"
           width="8"
           x="60"
           y="21"
           id="rect4094"
           style="fill:#9932cc" />
        <rect
           height="7"
           width="6"
           x="68"
           y="21"
           id="rect4096"
           style="fill:#9932cc" />
        <rect
           height="7"
           width="9"
           x="74"
           y="21"
           id="rect4098"
           style="fill:#9932cc" />
        <rect
           height="7"
           width="7"
           x="83"
           y="21"
           id="rect4100"
           style="fill:#9932cc" />
        <rect
           height="7"
           width="8"
           x="90"
           y="21"
           id="rect4102"
           style="fill:#9932cc" />
        <rect
           height="7"
           width="7"
           x="98"
           y="21"
           id="rect4104"
           style="fill:#9932cc" />
        <rect
           height="7"
           width="8"
           x="105"
           y="21"
           id="rect4106"
           style="fill:#9932cc" />
        <rect
           height="9"
           width="8"
           x="45"
           y="28"
           id="rect4108"
           style="fill:#9932cc" />
        <rect
           height="9"
           width="7"
           x="53"
           y="28"
           id="rect4110"
           style="fill:#9932cc" />
        <rect
           height="9"
           width="8"
           x="60"
           y="28"
           id="rect4112"
           style="fill:#9932cc" />
        <rect
           height="9"
           width="6"
           x="68"
           y="28"
           id="rect4114"
           style="fill:#9932cc" />
        <rect
           height="9"
           width="9"
           x="74"
           y="28"
           id="rect4116"
           style="fill:#9932cc" />
        <rect
           height="9"
           width="7"
           x="83"
           y="28"
           id="rect4118"
           style="fill:#9932cc" />
        <rect
           height="9"
           width="8"
           x="90"
           y="28"
           id="rect4120"
           style="fill:#9932cc" />
        <rect
           height="9"
           width="7"
           x="98"
           y="28"
           id="rect4122"
           style="fill:#9932cc" />
        <rect
           height="9"
           width="8"
           x="105"
           y="28"
           id="rect4124"
           style="fill:#9932cc" />
        <rect
           height="6"
           width="7"
           x="53"
           y="37"
           id="rect4126"
           style="fill:#9932cc" />
        <rect
           height="6"
           width="8"
           x="60"
           y="37"
           id="rect4128"
           style="fill:#9932cc" />
        <rect
           height="6"
           width="6"
           x="68"
           y="37"
           id="rect4130"
           style="fill:#9932cc" />
        <rect
           height="6"
           width="9"
           x="74"
           y="37"
           id="rect4132"
           style="fill:#9932cc" />
        <rect
           height="6"
           width="7"
           x="83"
           y="37"
           id="rect4134"
           style="fill:#9932cc" />
        <rect
           height="6"
           width="8"
           x="90"
           y="37"
           id="rect4136"
           style="fill:#9932cc" />
        <rect
           height="6"
           width="7"
           x="98"
           y="37"
           id="rect4138"
           style="fill:#9932cc" />
        <rect
           height="8"
           width="8"
           x="60"
           y="43"
           id="rect4140"
           style="fill:#9932cc" />
        <rect
           height="8"
           width="6"
           x="68"
           y="43"
           id="rect4142"
           style="fill:#9932cc" />
        <rect
           height="8"
           width="9"
           x="74"
           y="43"
           id="rect4144"
           style="fill:#9932cc" />
        <rect
           height="8"
           width="7"
           x="83"
           y="43"
           id="rect4146"
           style="fill:#9932cc" />
        <rect
           height="7"
           width="6"
           x="68"
           y="51"
           id="rect4148"
           style="fill:#9932cc" />
        <rect
           height="7"
           width="9"
           x="74"
           y="51"
           id="rect4150"
           style="fill:#9932cc" />
        <rect
           height="8"
           width="9"
           x="74"
           y="58"
           id="rect4152"
           style="fill:#9932cc" />
        <rect
           height="7"
           width="7"
           x="83"
           y="51"
           id="rect4154"
           style="fill:#9932cc" />
        <rect
           height="8"
           width="8"
           x="90"
           y="43"
           id="rect4156"
           style="fill:#9932cc" />
        <rect
           height="7"
           width="7"
           x="83"
           y="6"
           id="rect4158"
           style="fill:#9932cc" />
        <rect
           height="7"
           width="8"
           x="90"
           y="6"
           id="rect4160"
           style="fill:#9932cc" />
        <rect
           height="7"
           width="7"
           x="98"
           y="6"
           id="rect4162"
           style="fill:#9932cc" />
      </g>
    </g>
  </g>
</svg>
