<?xml version="1.0" encoding="UTF-8" standalone="no"?>
<svg
   xmlns:dc="http://purl.org/dc/elements/1.1/"
   xmlns:cc="http://creativecommons.org/ns#"
   xmlns:rdf="http://www.w3.org/1999/02/22-rdf-syntax-ns#"
   xmlns:svg="http://www.w3.org/2000/svg"
   xmlns="http://www.w3.org/2000/svg"
   xmlns:sodipodi="http://sodipodi.sourceforge.net/DTD/sodipodi-0.dtd"
   xmlns:inkscape="http://www.inkscape.org/namespaces/inkscape"
   enable-background="new 0 0 160 80"
   id="Layer_1"
   version="1.1"
   viewBox="0 0 68 60"
   xml:space="preserve"
   inkscape:version="0.48.4 r9939"
   width="100%"
   height="100%"
   sodipodi:docname="heart.svg"><metadata
     id="metadata103"><rdf:RDF><cc:Work
         rdf:about=""><dc:format>image/svg+xml</dc:format><dc:type
           rdf:resource="http://purl.org/dc/dcmitype/StillImage" /></cc:Work></rdf:RDF></metadata><defs
     id="defs101" /><sodipodi:namedview
     pagecolor="#ffffff"
     bordercolor="#666666"
     borderopacity="1"
     objecttolerance="10"
     gridtolerance="10"
     guidetolerance="10"
     inkscape:pageopacity="0"
     inkscape:pageshadow="2"
     inkscape:window-width="1920"
     inkscape:window-height="1056"
     id="namedview99"
     showgrid="false"
     fit-margin-top="0"
     fit-margin-left="0"
     fit-margin-right="0"
     fit-margin-bottom="0"
     borderlayer="true"
     inkscape:zoom="1"
     inkscape:cx="35.028433"
     inkscape:cy="25.874681"
     inkscape:window-x="1920"
     inkscape:window-y="24"
     inkscape:window-maximized="1"
     inkscape:current-layer="Layer_1" /><g
     id="g3"
     transform="translate(-45,-6)"><rect
       height="7"
       width="7"
       x="53"
       y="6"
       id="rect5" /><rect
       height="7"
       width="8"
       x="60"
       y="6"
       id="rect7" /><rect
       height="7"
       width="6"
       x="68"
       y="6"
       id="rect9" /><rect
       height="8"
       width="8"
       x="45"
       y="13"
       id="rect11" /><rect
       height="8"
       width="7"
       x="53"
       y="13"
       id="rect13" /><rect
       height="8"
       width="6"
       x="68"
       y="13"
       id="rect15" /><rect
       height="8"
       width="9"
       x="74"
       y="13"
       id="rect17" /><rect
       height="8"
       width="7"
       x="83"
       y="13"
       id="rect19" /><rect
       height="8"
       width="8"
       x="90"
       y="13"
       id="rect21" /><rect
       height="8"
       width="7"
       x="98"
       y="13"
       id="rect23" /><rect
       height="8"
       width="8"
       x="105"
       y="13"
       id="rect25" /><rect
       height="7"
       width="8"
       x="45"
       y="21"
       id="rect27" /><rect
       height="7"
       width="8"
       x="60"
       y="21"
       id="rect29" /><rect
       height="7"
       width="6"
       x="68"
       y="21"
       id="rect31" /><rect
       height="7"
       width="9"
       x="74"
       y="21"
       id="rect33" /><rect
       height="7"
       width="7"
       x="83"
       y="21"
       id="rect35" /><rect
       height="7"
       width="8"
       x="90"
       y="21"
       id="rect37" /><rect
       height="7"
       width="7"
       x="98"
       y="21"
       id="rect39" /><rect
       height="7"
       width="8"
       x="105"
       y="21"
       id="rect41" /><rect
       height="9"
       width="8"
       x="45"
       y="28"
       id="rect43" /><rect
       height="9"
       width="7"
       x="53"
       y="28"
       id="rect45" /><rect
       height="9"
       width="8"
       x="60"
       y="28"
       id="rect47" /><rect
       height="9"
       width="6"
       x="68"
       y="28"
       id="rect49" /><rect
       height="9"
       width="9"
       x="74"
       y="28"
       id="rect51" /><rect
       height="9"
       width="7"
       x="83"
       y="28"
       id="rect53" /><rect
       height="9"
       width="8"
       x="90"
       y="28"
       id="rect55" /><rect
       height="9"
       width="7"
       x="98"
       y="28"
       id="rect57" /><rect
       height="9"
       width="8"
       x="105"
       y="28"
       id="rect59" /><rect
       height="6"
       width="7"
       x="53"
       y="37"
       id="rect61" /><rect
       height="6"
       width="8"
       x="60"
       y="37"
       id="rect63" /><rect
       height="6"
       width="6"
       x="68"
       y="37"
       id="rect65" /><rect
       height="6"
       width="9"
       x="74"
       y="37"
       id="rect67" /><rect
       height="6"
       width="7"
       x="83"
       y="37"
       id="rect69" /><rect
       height="6"
       width="8"
       x="90"
       y="37"
       id="rect71" /><rect
       height="6"
       width="7"
       x="98"
       y="37"
       id="rect73" /><rect
       height="8"
       width="8"
       x="60"
       y="43"
       id="rect75" /><rect
       height="8"
       width="6"
       x="68"
       y="43"
       id="rect77" /><rect
       height="8"
       width="9"
       x="74"
       y="43"
       id="rect79" /><rect
       height="8"
       width="7"
       x="83"
       y="43"
       id="rect81" /><rect
       height="7"
       width="6"
       x="68"
       y="51"
       id="rect83" /><rect
       height="7"
       width="9"
       x="74"
       y="51"
       id="rect85" /><rect
       height="8"
       width="9"
       x="74"
       y="58"
       id="rect87" /><rect
       height="7"
       width="7"
       x="83"
       y="51"
       id="rect89" /><rect
       height="8"
       width="8"
       x="90"
       y="43"
       id="rect91" /><rect
       height="7"
       width="7"
       x="83"
       y="6"
       id="rect93" /><rect
       height="7"
       width="8"
       x="90"
       y="6"
       id="rect95" /><rect
       height="7"
       width="7"
       x="98"
       y="6"
       id="rect97" /></g></svg>