<?xml version="1.0" encoding="UTF-8" standalone="no"?>
<!-- Created with Inkscape (http://www.inkscape.org/) -->

<svg
   xmlns:dc="http://purl.org/dc/elements/1.1/"
   xmlns:cc="http://creativecommons.org/ns#"
   xmlns:rdf="http://www.w3.org/1999/02/22-rdf-syntax-ns#"
   xmlns:svg="http://www.w3.org/2000/svg"
   xmlns="http://www.w3.org/2000/svg"
   xmlns:sodipodi="http://sodipodi.sourceforge.net/DTD/sodipodi-0.dtd"
   xmlns:inkscape="http://www.inkscape.org/namespaces/inkscape"
   width="700"
   height="700"
   id="svg5764"
   version="1.1"
   inkscape:version="0.48.4 r9939"
   sodipodi:docname="tool.svg">
  <defs
     id="defs5766" />
  <sodipodi:namedview
     id="base"
     pagecolor="#ffffff"
     bordercolor="#666666"
     borderopacity="1.0"
     inkscape:pageopacity="0.0"
     inkscape:pageshadow="2"
     inkscape:zoom="0.98994949"
     inkscape:cx="170.28623"
     inkscape:cy="340.88794"
     inkscape:document-units="px"
     inkscape:current-layer="layer1-5"
     showgrid="false"
     borderlayer="true"
     inkscape:window-width="1920"
     inkscape:window-height="1056"
     inkscape:window-x="1920"
     inkscape:window-y="24"
     inkscape:window-maximized="1" />
  <metadata
     id="metadata5769">
    <rdf:RDF>
      <cc:Work
         rdf:about="">
        <dc:format>image/svg+xml</dc:format>
        <dc:type
           rdf:resource="http://purl.org/dc/dcmitype/StillImage" />
        <dc:title />
      </cc:Work>
    </rdf:RDF>
  </metadata>
  <g
     inkscape:label="Capa 1"
     inkscape:groupmode="layer"
     id="layer1"
     transform="translate(0,-352.36218)">
    <g
       id="g5879"
       transform="matrix(1.1911394,0,0,1.1911394,-55.16395,191.8626)"
       style="fill:#6bcfef;fill-opacity:1">
      <title
         id="title5881">Layer 1</title>
      <g
         id="layer1-5"
         style="fill:#6bcfef;fill-opacity:1">
        <path
           style="fill:#6bcfef;fill-opacity:1;stroke:none"
           d="M 350 0 C 156.70034 0 7.5791225e-14 156.70034 0 350 C 0 543.29966 156.70034 700 350 700 C 543.29966 700 700 543.29966 700 350 C 700 156.70034 543.29966 7.5791225e-14 350 0 z "
           transform="matrix(0.8395323,0,0,0.8395323,46.311918,134.74458)"
           id="path4989" />
        <g
           id="g3804"
           transform="matrix(-0.93473804,0,0,0.93473804,706.10441,-17.576601)"
           style="fill:#ffffff">
          <path
             style="fill:#ffffff"
             d="m 497.67142,677.44005 c -3.70089,-1.92432 -304.13093,-302.35767 -306.06508,-306.06847 -1.96086,-3.76202 -2.0601,-7.2219 -0.32683,-11.3941 0.87842,-2.11447 11.90903,-13.7503 34.19664,-36.07293 18.09497,-18.1234 33.29062,-32.95164 33.76809,-32.95164 0.47748,0 15.77541,14.92492 33.99541,33.1665 l 33.12727,33.1665 -8.58525,8.61457 c -4.72189,4.73801 -8.58525,9.0001 -8.58525,9.47132 0,1.09156 7.75758,8.7692 8.86051,8.7692 0.455,0 4.40135,-3.589 8.76967,-7.97556 4.36831,-4.38656 8.54397,-7.97556 9.27924,-7.97556 0.73526,0 4.48451,3.22483 8.33167,7.16628 l 6.99483,7.16628 -8.52497,8.66313 c -4.68874,4.76472 -8.52498,9.01544 -8.52498,9.44604 0,1.03912 7.80165,8.69536 8.86051,8.69536 0.455,0 4.40135,-3.589 8.76967,-7.97556 4.36831,-4.38656 8.54397,-7.97556 9.27924,-7.97556 0.73526,0 4.48451,3.22483 8.33167,7.16628 l 6.99483,7.16628 -8.52497,8.66313 c -4.68874,4.76472 -8.52498,9.01544 -8.52498,9.44604 0,1.03912 7.80165,8.69536 8.8605,8.69536 0.45501,0 4.40136,-3.589 8.76968,-7.97556 4.36831,-4.38656 8.54397,-7.97556 9.27924,-7.97556 0.73526,0 4.47188,3.21188 8.30358,7.1375 8.07917,8.2772 8.37819,6.38247 -2.81412,17.83102 l -7.58446,7.75812 4.142,4.20522 c 2.27809,2.31288 4.64887,4.20523 5.2684,4.20523 0.61954,0 4.82507,-3.589 9.34562,-7.97556 4.52056,-4.38656 8.56969,-7.97556 8.99807,-7.97556 0.9863,0 14.59407,13.63304 14.59407,14.62118 0,0.4036 -3.85389,4.65016 -8.56419,9.4368 l -8.56419,8.70298 4.12508,4.18806 c 2.26881,2.30343 4.71344,4.18807 5.43253,4.18807 0.7191,0 4.88152,-3.589 9.24984,-7.97556 4.36831,-4.38656 8.33598,-7.97556 8.81704,-7.97556 1.05197,0 14.68986,13.57413 14.68986,14.62118 0,0.4036 -3.82062,4.61635 -8.49026,9.36167 l -8.49026,8.62785 3.98772,4.26319 c 2.19324,2.34476 4.60461,4.2632 5.35859,4.2632 0.75398,0 4.94496,-3.58901 9.31328,-7.97556 4.36831,-4.38656 8.33598,-7.97556 8.81704,-7.97556 1.05197,0 14.68986,13.57413 14.68986,14.62118 0,0.4036 -3.82062,4.61635 -8.49026,9.36167 l -8.49026,8.62785 3.98772,4.26319 c 2.19324,2.34475 4.60461,4.2632 5.35859,4.2632 0.75398,0 4.94496,-3.58901 9.31328,-7.97556 4.36831,-4.38656 8.33598,-7.97556 8.81704,-7.97556 1.0975,0 14.68986,13.59713 14.68986,14.69502 0,0.44421 -3.82816,4.6489 -8.50703,9.34374 l -8.50703,8.53609 4.00448,4.28112 c 2.20248,2.35462 4.62139,4.28112 5.37537,4.28112 0.75398,0 4.94496,-3.58901 9.31328,-7.97556 4.36831,-4.38656 8.33598,-7.97556 8.81704,-7.97556 1.11645,0 14.68986,13.60675 14.68986,14.72594 0,0.46121 -3.589,4.41265 -7.97556,8.78097 -4.38655,4.36831 -7.97555,8.53232 -7.97555,9.25335 0,1.65424 6.77623,8.37682 8.44368,8.37682 0.68426,0 4.81818,-3.589 9.1865,-7.97555 4.36831,-4.38656 8.33598,-7.97556 8.81704,-7.97556 1.11645,0 14.68986,13.60675 14.68986,14.72593 0,0.46122 -3.589,4.41266 -7.97556,8.78098 -4.38655,4.36831 -7.97555,8.50223 -7.97555,9.18649 0,1.66745 6.72258,8.44368 8.37682,8.44368 0.72103,0 4.88504,-3.589 9.25336,-7.97555 4.36831,-4.38656 8.33598,-7.97556 8.81704,-7.97556 1.11505,0 14.68986,13.60604 14.68986,14.72366 0,0.45996 -14.82824,15.64128 -32.95164,33.73625 -22.32263,22.28761 -33.95846,33.31822 -36.07293,34.19664 -3.93063,1.63292 -7.91123,1.60431 -11.15077,-0.0801 z M 252.69555,363.03988 c 4.09777,-2.51845 6.12893,-6.43748 6.12893,-11.82547 0,-7.63927 -4.93871,-13.16203 -12.41229,-13.88014 -8.09986,-0.7783 -14.43322,4.5567 -15.11092,12.72891 -0.96583,11.6466 11.37708,19.13318 21.39428,12.9767 z m -52.63833,305.70257 c -0.92349,-0.92348 -1.67907,-2.48835 -1.67907,-3.47748 0,-0.98914 4.19859,-17.51743 9.33021,-36.72954 12.17392,-45.5776 13.64282,-50.70428 14.62136,-51.03045 1.36859,-0.4562 69.71541,68.42871 68.79385,69.33545 -0.44915,0.44192 -8.75021,2.93374 -18.44681,5.53737 -52.19199,14.0141 -67.64895,18.04372 -69.21265,18.04372 -0.95031,0 -2.48341,-0.75558 -3.40689,-1.67907 z m 64.23427,-62.96499 c -19.16786,-19.14729 -34.85064,-35.38774 -34.85064,-36.0899 0,-1.38654 70.40902,-72.2097 71.78747,-72.2097 1.0973,0 70.09349,69.01083 70.09349,70.10836 0,0.4617 -16.24043,17.07658 -36.08984,36.92197 l -36.08985,36.08252 -34.85063,-34.81325 z M 426.0975,442.69463 c -19.0448,-19.04895 -34.62691,-35.01183 -34.62691,-35.47305 0,-1.37461 93.50251,-94.44083 94.88356,-94.44083 0.69858,0 16.93631,15.68298 36.08384,34.85108 l 34.81369,34.85107 -47.41751,47.42309 c -26.07965,26.0827 -47.79828,47.4231 -48.26364,47.4231 -0.46536,0 -16.42822,-15.58551 -35.47303,-34.63446 z M 536.07623,332.71589 c -19.0448,-19.04895 -34.62691,-35.01672 -34.62691,-35.48393 0,-1.46809 18.77245,-19.58336 21.25284,-20.50883 3.52687,-1.31592 6.99045,-1.07271 10.47295,0.73541 1.71314,0.88947 15.45462,14.01766 30.53662,29.17375 29.62848,29.77403 30.21258,30.5383 28.85825,37.75982 -0.49572,2.6433 -2.37335,5.01909 -10.34823,13.09374 -5.35844,5.42547 -10.14222,9.8645 -10.63061,9.8645 -0.48839,0 -16.4701,-15.58551 -35.51491,-34.63446 z"
             id="path3806"
             inkscape:connector-curvature="0" />
        </g>
      </g>
    </g>
    <g
       id="g3054"
       transform="translate(-475.78185,-131.31983)" />
  </g>
</svg>
