<?xml version="1.0" encoding="UTF-8" standalone="no"?>
<!-- Created with Inkscape (http://www.inkscape.org/) -->

<svg
   xmlns:dc="http://purl.org/dc/elements/1.1/"
   xmlns:cc="http://creativecommons.org/ns#"
   xmlns:rdf="http://www.w3.org/1999/02/22-rdf-syntax-ns#"
   xmlns:svg="http://www.w3.org/2000/svg"
   xmlns="http://www.w3.org/2000/svg"
   xmlns:sodipodi="http://sodipodi.sourceforge.net/DTD/sodipodi-0.dtd"
   xmlns:inkscape="http://www.inkscape.org/namespaces/inkscape"
   width="700"
   height="700"
   id="svg5764"
   version="1.1"
   inkscape:version="0.48.4 r9939"
   sodipodi:docname="visual.svg">
  <defs
     id="defs5766" />
  <sodipodi:namedview
     id="base"
     pagecolor="#ffffff"
     bordercolor="#666666"
     borderopacity="1.0"
     inkscape:pageopacity="0.0"
     inkscape:pageshadow="2"
     inkscape:zoom="0.98994949"
     inkscape:cx="357.66953"
     inkscape:cy="340.88794"
     inkscape:document-units="px"
     inkscape:current-layer="layer1"
     showgrid="false"
     borderlayer="true"
     inkscape:window-width="1920"
     inkscape:window-height="1056"
     inkscape:window-x="1920"
     inkscape:window-y="24"
     inkscape:window-maximized="1" />
  <metadata
     id="metadata5769">
    <rdf:RDF>
      <cc:Work
         rdf:about="">
        <dc:format>image/svg+xml</dc:format>
        <dc:type
           rdf:resource="http://purl.org/dc/dcmitype/StillImage" />
        <dc:title />
      </cc:Work>
    </rdf:RDF>
  </metadata>
  <g
     inkscape:label="Capa 1"
     inkscape:groupmode="layer"
     id="layer1"
     transform="translate(0,-352.36218)">
    <g
       id="g5879"
       transform="matrix(1.1911394,0,0,1.1911394,-55.16395,191.8626)"
       style="fill:#ffffff">
      <title
         id="title5881">Layer 1</title>
      <g
         id="layer1-5"
         style="fill:#ffffff">
        <path
           style="fill:#ffffff;fill-opacity:1;stroke:none"
           d="M 350 0 C 156.70034 0 0 156.70034 0 350 C 0 543.29966 156.70034 700 350 700 C 543.29966 700 700 543.29966 700 350 C 700 156.70034 543.29966 0 350 0 z M 348.375 178.875 C 400.50846 178.63574 452.81265 193.63696 501.3125 223.65625 C 545.17748 250.80675 594.38675 298.93312 624.71875 344.3125 C 639.82905 366.91875 636.9712 376.00921 604.3125 408.9375 C 545.2489 468.4885 473.85609 506.07014 397.9375 517.5625 C 381.20804 520.0949 342.71542 521.90405 329.6875 520.78125 C 326.34289 520.49295 317.81084 519.59215 310.75 518.78125 C 235.41539 510.13055 156.82489 470.36159 97.25 410.75 C 62.42498 375.90353 59.79301 367.28623 76.28125 342.625 C 90.6885 321.0763 104.75699 304.44988 129.59375 279.625 C 163.373 245.86195 191.11501 225.61104 228.875 207.21875 C 267.36452 188.47112 307.82675 179.06109 348.375 178.875 z M 306.03125 258.09375 C 275.06115 258.09375 250.09375 283.06114 250.09375 314.03125 C 250.09375 357.98882 350 437.90625 350 437.90625 C 350 437.90625 449.90625 357.98882 449.90625 314.03125 C 449.90625 283.06114 424.93882 258.09375 393.96875 258.09375 C 375.9861 258.09375 359.99037 267.07599 350 281.0625 C 340.00965 267.07599 324.0139 258.09375 306.03125 258.09375 z M 458.03125 261.53125 C 457.94105 261.53834 457.86693 261.56011 457.8125 261.59375 C 457.18787 261.97976 458.23758 264.86103 460.15625 267.96875 C 475.55443 292.90942 481.57127 325.59396 476.3125 355.75 C 467.52608 406.13537 430.12691 446.0654 379.6875 458.875 C 364.65383 462.69296 333.11109 462.41793 318 458.34375 C 294.42444 451.98742 275.38555 440.77598 258.0625 423.03125 C 251.34564 416.15087 243.82478 406.67362 239.96875 400.21875 C 232.67172 388.00381 225.15776 367.51035 223 354 C 218.64225 326.71503 224.38227 295.10382 238.125 270.59375 C 240.30724 266.70175 241.85546 262.87892 241.59375 262.09375 C 240.93389 260.11415 221.2611 272.281 202.65625 286.1875 C 177.63255 304.89188 128.34375 356.23851 128.34375 363.59375 C 128.34375 364.7932 133.96873 371.22899 140.84375 377.875 C 191.18216 426.5366 255.84324 458.34807 320.21875 466.125 C 337.13831 468.16899 378.22584 466.84671 395.90625 463.6875 C 442.93129 455.28489 484.86329 436.50723 527.875 404.59375 C 544.9804 391.90216 571.58025 366.92739 571.53125 363.625 C 571.42045 356.15036 522.38229 305.04744 497.25 286.21875 C 480.48288 273.65711 460.82753 261.31161 458.03125 261.53125 z "
           transform="matrix(0.8395323,0,0,0.8395323,46.311918,134.74458)"
           id="path4989" />
      </g>
    </g>
    <g
       id="g3054"
       transform="translate(-475.78185,-131.31983)" />
  </g>
</svg>
