<?xml version="1.0" encoding="UTF-8" standalone="no"?>
<!-- Created with Inkscape (http://www.inkscape.org/) -->

<svg
   xmlns:dc="http://purl.org/dc/elements/1.1/"
   xmlns:cc="http://creativecommons.org/ns#"
   xmlns:rdf="http://www.w3.org/1999/02/22-rdf-syntax-ns#"
   xmlns:svg="http://www.w3.org/2000/svg"
   xmlns="http://www.w3.org/2000/svg"
   xmlns:sodipodi="http://sodipodi.sourceforge.net/DTD/sodipodi-0.dtd"
   xmlns:inkscape="http://www.inkscape.org/namespaces/inkscape"
   width="1200"
   height="1200"
   id="svg4177"
   version="1.1"
   inkscape:version="0.48.4 r9939"
   sodipodi:docname="13affect3.svg">
  <defs
     id="defs4179" />
  <sodipodi:namedview
     id="base"
     pagecolor="#ffffff"
     bordercolor="#666666"
     borderopacity="1.0"
     inkscape:pageopacity="0.0"
     inkscape:pageshadow="2"
     inkscape:zoom="0.5"
     inkscape:cx="327.09755"
     inkscape:cy="648.67357"
     inkscape:document-units="px"
     inkscape:current-layer="layer1"
     showgrid="false"
     showguides="true"
     inkscape:guide-bbox="true"
     inkscape:window-width="1920"
     inkscape:window-height="1056"
     inkscape:window-x="1920"
     inkscape:window-y="24"
     inkscape:window-maximized="1">
    <sodipodi:guide
       orientation="0,1"
       position="674.28571,600"
       id="guide4185" />
    <sodipodi:guide
       orientation="1,0"
       position="600,734.28571"
       id="guide4187" />
    <sodipodi:guide
       orientation="1,0"
       position="300,720"
       id="guide4189" />
    <sodipodi:guide
       orientation="1,0"
       position="900,677.14286"
       id="guide4191" />
    <sodipodi:guide
       orientation="0,1"
       position="-174.28571,300"
       id="guide4193" />
    <sodipodi:guide
       orientation="0,1"
       position="-228.57143,901.42857"
       id="guide4195" />
    <sodipodi:guide
       orientation="0,1"
       position="101.07143,1200"
       id="guide4216" />
    <sodipodi:guide
       orientation="1,0"
       position="0,1105.7143"
       id="guide4218" />
    <sodipodi:guide
       orientation="0,1"
       position="137.85714,0"
       id="guide4220" />
    <sodipodi:guide
       orientation="1,0"
       position="1200,138.92857"
       id="guide4222" />
  </sodipodi:namedview>
  <metadata
     id="metadata4182">
    <rdf:RDF>
      <cc:Work
         rdf:about="">
        <dc:format>image/svg+xml</dc:format>
        <dc:type
           rdf:resource="http://purl.org/dc/dcmitype/StillImage" />
        <dc:title></dc:title>
      </cc:Work>
    </rdf:RDF>
  </metadata>
  <g
     inkscape:label="Capa 1"
     inkscape:groupmode="layer"
     id="layer1"
     transform="translate(0,147.63782)">
    <path
       style="fill:#000000;fill-opacity:1;stroke:none"
       d="M 41 41 L 41 1159 L 1159 1159 L 1159 41 L 41 41 z M 141.03125 208.5625 L 993.84375 208.5625 L 993.84375 294.21875 C 995.17572 322.79215 995.47088 421.94641 995.03125 644.40625 L 994.375 990.9375 L 993.9375 991.875 L 993.9375 1061.7188 L 877.15625 1061.7188 C 748.50837 1063.9699 389.45251 1063.97 260.8125 1061.7188 L 141.125 1061.7188 L 141.125 966.71875 L 141.125 303.59375 L 141.03125 303.59375 L 141.03125 208.5625 z M 304 272.5625 C 247.66696 272.5625 202 318.22946 202 374.5625 C 202 430.89554 247.66696 476.5625 304 476.5625 C 360.33304 476.5625 406 430.89554 406 374.5625 C 406 318.22946 360.33304 272.5625 304 272.5625 z M 564 272.5625 C 507.66696 272.5625 462 318.22946 462 374.5625 C 462 430.89554 507.66696 476.5625 564 476.5625 C 620.33304 476.5625 666 430.89554 666 374.5625 C 666 318.22946 620.33304 272.5625 564 272.5625 z M 824 272.5625 C 767.66696 272.5625 722 318.22946 722 374.5625 C 722 430.89554 767.66696 476.5625 824 476.5625 C 880.33304 476.5625 926 430.89554 926 374.5625 C 926 318.22946 880.33304 272.5625 824 272.5625 z M 304 536.5625 C 247.66696 536.5625 202 582.22946 202 638.5625 C 202 694.89554 247.66696 740.5625 304 740.5625 C 360.33304 740.5625 406 694.89554 406 638.5625 C 406 582.22946 360.33304 536.5625 304 536.5625 z M 564 536.5625 C 507.66696 536.5625 462 582.22946 462 638.5625 C 462 694.89554 507.66696 740.5625 564 740.5625 C 620.33304 740.5625 666 694.89554 666 638.5625 C 666 582.22946 620.33304 536.5625 564 536.5625 z M 824 536.5625 C 767.66696 536.5625 722 582.22946 722 638.5625 C 722 694.89554 767.66696 740.5625 824 740.5625 C 880.33304 740.5625 926 694.89554 926 638.5625 C 926 582.22946 880.33304 536.5625 824 536.5625 z M 304 792.5625 C 247.66696 792.5625 202 838.22946 202 894.5625 C 202 950.89554 247.66696 996.5625 304 996.5625 C 360.33304 996.5625 406 950.89554 406 894.5625 C 406 838.22946 360.33304 792.5625 304 792.5625 z M 564 792.5625 C 507.66696 792.5625 462 838.22946 462 894.5625 C 462 950.89554 507.66696 996.5625 564 996.5625 C 620.33304 996.5625 666 950.89554 666 894.5625 C 666 838.22946 620.33304 792.5625 564 792.5625 z M 824 792.5625 C 767.66696 792.5625 722 838.22946 722 894.5625 C 722 950.89554 767.66696 996.5625 824 996.5625 C 880.33304 996.5625 926 950.89554 926 894.5625 C 926 838.22946 880.33304 792.5625 824 792.5625 z "
       transform="translate(0,-147.63782)"
       id="rect3027" />
    <g
       id="layer1-2"
       inkscape:label="Capa 1"
       transform="matrix(0.71068582,0,0,0.71068582,141.02434,165.86399)">
      <g
         id="g3071">
        <g
           transform="matrix(3.1255948,0,0,3.1255948,-3223.541,-329.6341)"
           id="g3059" />
      </g>
    </g>
  </g>
</svg>
