<?xml version="1.0" encoding="UTF-8" standalone="no"?>
<!-- Created with Inkscape (http://www.inkscape.org/) -->

<svg
   xmlns:dc="http://purl.org/dc/elements/1.1/"
   xmlns:cc="http://creativecommons.org/ns#"
   xmlns:rdf="http://www.w3.org/1999/02/22-rdf-syntax-ns#"
   xmlns:svg="http://www.w3.org/2000/svg"
   xmlns="http://www.w3.org/2000/svg"
   xmlns:sodipodi="http://sodipodi.sourceforge.net/DTD/sodipodi-0.dtd"
   xmlns:inkscape="http://www.inkscape.org/namespaces/inkscape"
   width="700"
   height="700"
   id="svg5764"
   version="1.1"
   inkscape:version="0.91pre3 r13670"
   sodipodi:docname="inkscape-black.svg">
  <defs
     id="defs5766" />
  <sodipodi:namedview
     id="base"
     pagecolor="#ffffff"
     bordercolor="#666666"
     borderopacity="1.0"
     inkscape:pageopacity="0.0"
     inkscape:pageshadow="2"
     inkscape:zoom="0.49639718"
     inkscape:cx="301.9913"
     inkscape:cy="349.82549"
     inkscape:document-units="px"
     inkscape:current-layer="g5879"
     showgrid="false"
     borderlayer="true"
     inkscape:window-width="1920"
     inkscape:window-height="1053"
     inkscape:window-x="1920"
     inkscape:window-y="0"
     inkscape:window-maximized="1" />
  <metadata
     id="metadata5769">
    <rdf:RDF>
      <cc:Work
         rdf:about="">
        <dc:format>image/svg+xml</dc:format>
        <dc:type
           rdf:resource="http://purl.org/dc/dcmitype/StillImage" />
        <dc:title></dc:title>
      </cc:Work>
    </rdf:RDF>
  </metadata>
  <g
     inkscape:label="Capa 1"
     inkscape:groupmode="layer"
     id="layer1"
     transform="translate(0,-352.36218)">
    <g
       id="g5879"
       transform="matrix(1.1911394,0,0,1.1911394,-55.16395,191.8626)">
      <title
         id="title5881">Layer 1</title>
      <g
         id="layer1-5"
         style="fill:#000000">
        <path
           style="fill:#000000;fill-opacity:1;stroke:none"
           d="M 350 0 A 350 350 0 0 0 0 350 A 350 350 0 0 0 350 700 A 350 350 0 0 0 700 350 A 350 350 0 0 0 350 0 z M 346.02734 119.68359 C 360.46026 119.71245 375.03535 125.01246 385.95703 135.49805 L 564.56445 318.05664 C 635.55862 389.0508 485.93756 405.50821 442.64844 430.78906 C 427.57741 446.16792 488.97772 456.42844 482.6543 475.37305 C 469.85354 513.71118 435.01814 489.35406 397.60352 527.61523 C 382.55814 542.9941 426.38522 541.54386 411.33984 556.93555 C 382.94218 577.71433 324.87751 592.18313 320.23438 566.8125 C 313.71856 531.30901 278.92038 545.87886 263.875 530.5 C 248.82962 515.12114 294.67038 498.8066 279.625 483.42773 C 264.55397 468.04887 188.62155 453.79878 173.57617 438.41992 C 158.5308 423.02823 231.24459 411.67769 216.19922 396.29883 C 174.25687 375.53288 76.417655 383.92145 134.63672 311.82422 L 306.94531 135.49805 C 317.30264 124.89702 331.59443 119.65473 346.02734 119.68359 z M 347.57422 136.46289 C 337.2698 136.40838 326.92865 140.15461 319.38672 147.86328 C 304.37982 163.20366 276.76546 189.67692 252.70312 215.65039 C 238.92758 229.42595 240.71028 248.66602 255.87109 248.66602 L 293.06836 248.66602 L 317.40039 206.57031 L 332.39258 266.89258 L 377.68359 238.27734 L 405.96484 253.20703 L 412.62305 213.11133 L 446.4707 240.1875 C 450.08775 236.50632 450.17935 223.70521 443.71484 217.09961 L 375.54102 147.86328 C 368.14659 140.37266 357.87863 136.5174 347.57422 136.46289 z M 265.70898 405.83984 C 243.26277 405.83984 332.2266 441.97364 350.56836 437.09961 C 358.7003 432.99516 362.88257 426.91408 356.98242 425.66992 C 339.96178 422.84811 270.31366 408.70013 265.70898 405.83984 z M 539.13672 454.29492 C 552.26075 454.62656 565.0174 460.85095 569.32227 473.30859 C 569.32227 489.85466 504.87109 484.12066 504.87109 475.37305 C 508.91863 461.11128 524.26281 453.91907 539.13672 454.29492 z M 241.00586 492.19141 C 248.91004 492.26473 256.27814 494.62772 260.4375 500.1543 C 253.37015 518.57302 229.79467 535.05384 214.53125 521.85547 C 197.10738 506.764 220.80629 492.00403 241.00586 492.19141 z M 496.78906 493.3418 C 518.27329 497.72843 522.71117 513.10751 518.38867 517.49414 C 498.99514 528.89682 477.11335 510.99093 496.78906 493.3418 z "
           transform="matrix(0.8395323,0,0,0.8395323,46.311918,134.74458)"
           id="path4989" />
        <g
           transform="matrix(1.0768183,0,0,1.0768183,128.32001,218.53221)"
           id="inkscape-logo"
           style="fill:#000000" />
      </g>
    </g>
  </g>
</svg>
