<?xml version="1.0" encoding="UTF-8" standalone="no"?>
<!-- Created with Inkscape (http://www.inkscape.org/) -->

<svg
   xmlns:dc="http://purl.org/dc/elements/1.1/"
   xmlns:cc="http://creativecommons.org/ns#"
   xmlns:rdf="http://www.w3.org/1999/02/22-rdf-syntax-ns#"
   xmlns:svg="http://www.w3.org/2000/svg"
   xmlns="http://www.w3.org/2000/svg"
   xmlns:sodipodi="http://sodipodi.sourceforge.net/DTD/sodipodi-0.dtd"
   xmlns:inkscape="http://www.inkscape.org/namespaces/inkscape"
   width="700"
   height="700"
   id="svg5764"
   version="1.1"
   inkscape:version="0.48.4 r9939"
   sodipodi:docname="structure-icon.svg">
  <defs
     id="defs5766" />
  <sodipodi:namedview
     id="base"
     pagecolor="#ffffff"
     bordercolor="#666666"
     borderopacity="1.0"
     inkscape:pageopacity="0.0"
     inkscape:pageshadow="2"
     inkscape:zoom="0.98994949"
     inkscape:cx="170.28623"
     inkscape:cy="340.88794"
     inkscape:document-units="px"
     inkscape:current-layer="layer1"
     showgrid="false"
     borderlayer="true"
     inkscape:window-width="1920"
     inkscape:window-height="1056"
     inkscape:window-x="1920"
     inkscape:window-y="24"
     inkscape:window-maximized="1" />
  <metadata
     id="metadata5769">
    <rdf:RDF>
      <cc:Work
         rdf:about="">
        <dc:format>image/svg+xml</dc:format>
        <dc:type
           rdf:resource="http://purl.org/dc/dcmitype/StillImage" />
        <dc:title />
      </cc:Work>
    </rdf:RDF>
  </metadata>
  <g
     inkscape:label="Capa 1"
     inkscape:groupmode="layer"
     id="layer1"
     transform="translate(0,-352.36218)">
    <g
       id="g5879"
       transform="matrix(1.1911394,0,0,1.1911394,-55.16395,191.8626)"
       style="fill:#48d1cc;fill-opacity:1">
      <title
         id="title5881">Layer 1</title>
      <g
         id="layer1-5"
         style="fill:#48d1cc;fill-opacity:1">
        <path
           style="fill:#48d1cc;fill-opacity:1;stroke:none"
           d="M 350 0 C 156.70034 0 1.5158245e-13 156.70034 0 350 C 0 543.29966 156.70034 700 350 700 C 543.29966 700 700 543.29966 700 350 C 700 156.70034 543.29966 1.5158245e-13 350 0 z M 146 146 L 327.34375 146 L 327.34375 372.65625 L 146 372.65625 L 146 146 z M 372.65625 146 L 554 146 L 554 282 L 372.65625 282 L 372.65625 146 z M 372.65625 327.34375 L 554 327.34375 L 554 554 L 372.65625 554 L 372.65625 327.34375 z M 146 418 L 327.34375 418 L 327.34375 554 L 146 554 L 146 418 z "
           transform="matrix(0.8395323,0,0,0.8395323,46.311918,134.74458)"
           id="path4989" />
      </g>
    </g>
    <g
       id="g3054"
       transform="translate(-475.78185,-131.31983)" />
    <g
       id="g2999"
       transform="matrix(11.333019,0,0,11.333019,78.007544,430.36972)">
      <path
         id="path2989"
         d="M 0,0 H 48 V 48 H 0 z"
         inkscape:connector-curvature="0"
         style="fill:none" />
    </g>
  </g>
</svg>
